if (_typeface_js && _typeface_js.loadFace) _typeface_js.loadFace({"glyphs":{"ǻ":{"x_min":64,"x_max":626,"ha":737,"o":"m 308 1166 q 338 1203 322 1182 q 370 1246 354 1224 q 401 1290 386 1268 q 426 1331 415 1311 l 575 1331 l 575 1320 q 542 1283 564 1305 q 495 1236 521 1261 q 441 1190 469 1212 q 389 1153 413 1167 l 308 1153 l 308 1166 m 536 0 l 511 102 l 505 102 q 461 50 483 72 q 412 13 439 28 q 353 -7 386 0 q 278 -14 321 -14 q 193 0 232 -14 q 125 40 153 12 q 80 109 96 67 q 64 208 64 151 q 142 379 64 320 q 379 445 220 439 l 503 450 l 503 496 q 494 572 503 541 q 465 620 484 602 q 419 647 447 639 q 357 655 392 655 q 253 639 301 655 q 160 599 204 623 l 117 692 q 228 739 167 720 q 357 758 290 758 q 477 744 427 758 q 560 700 527 730 q 609 623 593 669 q 626 509 626 576 l 626 0 l 536 0 m 310 88 q 386 101 351 88 q 447 140 422 114 q 488 205 473 166 q 502 298 502 245 l 502 365 l 405 360 q 303 346 345 357 q 237 316 262 336 q 202 270 213 297 q 191 208 191 243 q 224 117 191 146 q 310 88 257 88 m 522 959 q 510 897 522 924 q 477 850 498 869 q 428 821 456 831 q 366 812 400 812 q 305 821 332 812 q 257 850 277 831 q 226 896 237 869 q 215 958 215 923 q 226 1019 215 992 q 257 1065 237 1046 q 305 1094 277 1084 q 366 1104 332 1104 q 427 1094 399 1104 q 477 1065 456 1084 q 510 1020 498 1046 q 522 959 522 993 m 447 958 q 425 1014 447 994 q 368 1034 403 1034 q 311 1014 333 1034 q 289 958 289 994 q 309 901 289 921 q 368 881 329 881 q 425 901 403 881 q 447 958 447 921 "},"Á":{"x_min":-0.25,"x_max":844.25,"ha":844,"o":"m 715 0 l 606 307 l 237 307 l 127 0 l 0 0 l 364 996 l 479 996 l 844 0 l 715 0 m 566 419 l 466 706 q 456 736 462 719 q 444 774 450 754 q 432 817 438 795 q 421 860 426 839 q 410 816 416 839 q 397 773 404 794 q 386 735 391 752 q 376 706 380 718 l 277 419 l 566 419 m 362 1089 q 392 1134 376 1108 q 424 1187 408 1160 q 455 1242 440 1215 q 480 1293 469 1269 l 629 1293 l 629 1278 q 596 1233 618 1260 q 549 1175 575 1205 q 495 1118 523 1146 q 444 1071 467 1089 l 362 1071 l 362 1089 "},"ĥ":{"x_min":118,"x_max":707,"ha":818,"o":"m 583 0 l 583 479 q 547 611 583 567 q 436 655 512 655 q 343 637 381 655 q 283 585 306 620 q 251 501 261 551 q 241 385 241 450 l 241 0 l 118 0 l 118 1055 l 241 1055 l 241 741 l 236 644 l 242 644 q 283 694 259 673 q 334 730 306 715 q 393 751 362 744 q 457 758 424 758 q 644 693 581 758 q 707 486 707 628 l 707 0 l 583 0 m 655 1109 l 573 1109 q 501 1164 538 1131 q 430 1234 465 1197 q 357 1164 393 1197 q 287 1109 321 1131 l 205 1109 l 205 1127 q 245 1172 222 1146 q 291 1225 268 1198 q 334 1280 314 1253 q 364 1331 354 1307 l 495 1331 q 525 1280 505 1307 q 568 1225 545 1253 q 614 1172 591 1198 q 655 1127 638 1146 l 655 1109 "},"Κ":{"x_min":135,"x_max":804.25,"ha":804,"o":"m 804 0 l 661 0 l 355 473 l 261 396 l 261 0 l 135 0 l 135 992 l 261 992 l 261 496 l 343 609 l 649 992 l 791 992 l 438 559 l 804 0 "},"»":{"x_min":57,"x_max":621.5,"ha":676,"o":"m 621 356 l 411 78 l 333 130 l 494 367 l 333 603 l 411 656 l 621 375 l 621 356 m 345 356 l 136 78 l 57 130 l 218 367 l 57 603 l 136 656 l 345 375 l 345 356 "},"∆":{"x_min":28,"x_max":761,"ha":789,"o":"m 28 76 l 330 992 l 457 992 l 761 75 l 761 0 l 28 0 l 28 76 m 456 625 q 419 748 434 691 q 393 856 403 805 q 367 748 381 805 q 333 629 353 691 l 161 111 l 627 111 l 456 625 "},"ў":{"x_min":6.75,"x_max":672.25,"ha":679,"o":"m 6 745 l 134 745 l 280 329 q 300 272 290 301 q 318 212 310 242 q 333 154 327 182 q 341 103 339 126 l 346 103 q 356 149 349 120 q 373 211 364 178 q 392 276 382 244 q 409 330 402 308 l 544 745 l 672 745 l 377 -96 q 336 -195 358 -152 q 285 -270 314 -239 q 217 -317 256 -300 q 123 -334 177 -334 q 62 -330 88 -334 q 18 -322 36 -326 l 18 -223 q 54 -229 32 -226 q 99 -231 75 -231 q 156 -223 132 -231 q 197 -201 179 -216 q 227 -164 215 -186 q 250 -115 240 -142 l 289 -6 l 6 745 m 607 1058 q 586 964 602 1005 q 538 897 569 924 q 458 855 506 869 q 342 842 410 842 q 225 855 273 842 q 148 895 177 868 q 104 963 118 922 q 87 1058 90 1003 l 202 1058 q 214 990 205 1016 q 241 949 224 964 q 283 929 258 934 q 345 923 309 923 q 400 930 375 923 q 443 952 425 937 q 473 993 461 968 q 488 1058 484 1019 l 607 1058 "},"ţ":{"x_min":23,"x_max":445,"ha":471,"o":"m 343 88 q 371 89 355 88 q 400 93 386 91 q 426 97 415 95 q 445 102 438 100 l 445 8 q 422 0 436 3 q 392 -7 409 -4 q 358 -12 376 -10 q 324 -14 341 -14 q 246 -3 282 -14 q 184 34 210 7 q 142 106 157 61 q 128 221 128 152 l 128 656 l 23 656 l 23 709 l 128 759 l 180 915 l 251 915 l 251 745 l 439 745 l 439 656 l 251 656 l 251 221 q 272 121 251 155 q 343 88 294 88 m 138 -288 q 154 -246 145 -271 q 171 -191 163 -220 q 185 -135 179 -163 q 194 -85 192 -107 l 317 -85 l 317 -98 q 302 -141 312 -115 q 276 -197 291 -167 q 242 -255 261 -226 q 204 -307 224 -284 l 138 -307 l 138 -288 "},"«":{"x_min":55.5,"x_max":620,"ha":676,"o":"m 55 375 l 264 656 l 344 603 l 183 367 l 344 130 l 264 78 l 55 356 l 55 375 m 331 375 l 541 656 l 620 603 l 459 367 l 620 130 l 541 78 l 331 356 l 331 375 "},"í":{"x_min":118,"x_max":392,"ha":359,"o":"m 241 0 l 118 0 l 118 745 l 241 745 l 241 0 m 125 860 q 155 905 139 879 q 187 958 171 931 q 218 1013 203 986 q 243 1064 232 1040 l 392 1064 l 392 1049 q 359 1004 381 1031 q 312 946 338 976 q 258 889 286 917 q 207 842 230 860 l 125 842 l 125 860 "},"ņ":{"x_min":118,"x_max":707,"ha":818,"o":"m 583 0 l 583 479 q 547 611 583 567 q 436 655 512 655 q 343 637 381 655 q 283 585 306 620 q 251 501 261 551 q 241 385 241 450 l 241 0 l 118 0 l 118 745 l 218 745 l 236 644 l 242 644 q 283 694 259 673 q 334 730 306 715 q 393 751 362 744 q 457 758 424 758 q 644 693 581 758 q 707 486 707 628 l 707 0 l 583 0 m 300 -288 q 316 -246 307 -271 q 333 -191 325 -220 q 347 -135 341 -163 q 356 -85 354 -107 l 479 -85 l 479 -98 q 464 -141 474 -115 q 438 -197 453 -167 q 404 -255 423 -226 q 366 -307 386 -284 l 300 -307 l 300 -288 "},"µ":{"x_min":118,"x_max":706,"ha":825,"o":"m 241 264 q 277 132 241 176 q 388 88 313 88 q 481 106 443 88 q 540 158 518 123 q 573 242 563 192 q 582 357 582 292 l 582 745 l 706 745 l 706 0 l 606 0 l 588 99 l 581 99 q 500 14 548 43 q 381 -14 451 -14 q 296 1 332 -14 q 237 45 261 17 q 239 -7 238 19 q 241 -59 240 -30 q 241 -117 241 -88 l 241 -334 l 118 -334 l 118 745 l 241 745 l 241 264 "},"ỳ":{"x_min":6.75,"x_max":672.25,"ha":679,"o":"m 6 745 l 134 745 l 280 329 q 300 272 290 301 q 318 212 310 242 q 333 154 327 182 q 341 103 339 126 l 346 103 q 356 149 349 120 q 373 211 364 178 q 392 276 382 244 q 409 330 402 308 l 544 745 l 672 745 l 377 -96 q 336 -195 358 -152 q 285 -270 314 -239 q 217 -317 256 -300 q 123 -334 177 -334 q 62 -330 88 -334 q 18 -322 36 -326 l 18 -223 q 54 -229 32 -226 q 99 -231 75 -231 q 156 -223 132 -231 q 197 -201 179 -216 q 227 -164 215 -186 q 250 -115 240 -142 l 289 -6 l 6 745 m 411 842 l 329 842 q 277 889 305 860 q 223 946 249 917 q 176 1004 197 976 q 144 1049 154 1031 l 144 1064 l 292 1064 q 318 1013 303 1040 q 348 958 332 986 q 380 905 364 931 q 411 860 396 879 l 411 842 "},"Ι":{"x_min":55.34375,"x_max":414.8125,"ha":471,"o":"m 414 0 l 55 0 l 55 69 l 172 96 l 172 895 l 55 922 l 55 992 l 414 992 l 414 922 l 298 895 l 298 96 l 414 69 l 414 0 "},"Ύ":{"x_min":-18,"x_max":924.25,"ha":925,"o":"m 557 490 l 788 992 l 924 992 l 621 386 l 621 0 l 495 0 l 495 379 l 192 992 l 330 992 l 557 490 m -18 789 q -4 835 -11 809 q 8 889 2 861 q 20 943 15 916 q 29 993 26 970 l 164 993 l 164 978 q 148 936 159 962 q 122 880 137 909 q 89 821 106 850 q 55 771 71 792 l -18 771 l -18 789 "},"ѕ":{"x_min":61.15625,"x_max":564,"ha":627,"o":"m 564 203 q 544 108 564 149 q 487 40 524 68 q 398 0 450 13 q 281 -14 346 -14 q 154 -2 207 -14 q 61 33 101 9 l 61 146 q 107 125 82 135 q 161 106 133 114 q 219 93 189 98 q 279 88 249 88 q 353 95 323 88 q 403 116 384 103 q 431 150 423 130 q 440 194 440 170 q 433 232 440 215 q 409 265 427 249 q 360 299 391 282 q 280 337 329 316 q 193 378 232 358 q 127 424 154 399 q 86 482 100 449 q 72 560 72 515 q 90 645 72 608 q 143 707 109 682 q 224 745 177 732 q 330 758 272 758 q 451 743 396 758 q 554 706 505 729 l 512 606 q 422 641 468 626 q 329 655 376 655 q 228 632 261 655 q 195 568 195 610 q 203 526 195 544 q 229 493 210 509 q 279 461 248 477 q 358 426 311 445 q 444 385 406 405 q 509 339 482 365 q 549 281 535 314 q 564 203 564 249 "},"Ш":{"x_min":135,"x_max":1250,"ha":1385,"o":"m 1250 0 l 135 0 l 135 992 l 261 992 l 261 111 l 629 111 l 629 992 l 755 992 l 755 111 l 1123 111 l 1123 992 l 1250 992 l 1250 0 "},"M":{"x_min":135,"x_max":1074,"ha":1209,"o":"m 544 0 l 253 868 l 248 868 q 255 768 252 818 q 259 678 257 726 q 261 593 261 631 l 261 0 l 135 0 l 135 992 l 331 992 l 601 183 l 605 183 l 886 992 l 1074 992 l 1074 0 l 947 0 l 947 601 q 949 682 947 637 q 952 769 950 728 q 957 867 955 817 l 951 867 l 648 0 l 544 0 "},"Ψ":{"x_min":71,"x_max":994,"ha":1065,"o":"m 994 667 q 985 582 994 625 q 959 499 977 539 q 913 423 942 458 q 844 360 885 387 q 749 318 803 334 q 626 303 694 303 l 594 303 l 594 0 l 468 0 l 468 303 l 436 303 q 314 318 368 303 q 220 359 260 333 q 151 421 179 386 q 105 497 122 456 q 79 580 87 537 q 71 664 71 623 l 71 992 l 204 992 l 204 667 q 219 560 204 607 q 265 479 235 512 q 342 428 295 446 q 450 410 388 410 l 468 410 l 468 992 l 594 992 l 594 410 l 611 410 q 798 477 737 410 q 860 664 860 544 l 860 992 l 994 992 l 994 667 "},"ũ":{"x_min":111,"x_max":700,"ha":818,"o":"m 600 0 l 582 99 l 575 99 q 534 48 558 70 q 483 13 511 27 q 424 -7 455 0 q 360 -14 393 -14 q 252 1 299 -14 q 174 50 205 17 q 126 135 142 83 q 111 258 111 186 l 111 745 l 234 745 l 234 264 q 270 132 234 176 q 381 88 306 88 q 474 106 436 88 q 534 158 511 123 q 566 242 556 192 q 576 357 576 292 l 576 745 l 700 745 l 700 0 l 600 0 m 510 843 q 456 854 483 843 q 404 881 430 866 q 354 907 378 895 q 309 919 330 919 q 262 901 278 919 q 236 841 246 883 l 166 841 q 180 915 169 882 q 209 972 191 948 q 252 1008 227 995 q 309 1021 277 1021 q 365 1009 337 1021 q 418 982 392 997 q 467 956 444 968 q 510 944 491 944 q 556 962 541 944 q 582 1022 572 980 l 654 1022 q 639 948 650 981 q 610 892 628 915 q 567 855 592 868 q 510 843 542 843 "},"ŭ":{"x_min":111,"x_max":700,"ha":818,"o":"m 600 0 l 582 99 l 575 99 q 534 48 558 70 q 483 13 511 27 q 424 -7 455 0 q 360 -14 393 -14 q 252 1 299 -14 q 174 50 205 17 q 126 135 142 83 q 111 258 111 186 l 111 745 l 234 745 l 234 264 q 270 132 234 176 q 381 88 306 88 q 474 106 436 88 q 534 158 511 123 q 566 242 556 192 q 576 357 576 292 l 576 745 l 700 745 l 700 0 l 600 0 m 612 1030 q 594 954 609 988 q 553 894 579 920 q 490 855 527 869 q 405 842 453 842 q 318 855 355 842 q 257 893 281 868 q 219 952 232 918 q 204 1030 206 987 l 278 1030 q 290 983 281 1000 q 316 957 300 965 q 355 946 332 948 q 408 943 378 943 q 454 946 432 943 q 494 959 476 949 q 523 985 511 968 q 537 1030 534 1002 l 612 1030 "},"―":{"x_min":56,"x_max":1333,"ha":1389,"o":"m 56 315 l 56 429 l 1333 429 l 1333 315 l 56 315 "},"{":{"x_min":41,"x_max":456,"ha":492,"o":"m 338 -10 q 346 -64 338 -43 q 369 -96 354 -84 q 407 -113 385 -108 q 456 -118 428 -117 l 456 -220 q 359 -208 404 -219 q 283 -172 315 -196 q 233 -110 251 -148 q 215 -19 215 -73 l 215 208 q 170 307 215 278 q 41 337 125 337 l 41 439 q 170 468 125 439 q 215 567 215 497 l 215 793 q 233 883 215 846 q 283 944 251 920 q 359 980 315 968 q 456 992 404 991 l 456 890 q 407 885 428 889 q 369 868 385 880 q 346 836 354 857 q 338 783 338 815 l 338 559 q 298 446 338 488 q 180 391 258 405 l 180 383 q 298 328 258 369 q 338 214 338 286 l 338 -10 "},"¼":{"x_min":42,"x_max":962.765625,"ha":1023,"o":"m 207 992 l 297 992 l 297 397 l 201 397 l 201 754 q 201 792 201 771 q 202 833 201 813 q 204 873 203 854 q 206 908 205 893 q 184 881 196 895 q 156 853 171 866 l 92 799 l 42 864 l 207 992 m 815 992 l 264 0 l 157 0 l 708 992 l 815 992 m 962 133 l 877 133 l 877 0 l 781 0 l 781 133 l 526 133 l 526 208 l 782 599 l 877 599 l 877 217 l 962 217 l 962 133 m 781 217 l 781 368 q 782 439 781 400 q 785 515 783 477 q 774 492 781 507 q 760 462 767 478 q 744 430 752 445 q 729 403 736 414 l 622 217 l 781 217 "},"Ḿ":{"x_min":135,"x_max":1074,"ha":1209,"o":"m 544 0 l 253 868 l 248 868 q 255 768 252 818 q 259 678 257 726 q 261 593 261 631 l 261 0 l 135 0 l 135 992 l 331 992 l 601 183 l 605 183 l 886 992 l 1074 992 l 1074 0 l 947 0 l 947 601 q 949 682 947 637 q 952 769 950 728 q 957 867 955 817 l 951 867 l 648 0 l 544 0 m 522 1091 q 552 1136 536 1110 q 584 1189 568 1162 q 615 1244 600 1217 q 640 1295 629 1271 l 789 1295 l 789 1280 q 756 1235 778 1262 q 709 1177 735 1207 q 655 1120 683 1148 q 604 1073 627 1091 l 522 1073 l 522 1091 "},"ι":{"x_min":111,"x_max":428,"ha":454,"o":"m 234 743 l 234 220 q 255 121 234 154 q 326 88 277 88 q 353 89 338 88 q 383 93 368 91 q 409 97 397 95 q 428 102 421 100 l 428 8 q 405 0 419 3 q 375 -7 391 -4 q 341 -12 358 -10 q 307 -14 323 -14 q 229 -3 265 -14 q 167 34 193 7 q 125 105 140 60 q 111 219 111 150 l 111 743 l 234 743 "},"Ĳ":{"x_min":55.34375,"x_max":722.15625,"ha":847,"o":"m 414 0 l 55 0 l 55 69 l 172 96 l 172 895 l 55 922 l 55 992 l 414 992 l 414 922 l 298 895 l 298 96 l 414 69 l 414 0 m 451 -264 q 390 -259 416 -264 q 346 -247 364 -255 l 346 -139 q 395 -149 369 -145 q 452 -152 422 -152 q 503 -146 477 -152 q 549 -122 528 -139 q 583 -76 570 -105 q 596 0 596 -46 l 596 992 l 722 992 l 722 13 q 702 -109 722 -57 q 646 -196 682 -162 q 561 -247 611 -230 q 451 -264 511 -264 "},"Ê":{"x_min":135,"x_max":650,"ha":733,"o":"m 650 0 l 135 0 l 135 992 l 650 992 l 650 880 l 261 880 l 261 574 l 624 574 l 624 462 l 261 462 l 261 111 l 650 111 l 650 0 m 616 1071 l 534 1071 q 462 1126 499 1093 q 391 1196 426 1159 q 318 1126 354 1159 q 248 1071 282 1093 l 166 1071 l 166 1089 q 206 1134 183 1108 q 252 1187 229 1160 q 295 1242 275 1215 q 325 1293 315 1269 l 456 1293 q 486 1242 466 1269 q 529 1187 506 1215 q 575 1134 552 1160 q 616 1089 599 1108 l 616 1071 "},"Ά":{"x_min":-16,"x_max":844.25,"ha":844,"o":"m 715 0 l 606 307 l 237 307 l 127 0 l 0 0 l 364 996 l 479 996 l 844 0 l 715 0 m 566 419 l 466 706 q 456 736 462 719 q 444 774 450 754 q 432 817 438 795 q 421 860 426 839 q 410 816 416 839 q 397 773 404 794 q 386 735 391 752 q 376 706 380 718 l 277 419 l 566 419 m -16 789 q -2 835 -9 809 q 10 889 4 861 q 22 943 17 916 q 31 993 28 970 l 166 993 l 166 978 q 150 936 161 962 q 124 880 139 909 q 91 821 108 850 q 57 771 73 792 l -16 771 l -16 789 "},")":{"x_min":42,"x_max":363,"ha":418,"o":"m 363 380 q 350 214 363 296 q 313 57 338 133 q 249 -89 287 -19 q 158 -220 211 -158 l 43 -220 q 126 -84 90 -156 q 186 64 162 -12 q 223 221 211 141 q 235 381 235 301 q 186 704 235 547 q 42 992 137 861 l 158 992 q 249 857 211 928 q 313 708 287 785 q 350 547 338 630 q 363 380 363 465 "},"ε":{"x_min":61,"x_max":583,"ha":629,"o":"m 453 439 l 453 336 l 366 336 q 229 305 273 336 q 184 210 184 274 q 198 152 184 176 q 235 114 212 129 q 291 94 259 100 q 360 88 323 88 q 426 93 395 88 q 484 106 457 98 q 535 125 511 114 q 580 146 559 135 l 580 37 q 486 0 540 14 q 359 -14 433 -14 q 226 2 282 -14 q 133 48 170 19 q 78 117 96 77 q 61 203 61 157 q 73 275 61 245 q 108 326 86 305 q 157 361 129 347 q 215 385 185 375 l 215 392 q 162 416 185 402 q 121 452 138 431 q 94 500 103 473 q 85 561 85 527 q 104 645 85 608 q 159 707 124 682 q 244 745 195 732 q 351 758 293 758 q 417 754 387 758 q 475 745 448 751 q 529 729 503 739 q 583 706 555 720 l 540 606 q 445 642 489 629 q 353 655 401 655 q 240 629 279 655 q 201 551 201 603 q 214 499 201 520 q 252 464 228 477 q 311 445 277 451 q 386 439 345 439 l 453 439 "},"э":{"x_min":37,"x_max":566,"ha":642,"o":"m 218 -14 q 115 -3 157 -14 q 37 26 73 6 l 37 135 q 118 106 73 118 q 219 93 163 93 q 308 107 269 93 q 376 149 348 121 q 420 223 404 178 q 439 331 437 268 l 114 331 l 114 434 l 438 434 q 379 598 429 547 q 234 650 329 650 q 197 647 217 650 q 156 638 176 644 q 116 627 135 633 q 82 614 97 621 l 45 718 q 83 733 62 726 q 130 746 105 741 q 180 754 154 751 q 233 758 207 758 q 363 736 302 758 q 468 669 424 715 q 539 548 513 623 q 566 367 566 474 q 538 196 566 268 q 463 78 511 125 q 352 8 415 31 q 218 -14 289 -14 "},"ш":{"x_min":118,"x_max":1089,"ha":1207,"o":"m 665 102 l 965 102 l 965 745 l 1089 745 l 1089 0 l 118 0 l 118 745 l 241 745 l 241 102 l 542 102 l 542 745 l 665 745 l 665 102 "},"Я":{"x_min":16.75,"x_max":685,"ha":819,"o":"m 391 410 l 165 0 l 16 0 l 275 444 q 204 479 237 458 q 145 533 170 500 q 104 612 119 566 q 90 721 90 658 q 175 923 90 855 q 431 992 261 992 l 685 992 l 685 0 l 558 0 l 558 410 l 391 410 m 558 884 l 432 884 q 343 874 382 884 q 277 843 304 864 q 237 789 251 822 q 223 710 223 756 q 236 630 223 666 q 276 569 249 595 q 342 531 302 544 q 437 517 382 517 l 558 517 l 558 884 "},"a":{"x_min":64,"x_max":626,"ha":737,"o":"m 536 0 l 511 102 l 505 102 q 461 50 483 72 q 412 13 439 28 q 353 -7 386 0 q 278 -14 321 -14 q 193 0 232 -14 q 125 40 153 12 q 80 109 96 67 q 64 208 64 151 q 142 379 64 320 q 379 445 220 439 l 503 450 l 503 496 q 494 572 503 541 q 465 620 484 602 q 419 647 447 639 q 357 655 392 655 q 253 639 301 655 q 160 599 204 623 l 117 692 q 228 739 167 720 q 357 758 290 758 q 477 744 427 758 q 560 700 527 730 q 609 623 593 669 q 626 509 626 576 l 626 0 l 536 0 m 310 88 q 386 101 351 88 q 447 140 422 114 q 488 205 473 166 q 502 298 502 245 l 502 365 l 405 360 q 303 346 345 357 q 237 316 262 336 q 202 270 213 297 q 191 208 191 243 q 224 117 191 146 q 310 88 257 88 "},"Ę":{"x_min":135,"x_max":650,"ha":733,"o":"m 650 0 l 135 0 l 135 992 l 650 992 l 650 880 l 261 880 l 261 574 l 624 574 l 624 462 l 261 462 l 261 111 l 650 111 l 650 0 m 489 -161 q 507 -206 489 -191 q 549 -220 525 -220 q 582 -218 566 -220 q 608 -214 598 -217 l 608 -291 q 568 -299 590 -296 q 527 -302 547 -302 q 425 -266 459 -302 q 392 -170 392 -231 q 401 -116 392 -142 q 427 -69 411 -91 q 460 -30 442 -48 q 496 0 479 -12 l 583 0 q 489 -161 489 -90 "},"Z":{"x_min":56,"x_max":693,"ha":749,"o":"m 693 0 l 56 0 l 56 97 l 537 880 l 70 880 l 70 992 l 679 992 l 679 894 l 197 111 l 693 111 l 693 0 "}," ":{"x_min":0,"x_max":0,"ha":231},"k":{"x_min":118,"x_max":684.25,"ha":689,"o":"m 233 384 l 324 500 l 522 745 l 665 745 l 394 422 l 684 0 l 542 0 l 315 341 l 241 286 l 241 0 l 118 0 l 118 1055 l 241 1055 l 241 571 l 230 384 l 233 384 "},"Ù":{"x_min":125,"x_max":845,"ha":970,"o":"m 845 993 l 845 349 q 822 205 845 272 q 755 90 800 139 q 641 13 709 41 q 481 -14 573 -14 q 327 12 394 -14 q 216 86 261 38 q 148 202 171 134 q 125 352 125 269 l 125 991 l 251 991 l 251 346 q 309 162 251 227 q 487 97 368 97 q 591 115 548 97 q 663 167 635 133 q 704 246 690 200 q 718 347 718 292 l 718 993 l 845 993 m 575 1071 l 493 1071 q 441 1118 469 1089 q 387 1175 413 1146 q 340 1233 361 1205 q 308 1278 318 1260 l 308 1293 l 456 1293 q 482 1242 467 1269 q 512 1187 496 1215 q 544 1134 528 1160 q 575 1089 560 1108 l 575 1071 "},"Ů":{"x_min":125,"x_max":845,"ha":970,"o":"m 845 993 l 845 349 q 822 205 845 272 q 755 90 800 139 q 641 13 709 41 q 481 -14 573 -14 q 327 12 394 -14 q 216 86 261 38 q 148 202 171 134 q 125 352 125 269 l 125 991 l 251 991 l 251 346 q 309 162 251 227 q 487 97 368 97 q 591 115 548 97 q 663 167 635 133 q 704 246 690 200 q 718 347 718 292 l 718 993 l 845 993 m 639 1218 q 627 1156 639 1183 q 594 1109 615 1128 q 545 1080 573 1090 q 483 1071 516 1071 q 421 1080 449 1071 q 373 1109 393 1090 q 342 1155 353 1128 q 332 1217 332 1182 q 342 1278 332 1251 q 373 1324 353 1305 q 421 1353 393 1343 q 483 1363 449 1363 q 544 1353 516 1363 q 594 1324 573 1343 q 627 1279 615 1305 q 639 1218 639 1252 m 564 1217 q 542 1273 564 1253 q 485 1293 520 1293 q 428 1273 450 1293 q 406 1217 406 1253 q 426 1160 406 1180 q 485 1140 446 1140 q 542 1160 520 1140 q 564 1217 564 1180 "},"¢":{"x_min":128,"x_max":647,"ha":765,"o":"m 634 162 q 574 133 605 143 q 498 121 542 123 l 498 -14 l 382 -14 l 382 126 q 276 160 323 134 q 196 230 229 185 q 145 343 163 275 q 128 503 128 410 q 145 668 128 599 q 196 783 163 737 q 276 854 229 829 q 382 889 323 880 l 382 1006 l 498 1006 l 498 894 q 580 880 540 892 q 647 853 620 869 l 611 747 q 576 761 595 754 q 537 772 557 767 q 496 780 516 777 q 459 783 476 783 q 304 715 353 783 q 255 504 255 647 q 304 296 255 362 q 454 231 353 231 q 553 243 509 231 q 634 272 598 256 l 634 162 "},"В":{"x_min":135,"x_max":786,"ha":863,"o":"m 135 992 l 405 992 q 558 978 492 992 q 668 936 624 965 q 735 858 713 906 q 758 740 758 810 q 744 662 758 698 q 707 597 731 625 q 645 551 682 569 q 563 526 609 532 l 563 519 q 650 496 609 511 q 720 454 690 480 q 768 386 751 427 q 786 287 786 345 q 763 166 786 219 q 700 76 741 113 q 598 19 658 39 q 463 0 539 0 l 135 0 l 135 992 m 261 572 l 427 572 q 523 582 485 572 q 586 612 562 592 q 621 662 610 632 q 631 732 631 692 q 579 848 631 813 q 413 884 526 884 l 261 884 l 261 572 m 261 464 l 261 107 l 441 107 q 541 121 500 107 q 606 159 581 134 q 641 217 630 183 q 652 292 652 251 q 641 362 652 330 q 604 416 630 393 q 537 451 579 439 q 433 464 495 464 l 261 464 "},"І":{"x_min":55.34375,"x_max":414.8125,"ha":471,"o":"m 414 0 l 55 0 l 55 69 l 172 96 l 172 895 l 55 922 l 55 992 l 414 992 l 414 922 l 298 895 l 298 96 l 414 69 l 414 0 "},"ē":{"x_min":77,"x_max":673,"ha":743,"o":"m 412 -14 q 276 11 337 -14 q 170 84 214 36 q 101 203 125 132 q 77 366 77 274 q 99 531 77 458 q 162 654 121 604 q 259 731 202 705 q 384 758 316 758 q 505 733 451 758 q 595 665 558 709 q 653 560 633 621 q 673 423 673 498 l 673 346 l 204 346 q 259 155 207 216 q 413 93 311 93 q 477 97 448 93 q 534 107 507 100 q 587 123 561 113 q 639 145 613 133 l 639 35 q 586 13 612 22 q 533 -2 560 3 q 476 -11 505 -8 q 412 -14 446 -14 m 384 655 q 260 602 306 655 q 207 449 214 549 l 545 449 q 536 533 545 495 q 507 598 526 571 q 457 640 487 625 q 384 655 427 655 m 192 943 l 582 943 l 582 842 l 192 842 l 192 943 "},"β":{"x_min":118,"x_max":774,"ha":836,"o":"m 427 1063 q 548 1046 493 1063 q 643 996 603 1029 q 706 913 683 963 q 729 796 729 863 q 677 637 729 695 q 528 563 625 578 l 528 559 q 711 476 648 544 q 774 281 774 407 q 752 152 774 207 q 690 60 731 97 q 591 4 649 23 q 458 -14 532 -14 q 337 -3 393 -14 q 241 28 282 7 l 241 -334 l 118 -334 l 118 743 q 141 887 118 826 q 205 986 164 947 q 303 1044 246 1025 q 427 1063 360 1063 m 427 960 q 355 950 389 960 q 296 913 321 939 q 256 845 271 888 q 241 737 241 802 l 241 142 q 289 120 263 130 q 344 102 316 110 q 399 92 371 95 q 452 88 427 88 q 544 101 506 88 q 605 141 581 115 q 640 205 629 167 q 650 291 650 243 q 632 385 650 345 q 581 451 614 425 q 504 490 549 477 q 405 502 459 502 l 336 502 l 336 605 l 388 605 q 483 618 443 605 q 550 656 523 632 q 589 715 576 681 q 601 791 601 750 q 588 865 601 834 q 552 918 575 897 q 497 950 529 939 q 427 960 465 960 "},"≠":{"x_min":69,"x_max":696,"ha":765,"o":"m 237 300 l 69 300 l 69 402 l 285 402 l 367 577 l 69 577 l 69 679 l 414 679 l 504 870 l 598 830 l 526 679 l 696 679 l 696 577 l 479 577 l 396 402 l 696 402 l 696 300 l 349 300 l 260 111 l 167 150 l 237 300 "},"‼":{"x_min":100,"x_max":587.265625,"ha":688,"o":"m 543 280 l 461 280 l 427 992 l 577 992 l 543 280 m 415 74 q 421 118 415 100 q 440 147 428 136 q 467 163 451 158 q 501 169 482 169 q 534 163 518 169 q 562 147 550 158 q 580 118 573 136 q 587 74 587 100 q 580 31 587 49 q 562 2 573 13 q 534 -14 550 -9 q 501 -20 518 -20 q 467 -14 482 -20 q 440 2 451 -9 q 421 31 428 13 q 415 74 415 49 m 228 280 l 146 280 l 112 992 l 262 992 l 228 280 m 100 74 q 106 118 100 100 q 125 147 113 136 q 152 163 136 158 q 186 169 167 169 q 219 163 203 169 q 247 147 235 158 q 265 118 258 136 q 272 74 272 100 q 265 31 272 49 q 247 2 258 13 q 219 -14 235 -9 q 186 -20 203 -20 q 152 -14 167 -20 q 125 2 136 -9 q 106 31 113 13 q 100 74 100 49 "},"¥":{"x_min":20,"x_max":751,"ha":765,"o":"m 384 490 l 621 992 l 751 992 l 490 471 l 652 471 l 652 363 l 448 363 l 448 271 l 652 271 l 652 163 l 448 163 l 448 0 l 322 0 l 322 163 l 118 163 l 118 271 l 322 271 l 322 363 l 118 363 l 118 471 l 276 471 l 20 992 l 150 992 l 384 490 "},"Ĥ":{"x_min":135,"x_max":839,"ha":974,"o":"m 839 0 l 712 0 l 712 462 l 261 462 l 261 0 l 135 0 l 135 992 l 261 992 l 261 574 l 712 574 l 712 992 l 839 992 l 839 0 m 712 1071 l 630 1071 q 558 1126 595 1093 q 487 1196 522 1159 q 414 1126 450 1159 q 344 1071 378 1093 l 262 1071 l 262 1089 q 302 1134 279 1108 q 348 1187 325 1160 q 391 1242 371 1215 q 421 1293 411 1269 l 552 1293 q 582 1242 562 1269 q 625 1187 602 1215 q 671 1134 648 1160 q 712 1089 695 1108 l 712 1071 "},"U":{"x_min":125,"x_max":845,"ha":970,"o":"m 845 993 l 845 349 q 822 205 845 272 q 755 90 800 139 q 641 13 709 41 q 481 -14 573 -14 q 327 12 394 -14 q 216 86 261 38 q 148 202 171 134 q 125 352 125 269 l 125 991 l 251 991 l 251 346 q 309 162 251 227 q 487 97 368 97 q 591 115 548 97 q 663 167 635 133 q 704 246 690 200 q 718 347 718 292 l 718 993 l 845 993 "},"Ñ":{"x_min":135,"x_max":878,"ha":1013,"o":"m 878 0 l 724 0 l 253 821 l 248 821 q 255 717 252 768 q 259 624 257 673 q 261 538 261 576 l 261 0 l 135 0 l 135 992 l 288 992 l 757 174 l 762 174 q 757 276 759 226 q 755 321 756 298 q 753 366 754 343 q 752 410 752 389 q 751 449 751 431 l 751 992 l 878 992 l 878 0 m 614 1072 q 560 1083 587 1072 q 508 1110 534 1095 q 458 1136 482 1124 q 413 1148 434 1148 q 366 1130 382 1148 q 340 1070 350 1112 l 270 1070 q 284 1144 273 1111 q 313 1201 295 1177 q 356 1237 331 1224 q 413 1250 381 1250 q 469 1238 441 1250 q 522 1211 496 1226 q 571 1185 548 1197 q 614 1173 595 1173 q 660 1191 645 1173 q 686 1251 676 1209 l 758 1251 q 743 1177 754 1210 q 714 1121 732 1144 q 671 1084 696 1097 q 614 1072 646 1072 "},"F":{"x_min":135,"x_max":649,"ha":682,"o":"m 261 0 l 135 0 l 135 992 l 649 992 l 649 880 l 261 880 l 261 531 l 623 531 l 623 419 l 261 419 l 261 0 "},"ϑ":{"x_min":7.125,"x_max":815.203125,"ha":834,"o":"m 594 664 q 566 793 585 736 q 521 888 547 850 q 464 948 495 927 q 401 968 433 968 q 321 939 350 968 q 292 861 292 909 q 307 788 292 824 q 359 726 323 753 q 452 681 394 698 q 594 664 509 664 m 722 575 q 724 540 723 560 q 725 499 725 520 q 703 296 725 390 q 637 133 681 202 q 527 25 594 64 q 372 -14 461 -14 q 247 4 297 -14 q 169 55 198 23 q 128 129 140 87 q 117 218 117 172 q 120 277 117 245 q 127 338 123 308 q 134 394 131 368 q 138 435 138 419 q 127 477 138 466 q 95 488 117 488 q 61 483 79 488 q 32 471 43 478 l 7 560 q 66 581 32 572 q 136 591 100 591 q 194 581 171 591 q 233 555 218 572 q 255 515 248 538 q 261 465 261 492 q 258 412 261 441 q 250 351 254 383 q 243 287 247 320 q 240 224 240 254 q 247 170 240 195 q 270 127 254 145 q 313 98 287 109 q 379 88 340 88 q 546 192 490 88 q 601 503 601 296 q 600 540 601 519 q 598 575 600 561 q 398 601 480 576 q 265 667 316 626 q 191 759 214 707 q 169 865 169 810 q 182 947 169 909 q 222 1012 195 985 q 293 1055 250 1040 q 396 1071 336 1071 q 521 1042 466 1071 q 615 961 576 1014 q 680 833 655 908 q 718 664 706 757 l 815 664 l 815 575 l 722 575 "},"Ќ":{"x_min":135,"x_max":804.25,"ha":804,"o":"m 804 0 l 655 0 l 261 502 l 261 0 l 135 0 l 135 992 l 261 992 l 261 511 l 644 992 l 784 992 l 401 515 l 804 0 m 359 1089 q 389 1134 373 1108 q 421 1187 405 1160 q 452 1242 437 1215 q 477 1293 466 1269 l 626 1293 l 626 1278 q 593 1233 615 1260 q 546 1175 572 1205 q 492 1118 520 1146 q 441 1071 464 1089 l 359 1071 l 359 1089 "},"å":{"x_min":64,"x_max":626,"ha":737,"o":"m 536 0 l 511 102 l 505 102 q 461 50 483 72 q 412 13 439 28 q 353 -7 386 0 q 278 -14 321 -14 q 193 0 232 -14 q 125 40 153 12 q 80 109 96 67 q 64 208 64 151 q 142 379 64 320 q 379 445 220 439 l 503 450 l 503 496 q 494 572 503 541 q 465 620 484 602 q 419 647 447 639 q 357 655 392 655 q 253 639 301 655 q 160 599 204 623 l 117 692 q 228 739 167 720 q 357 758 290 758 q 477 744 427 758 q 560 700 527 730 q 609 623 593 669 q 626 509 626 576 l 626 0 l 536 0 m 310 88 q 386 101 351 88 q 447 140 422 114 q 488 205 473 166 q 502 298 502 245 l 502 365 l 405 360 q 303 346 345 357 q 237 316 262 336 q 202 270 213 297 q 191 208 191 243 q 224 117 191 146 q 310 88 257 88 m 531 989 q 519 927 531 954 q 486 880 507 899 q 437 851 465 861 q 375 842 408 842 q 313 851 341 842 q 265 880 285 861 q 234 926 245 899 q 224 988 224 953 q 234 1049 224 1022 q 265 1095 245 1076 q 313 1124 285 1114 q 375 1134 341 1134 q 436 1124 408 1134 q 486 1095 465 1114 q 519 1050 507 1076 q 531 989 531 1023 m 456 988 q 434 1044 456 1024 q 377 1064 412 1064 q 320 1044 342 1064 q 298 988 298 1024 q 318 931 298 951 q 377 911 338 911 q 434 931 412 911 q 456 988 456 951 "},"Ϋ":{"x_min":-0.25,"x_max":731.25,"ha":732,"o":"m 364 490 l 595 992 l 731 992 l 428 386 l 428 0 l 302 0 l 302 379 l 0 992 l 137 992 l 364 490 m 174 1174 q 192 1227 174 1211 q 239 1244 211 1244 q 285 1227 265 1244 q 304 1174 304 1210 q 285 1121 304 1138 q 239 1105 265 1105 q 192 1121 211 1105 q 174 1174 174 1138 m 428 1174 q 447 1227 428 1211 q 493 1244 466 1244 q 518 1239 506 1244 q 539 1227 530 1235 q 553 1206 548 1218 q 559 1174 559 1193 q 539 1121 559 1138 q 493 1105 519 1105 q 447 1121 466 1105 q 428 1174 428 1138 "},"0":{"x_min":66,"x_max":700,"ha":765,"o":"m 700 496 q 682 281 700 376 q 627 121 665 186 q 528 20 588 55 q 381 -14 467 -14 q 242 20 301 -14 q 143 121 182 55 q 85 281 104 186 q 66 496 66 376 q 83 711 66 616 q 138 872 100 806 q 236 972 175 937 q 381 1007 296 1007 q 522 972 462 1007 q 621 873 581 938 q 680 712 660 807 q 700 496 700 617 m 191 497 q 201 319 191 395 q 234 192 211 243 q 292 116 256 142 q 381 91 329 91 q 470 116 433 91 q 530 191 506 141 q 564 318 553 241 q 574 497 574 394 q 564 675 574 599 q 530 801 553 751 q 470 876 506 851 q 381 901 433 901 q 292 876 329 901 q 234 801 256 851 q 201 675 211 751 q 191 497 191 599 "},"ō":{"x_min":77,"x_max":725,"ha":802,"o":"m 725 373 q 702 208 725 280 q 637 86 679 135 q 534 11 594 37 q 398 -14 474 -14 q 270 11 329 -14 q 168 86 211 37 q 101 208 125 135 q 77 373 77 280 q 99 537 77 465 q 164 657 122 608 q 267 732 206 707 q 403 758 327 758 q 531 732 472 758 q 633 657 590 707 q 700 537 676 608 q 725 373 725 465 m 204 373 q 250 159 204 231 q 401 88 297 88 q 551 159 506 88 q 597 373 597 231 q 551 585 597 515 q 400 655 504 655 q 250 585 295 655 q 204 373 204 515 m 206 943 l 596 943 l 596 842 l 206 842 l 206 943 "},"”":{"x_min":16,"x_max":489,"ha":504,"o":"m 219 992 l 228 977 q 205 898 218 939 q 176 815 192 857 q 143 731 160 772 q 108 652 125 690 l 16 652 q 38 737 26 692 q 60 827 49 782 q 79 913 70 871 q 94 992 88 956 l 219 992 m 480 992 l 489 977 q 466 898 479 939 q 437 815 453 857 q 404 731 421 772 q 369 652 386 690 l 277 652 q 299 737 287 692 q 321 827 310 782 q 340 913 331 871 q 355 992 349 956 l 480 992 "},"ö":{"x_min":77,"x_max":725,"ha":802,"o":"m 725 373 q 702 208 725 280 q 637 86 679 135 q 534 11 594 37 q 398 -14 474 -14 q 270 11 329 -14 q 168 86 211 37 q 101 208 125 135 q 77 373 77 280 q 99 537 77 465 q 164 657 122 608 q 267 732 206 707 q 403 758 327 758 q 531 732 472 758 q 633 657 590 707 q 700 537 676 608 q 725 373 725 465 m 204 373 q 250 159 204 231 q 401 88 297 88 q 551 159 506 88 q 597 373 597 231 q 551 585 597 515 q 400 655 504 655 q 250 585 295 655 q 204 373 204 515 m 204 945 q 222 998 204 982 q 269 1015 241 1015 q 315 998 295 1015 q 334 945 334 981 q 315 892 334 909 q 269 876 295 876 q 222 892 241 876 q 204 945 204 909 m 458 945 q 477 998 458 982 q 523 1015 496 1015 q 548 1010 536 1015 q 569 998 560 1006 q 583 977 578 989 q 589 945 589 964 q 569 892 589 909 q 523 876 549 876 q 477 892 496 876 q 458 945 458 909 "},"ć":{"x_min":77,"x_max":596,"ha":643,"o":"m 402 -14 q 274 7 334 -14 q 171 75 215 28 q 102 193 127 121 q 77 367 77 266 q 102 548 77 474 q 173 669 128 623 q 278 736 218 715 q 408 758 339 758 q 511 746 461 758 q 596 718 562 735 l 559 614 q 524 627 543 621 q 485 638 505 633 q 445 647 465 644 q 408 650 425 650 q 253 581 302 650 q 204 369 204 513 q 253 160 204 226 q 402 93 302 93 q 502 106 457 93 q 583 135 546 118 l 583 26 q 504 -3 546 6 q 402 -14 463 -14 m 316 860 q 346 905 330 879 q 378 958 362 931 q 409 1013 394 986 q 434 1064 423 1040 l 583 1064 l 583 1049 q 550 1004 572 1031 q 503 946 529 976 q 449 889 477 917 q 398 842 421 860 l 316 842 l 316 860 "},"þ":{"x_min":118,"x_max":737,"ha":814,"o":"m 241 644 q 276 688 257 667 q 322 724 296 709 q 381 748 348 739 q 454 758 413 758 q 570 733 518 758 q 659 660 622 709 q 716 540 696 612 q 737 373 737 468 q 716 205 737 277 q 659 84 696 133 q 570 10 622 35 q 454 -14 518 -14 q 381 -5 414 -14 q 323 18 349 3 q 277 52 297 32 q 241 93 257 72 l 233 93 q 237 49 235 70 q 240 13 238 32 q 241 -16 241 -5 l 241 -334 l 118 -334 l 118 1055 l 241 1055 l 241 744 l 236 644 l 241 644 m 430 655 q 343 639 379 655 q 285 592 307 624 q 253 513 263 560 q 241 401 242 465 l 241 373 q 250 251 241 304 q 281 162 259 198 q 340 107 303 125 q 431 88 377 88 q 566 162 523 88 q 609 374 609 236 q 566 585 609 515 q 430 655 523 655 "},"]":{"x_min":35,"x_max":310,"ha":421,"o":"m 35 -118 l 186 -118 l 186 890 l 35 890 l 35 992 l 310 992 l 310 -220 l 35 -220 l 35 -118 "},"А":{"x_min":-0.25,"x_max":844.25,"ha":844,"o":"m 715 0 l 606 307 l 237 307 l 127 0 l 0 0 l 364 996 l 479 996 l 844 0 l 715 0 m 566 419 l 466 706 q 456 736 462 719 q 444 774 450 754 q 432 817 438 795 q 421 860 426 839 q 410 816 416 839 q 397 773 404 794 q 386 735 391 752 q 376 706 380 718 l 277 419 l 566 419 "},"′":{"x_min":90,"x_max":223.609375,"ha":314,"o":"m 223 992 l 195 634 l 117 634 l 90 992 l 223 992 "},"Ы":{"x_min":135,"x_max":1008,"ha":1143,"o":"m 729 290 q 708 170 729 224 q 645 79 688 117 q 537 20 602 41 q 380 0 471 0 l 135 0 l 135 992 l 261 992 l 261 574 l 362 574 q 536 551 465 574 q 648 490 606 529 q 710 400 691 452 q 729 290 729 349 m 261 107 l 368 107 q 540 152 485 107 q 595 290 595 197 q 579 370 595 337 q 533 424 564 403 q 456 453 503 444 q 347 462 410 462 l 261 462 l 261 107 m 881 0 l 881 992 l 1008 992 l 1008 0 l 881 0 "},"ẁ":{"x_min":13.75,"x_max":1022.25,"ha":1036,"o":"m 683 0 l 570 417 q 563 445 567 430 q 555 477 559 460 q 546 512 551 494 q 538 546 542 529 q 518 628 528 586 l 514 628 q 496 546 505 585 q 480 476 488 512 q 464 415 471 440 l 347 0 l 204 0 l 13 745 l 143 745 l 232 348 q 245 282 239 318 q 258 211 252 246 q 269 146 264 177 q 277 95 274 115 l 281 95 q 290 142 284 113 q 303 205 296 172 q 317 270 310 238 q 331 324 325 302 l 453 745 l 586 745 l 702 324 q 716 270 709 301 q 732 207 724 239 q 745 145 739 175 q 754 95 751 115 l 758 95 q 764 142 760 113 q 775 207 769 172 q 788 279 781 242 q 803 348 795 316 l 896 745 l 1022 745 l 829 0 l 683 0 m 585 842 l 503 842 q 451 889 479 860 q 397 946 423 917 q 350 1004 371 976 q 318 1049 328 1031 l 318 1064 l 466 1064 q 492 1013 477 1040 q 522 958 506 986 q 554 905 538 931 q 585 860 570 879 l 585 842 "},"ĭ":{"x_min":-23,"x_max":385,"ha":359,"o":"m 241 0 l 118 0 l 118 745 l 241 745 l 241 0 m 385 1030 q 367 954 382 988 q 326 894 352 920 q 263 855 300 869 q 178 842 226 842 q 91 855 128 842 q 30 893 54 868 q -7 952 5 918 q -23 1030 -20 987 l 51 1030 q 63 983 54 1000 q 89 957 73 965 q 128 946 105 948 q 181 943 151 943 q 227 946 205 943 q 267 959 249 949 q 296 985 284 968 q 310 1030 307 1002 l 385 1030 "},"8":{"x_min":72,"x_max":694,"ha":765,"o":"m 383 1007 q 490 992 440 1007 q 579 947 540 977 q 639 873 617 917 q 662 768 662 828 q 648 686 662 723 q 610 620 634 650 q 554 568 587 591 q 483 525 521 544 q 561 478 523 504 q 628 420 598 453 q 675 348 657 388 q 694 258 694 308 q 671 145 694 196 q 607 59 648 94 q 509 5 566 24 q 383 -14 452 -14 q 250 4 308 -14 q 152 57 192 22 q 92 141 113 91 q 72 253 72 190 q 87 344 72 304 q 128 418 102 385 q 189 476 154 451 q 264 520 225 501 q 202 566 231 541 q 151 621 172 590 q 117 688 130 651 q 105 770 105 725 q 127 873 105 829 q 188 947 150 917 q 277 992 227 977 q 383 1007 328 1007 m 191 253 q 202 187 191 217 q 236 136 213 157 q 295 102 259 114 q 379 91 330 91 q 464 102 427 91 q 525 136 500 114 q 562 189 550 158 q 574 258 574 220 q 561 322 574 293 q 523 374 547 350 q 463 420 498 399 q 385 463 428 442 l 364 472 q 235 379 278 432 q 191 253 191 327 m 381 901 q 266 866 309 901 q 224 762 224 830 q 236 696 224 724 q 269 647 248 669 q 320 609 290 626 q 384 576 349 592 q 446 608 417 590 q 496 647 475 625 q 530 698 518 670 q 542 762 542 726 q 499 866 542 830 q 381 901 456 901 "},"R":{"x_min":135,"x_max":803.25,"ha":819,"o":"m 261 410 l 261 0 l 135 0 l 135 992 l 376 992 q 642 922 556 992 q 729 710 729 852 q 712 607 729 651 q 668 531 695 563 q 605 479 640 500 q 533 444 570 458 l 803 0 l 654 0 l 416 410 l 261 410 m 261 517 l 371 517 q 473 529 431 517 q 543 564 516 541 q 582 623 570 588 q 595 704 595 658 q 581 787 595 753 q 540 842 567 821 q 469 874 512 864 q 368 884 426 884 l 261 884 l 261 517 "},"Ż":{"x_min":56,"x_max":693,"ha":749,"o":"m 693 0 l 56 0 l 56 97 l 537 880 l 70 880 l 70 992 l 679 992 l 679 894 l 197 111 l 693 111 l 693 0 m 310 1174 q 330 1233 310 1215 q 381 1252 351 1252 q 410 1247 396 1252 q 433 1233 423 1243 q 448 1209 442 1224 q 454 1174 454 1195 q 433 1116 454 1135 q 381 1097 411 1097 q 330 1115 351 1097 q 310 1174 310 1134 "},"ħ":{"x_min":12.1875,"x_max":707,"ha":818,"o":"m 583 0 l 583 451 q 547 583 583 539 q 436 627 512 627 q 343 609 381 627 q 283 557 306 592 q 251 473 261 523 q 241 357 241 422 l 241 0 l 118 0 l 118 843 l 12 843 l 12 932 l 118 932 l 118 1055 l 241 1055 l 241 932 l 498 932 l 498 843 l 241 843 l 241 715 l 236 616 l 242 616 q 283 666 259 645 q 334 702 306 687 q 393 723 362 716 q 457 730 424 730 q 644 665 581 730 q 707 458 707 600 l 707 0 l 583 0 "},"õ":{"x_min":77,"x_max":725,"ha":802,"o":"m 725 373 q 702 208 725 280 q 637 86 679 135 q 534 11 594 37 q 398 -14 474 -14 q 270 11 329 -14 q 168 86 211 37 q 101 208 125 135 q 77 373 77 280 q 99 537 77 465 q 164 657 122 608 q 267 732 206 707 q 403 758 327 758 q 531 732 472 758 q 633 657 590 707 q 700 537 676 608 q 725 373 725 465 m 204 373 q 250 159 204 231 q 401 88 297 88 q 551 159 506 88 q 597 373 597 231 q 551 585 597 515 q 400 655 504 655 q 250 585 295 655 q 204 373 204 515 m 499 843 q 445 854 472 843 q 393 881 419 866 q 343 907 367 895 q 298 919 319 919 q 251 901 267 919 q 225 841 235 883 l 155 841 q 169 915 158 882 q 198 972 180 948 q 241 1008 216 995 q 298 1021 266 1021 q 354 1009 326 1021 q 407 982 381 997 q 456 956 433 968 q 499 944 480 944 q 545 962 530 944 q 571 1022 561 980 l 643 1022 q 628 948 639 981 q 599 892 617 915 q 556 855 581 868 q 499 843 531 843 "},"˙":{"x_min":109,"x_max":253.46875,"ha":359,"o":"m 109 945 q 129 1004 109 986 q 180 1023 150 1023 q 209 1018 195 1023 q 232 1004 222 1014 q 247 980 241 995 q 253 945 253 966 q 232 887 253 906 q 180 868 210 868 q 129 886 150 868 q 109 945 109 905 "},"ê":{"x_min":77,"x_max":673,"ha":743,"o":"m 412 -14 q 276 11 337 -14 q 170 84 214 36 q 101 203 125 132 q 77 366 77 274 q 99 531 77 458 q 162 654 121 604 q 259 731 202 705 q 384 758 316 758 q 505 733 451 758 q 595 665 558 709 q 653 560 633 621 q 673 423 673 498 l 673 346 l 204 346 q 259 155 207 216 q 413 93 311 93 q 477 97 448 93 q 534 107 507 100 q 587 123 561 113 q 639 145 613 133 l 639 35 q 586 13 612 22 q 533 -2 560 3 q 476 -11 505 -8 q 412 -14 446 -14 m 384 655 q 260 602 306 655 q 207 449 214 549 l 545 449 q 536 533 545 495 q 507 598 526 571 q 457 640 487 625 q 384 655 427 655 m 602 842 l 520 842 q 448 897 485 864 q 377 967 412 930 q 304 897 340 930 q 234 842 268 864 l 152 842 l 152 860 q 192 905 169 879 q 238 958 215 931 q 281 1013 261 986 q 311 1064 301 1040 l 442 1064 q 472 1013 452 1040 q 515 958 492 986 q 561 905 538 931 q 602 860 585 879 l 602 842 "},"″":{"x_min":90,"x_max":468.609375,"ha":558,"o":"m 223 992 l 195 634 l 117 634 l 90 992 l 223 992 m 468 992 l 440 634 l 362 634 l 335 992 l 468 992 "},"„":{"x_min":43,"x_max":517,"ha":608,"o":"m 246 161 l 256 145 q 233 67 246 108 q 204 -15 220 26 q 170 -99 188 -57 q 136 -179 153 -141 l 43 -179 q 66 -92 54 -137 q 88 -3 77 -48 q 107 82 98 40 q 122 161 116 125 l 246 161 m 508 161 l 517 145 q 494 67 507 108 q 465 -15 481 26 q 432 -99 449 -57 q 397 -179 414 -141 l 305 -179 q 327 -92 315 -137 q 349 -3 338 -48 q 368 82 359 40 q 383 161 377 125 l 508 161 "},"ч":{"x_min":104,"x_max":693,"ha":811,"o":"m 227 745 l 227 466 q 352 348 227 348 q 410 353 382 348 q 462 368 437 358 q 514 392 488 377 q 569 427 541 407 l 569 745 l 693 745 l 693 0 l 569 0 l 569 332 q 512 295 539 311 q 456 268 485 279 q 395 251 427 257 q 324 246 363 246 q 230 261 271 246 q 161 306 188 277 q 118 373 133 334 q 104 458 104 412 l 104 745 l 227 745 "},"δ":{"x_min":75,"x_max":725,"ha":802,"o":"m 360 635 q 291 683 322 657 q 236 737 259 708 q 201 800 214 767 q 189 872 189 833 q 206 956 189 921 q 254 1016 223 992 q 328 1051 286 1039 q 421 1063 370 1063 q 505 1056 467 1063 q 576 1038 543 1049 q 636 1015 609 1028 q 687 989 663 1001 l 637 890 q 590 916 615 903 q 538 938 565 928 q 479 954 510 948 q 413 960 448 960 q 364 952 385 960 q 331 933 344 945 q 311 904 317 920 q 305 869 305 887 q 314 823 305 844 q 344 781 324 802 q 398 738 364 760 q 479 689 431 716 q 583 619 537 655 q 660 539 629 582 q 708 447 691 496 q 725 337 725 397 q 701 185 725 251 q 635 75 678 120 q 531 8 592 31 q 397 -14 471 -14 q 268 6 327 -14 q 166 67 209 27 q 99 164 123 106 q 75 296 75 222 q 97 423 75 368 q 159 520 120 479 q 249 590 197 562 q 360 635 301 618 m 597 325 q 587 410 597 372 q 557 478 577 448 q 510 533 538 508 q 446 579 482 557 q 363 548 407 568 q 284 495 320 528 q 225 413 249 462 q 202 294 202 363 q 215 211 202 249 q 253 146 228 173 q 314 103 278 118 q 395 88 350 88 q 545 149 492 88 q 597 325 597 210 "},"Â":{"x_min":-0.25,"x_max":844.25,"ha":844,"o":"m 715 0 l 606 307 l 237 307 l 127 0 l 0 0 l 364 996 l 479 996 l 844 0 l 715 0 m 566 419 l 466 706 q 456 736 462 719 q 444 774 450 754 q 432 817 438 795 q 421 860 426 839 q 410 816 416 839 q 397 773 404 794 q 386 735 391 752 q 376 706 380 718 l 277 419 l 566 419 m 647 1071 l 565 1071 q 493 1126 530 1093 q 422 1196 457 1159 q 349 1126 385 1159 q 279 1071 313 1093 l 197 1071 l 197 1089 q 237 1134 214 1108 q 283 1187 260 1160 q 326 1242 306 1215 q 356 1293 346 1269 l 487 1293 q 517 1242 497 1269 q 560 1187 537 1215 q 606 1134 583 1160 q 647 1089 630 1108 l 647 1071 "},"Į":{"x_min":55.34375,"x_max":414.8125,"ha":471,"o":"m 414 0 l 55 0 l 55 69 l 172 96 l 172 895 l 55 922 l 55 992 l 414 992 l 414 922 l 298 895 l 298 96 l 414 69 l 414 0 m 224 -161 q 242 -206 224 -191 q 284 -220 260 -220 q 317 -218 301 -220 q 343 -214 333 -217 l 343 -291 q 303 -299 325 -296 q 262 -302 282 -302 q 160 -266 194 -302 q 127 -170 127 -231 q 136 -116 127 -142 q 162 -69 146 -91 q 195 -30 177 -48 q 231 0 214 -12 l 318 0 q 224 -161 224 -90 "},"ω":{"x_min":77,"x_max":970,"ha":1046,"o":"m 332 -14 q 223 13 271 -14 q 143 91 176 41 q 93 209 110 140 q 77 360 77 278 q 82 464 77 415 q 97 558 87 512 q 124 650 108 604 q 162 745 140 696 l 289 745 q 251 649 267 695 q 225 558 235 604 q 209 464 214 512 q 204 360 204 416 q 214 243 204 294 q 242 158 224 192 q 285 106 260 123 q 340 88 310 88 q 394 102 371 88 q 432 140 417 116 q 454 198 447 165 q 462 270 462 231 l 462 478 l 585 478 l 585 270 q 618 135 585 182 q 706 88 651 88 q 761 106 736 88 q 804 158 786 123 q 832 243 823 192 q 842 360 842 294 q 837 464 842 416 q 821 558 832 512 q 795 649 811 604 q 757 745 779 695 l 884 745 q 922 650 906 696 q 949 558 938 604 q 964 464 959 512 q 970 360 970 415 q 953 209 970 278 q 903 91 936 140 q 823 13 871 41 q 714 -14 775 -14 q 595 15 642 -14 q 527 106 548 45 l 520 106 q 452 15 499 45 q 332 -14 404 -14 "},"Ţ":{"x_min":14,"x_max":706,"ha":721,"o":"m 423 0 l 297 0 l 297 880 l 14 880 l 14 992 l 706 992 l 706 880 l 423 880 l 423 0 m 244 -288 q 260 -246 251 -271 q 277 -191 269 -220 q 291 -135 285 -163 q 300 -85 298 -107 l 423 -85 l 423 -98 q 408 -141 418 -115 q 382 -197 397 -167 q 348 -255 367 -226 q 310 -307 330 -284 l 244 -307 l 244 -288 "},"´":{"x_min":267,"x_max":534,"ha":802,"o":"m 267 860 q 297 905 281 879 q 329 958 313 931 q 360 1013 345 986 q 385 1064 374 1040 l 534 1064 l 534 1049 q 501 1004 523 1031 q 454 946 480 976 q 400 889 428 917 q 349 842 372 860 l 267 842 l 267 860 "},"Ĉ":{"x_min":85,"x_max":798,"ha":838,"o":"m 538 894 q 406 867 465 894 q 305 788 347 839 q 241 662 264 736 q 218 496 218 588 q 238 326 218 400 q 298 200 258 251 q 398 123 338 150 q 538 97 458 97 q 652 108 598 97 q 760 135 707 120 l 760 26 q 707 8 733 15 q 651 -4 680 0 q 590 -11 622 -9 q 517 -14 557 -14 q 324 22 405 -14 q 189 126 243 59 q 110 288 136 193 q 85 497 85 382 q 114 703 85 609 q 201 864 144 796 q 343 968 258 931 q 538 1006 428 1006 q 677 991 611 1006 q 798 947 744 976 l 745 841 q 652 879 702 863 q 538 894 601 894 m 747 1071 l 665 1071 q 593 1126 630 1093 q 522 1196 557 1159 q 449 1126 485 1159 q 379 1071 413 1093 l 297 1071 l 297 1089 q 337 1134 314 1108 q 383 1187 360 1160 q 426 1242 406 1215 q 456 1293 446 1269 l 587 1293 q 617 1242 597 1269 q 660 1187 637 1215 q 706 1134 683 1160 q 747 1089 730 1108 l 747 1071 "},"И":{"x_min":136,"x_max":879,"ha":1013,"o":"m 136 992 l 262 992 l 262 449 q 261 410 262 431 q 260 366 261 389 q 259 321 260 343 q 257 276 258 298 q 251 174 254 226 l 256 174 l 725 992 l 879 992 l 879 0 l 752 0 l 752 538 q 754 624 752 576 q 759 717 756 673 q 765 821 762 768 l 760 821 l 289 0 l 136 0 l 136 992 "},"Љ":{"x_min":0,"x_max":1193,"ha":1264,"o":"m 1193 290 q 1172 170 1193 224 q 1109 79 1152 117 q 1000 20 1066 41 q 843 0 934 0 l 625 0 l 625 880 l 431 880 q 410 721 420 804 q 388 558 399 638 q 366 406 377 478 q 343 279 354 334 q 310 154 329 209 q 262 61 291 99 q 194 4 234 24 q 98 -16 154 -16 q 46 -10 73 -16 q 0 1 20 -5 l 0 111 q 35 97 15 102 q 76 91 54 91 q 129 113 108 91 q 164 167 150 134 q 187 239 179 200 q 204 315 196 279 q 223 421 213 354 q 247 577 234 488 q 275 771 261 665 q 305 992 290 877 l 751 992 l 751 574 l 825 574 q 999 551 928 574 q 1112 490 1069 529 q 1174 400 1155 452 q 1193 290 1193 349 m 751 107 l 831 107 q 1004 152 948 107 q 1059 290 1059 197 q 1043 370 1059 337 q 997 424 1028 403 q 920 453 966 444 q 810 462 873 462 l 751 462 l 751 107 "},"р":{"x_min":118,"x_max":737,"ha":814,"o":"m 454 -14 q 381 -5 414 -14 q 323 18 349 3 q 277 52 297 32 q 241 93 257 72 l 233 93 q 237 49 235 70 q 240 13 238 32 q 241 -16 241 -5 l 241 -334 l 118 -334 l 118 745 l 218 745 l 236 644 l 241 644 q 276 688 257 667 q 322 724 296 709 q 381 748 348 739 q 454 758 413 758 q 570 733 518 758 q 659 660 622 709 q 716 540 696 612 q 737 373 737 468 q 716 205 737 277 q 659 84 696 133 q 570 10 622 35 q 454 -14 518 -14 m 430 655 q 343 639 379 655 q 285 592 307 624 q 253 513 263 560 q 241 401 242 465 l 241 373 q 250 251 241 304 q 281 162 259 198 q 340 107 303 125 q 431 88 377 88 q 566 162 523 88 q 609 374 609 236 q 566 585 609 515 q 430 655 523 655 "},"Ω":{"x_min":53.0625,"x_max":980.9375,"ha":1031,"o":"m 517 895 q 384 872 439 895 q 292 805 328 849 q 239 699 256 762 q 222 556 222 636 q 234 425 222 488 q 273 304 246 362 q 345 194 301 246 q 455 99 390 143 l 455 0 l 53 0 l 53 111 l 321 111 q 229 189 271 143 q 155 292 186 235 q 106 416 124 349 q 89 559 89 484 q 116 743 89 661 q 198 884 143 826 q 332 975 252 943 q 517 1007 412 1007 q 701 975 622 1007 q 835 884 781 943 q 917 743 890 826 q 945 559 945 661 q 927 416 945 484 q 878 292 909 349 q 805 189 847 235 q 712 111 762 143 l 980 111 l 980 0 l 579 0 l 579 99 q 688 194 643 143 q 760 304 732 246 q 799 425 787 362 q 811 556 811 488 q 794 699 811 636 q 741 805 777 762 q 649 872 705 849 q 517 895 594 895 "},"т":{"x_min":28,"x_max":584,"ha":612,"o":"m 584 642 l 367 642 l 367 0 l 244 0 l 244 642 l 28 642 l 28 745 l 584 745 l 584 642 "},"П":{"x_min":135,"x_max":826,"ha":960,"o":"m 826 0 l 699 0 l 699 880 l 261 880 l 261 0 l 135 0 l 135 992 l 826 992 l 826 0 "},"Ö":{"x_min":85,"x_max":945,"ha":1031,"o":"m 945 496 q 917 287 945 382 q 835 126 890 193 q 701 22 781 59 q 515 -14 620 -14 q 324 22 405 -14 q 189 126 243 59 q 110 288 136 193 q 85 498 85 382 q 110 707 85 613 q 190 867 136 801 q 325 970 243 934 q 517 1007 406 1007 q 701 970 622 1007 q 835 867 781 934 q 917 706 890 800 q 945 496 945 612 m 218 497 q 236 330 218 404 q 290 204 253 255 q 382 124 326 152 q 515 97 438 97 q 648 124 593 97 q 741 204 704 152 q 794 330 777 255 q 811 497 811 404 q 794 664 811 590 q 741 789 777 738 q 649 868 705 840 q 517 895 594 895 q 383 868 439 895 q 290 789 327 840 q 236 664 253 738 q 218 497 218 590 m 323 1174 q 341 1227 323 1211 q 388 1244 360 1244 q 434 1227 414 1244 q 453 1174 453 1210 q 434 1121 453 1138 q 388 1105 414 1105 q 341 1121 360 1105 q 323 1174 323 1138 m 577 1174 q 596 1227 577 1211 q 642 1244 615 1244 q 667 1239 655 1244 q 688 1227 679 1235 q 702 1206 697 1218 q 708 1174 708 1193 q 688 1121 708 1138 q 642 1105 668 1105 q 596 1121 615 1105 q 577 1174 577 1138 "},"z":{"x_min":56,"x_max":556.21875,"ha":612,"o":"m 556 0 l 56 0 l 56 80 l 418 656 l 78 656 l 78 745 l 544 745 l 544 650 l 189 88 l 556 88 l 556 0 "},"™":{"x_min":25,"x_max":922,"ha":1040,"o":"m 244 503 l 158 503 l 158 918 l 25 918 l 25 992 l 379 992 l 379 918 l 244 918 l 244 503 m 636 503 l 511 875 l 506 875 q 508 852 507 864 q 509 831 508 841 q 509 812 509 821 q 510 800 510 804 l 510 503 l 424 503 l 424 992 l 552 992 l 673 618 l 801 992 l 922 992 l 922 503 l 835 503 l 835 793 q 836 809 835 799 q 836 831 836 819 q 837 855 837 843 q 838 875 837 867 l 834 875 l 703 503 l 636 503 "},"Θ":{"x_min":85,"x_max":945,"ha":1031,"o":"m 334 560 l 696 560 l 696 452 l 334 452 l 334 560 m 945 496 q 917 287 945 382 q 835 126 890 193 q 701 22 781 59 q 515 -14 620 -14 q 324 22 405 -14 q 189 126 243 59 q 110 288 136 193 q 85 498 85 382 q 110 707 85 613 q 190 867 136 801 q 325 970 243 934 q 517 1007 406 1007 q 701 970 622 1007 q 835 867 781 934 q 917 706 890 800 q 945 496 945 612 m 218 497 q 236 330 218 404 q 290 204 253 255 q 382 124 326 152 q 515 97 438 97 q 648 124 593 97 q 741 204 704 152 q 794 330 777 255 q 811 497 811 404 q 794 664 811 590 q 741 789 777 738 q 649 868 705 840 q 517 895 594 895 q 383 868 439 895 q 290 789 327 840 q 236 664 253 738 q 218 497 218 590 "},"Ř":{"x_min":135,"x_max":803.25,"ha":819,"o":"m 261 410 l 261 0 l 135 0 l 135 992 l 376 992 q 642 922 556 992 q 729 710 729 852 q 712 607 729 651 q 668 531 695 563 q 605 479 640 500 q 533 444 570 458 l 803 0 l 654 0 l 416 410 l 261 410 m 261 517 l 371 517 q 473 529 431 517 q 543 564 516 541 q 582 623 570 588 q 595 704 595 658 q 581 787 595 753 q 540 842 567 821 q 469 874 512 864 q 368 884 426 884 l 261 884 l 261 517 m 635 1274 q 594 1229 618 1255 q 548 1176 571 1203 q 505 1121 525 1148 q 475 1071 485 1094 l 344 1071 q 314 1121 334 1094 q 271 1176 294 1148 q 225 1229 248 1203 q 185 1274 202 1255 l 185 1293 l 267 1293 q 337 1237 301 1270 q 410 1166 373 1204 q 481 1237 445 1204 q 553 1293 518 1270 l 635 1293 l 635 1274 "},"Ň":{"x_min":135,"x_max":878,"ha":1013,"o":"m 878 0 l 724 0 l 253 821 l 248 821 q 255 717 252 768 q 259 624 257 673 q 261 538 261 576 l 261 0 l 135 0 l 135 992 l 288 992 l 757 174 l 762 174 q 757 276 759 226 q 755 321 756 298 q 753 366 754 343 q 752 410 752 389 q 751 449 751 431 l 751 992 l 878 992 l 878 0 m 732 1274 q 691 1229 715 1255 q 645 1176 668 1203 q 602 1121 622 1148 q 572 1071 582 1094 l 441 1071 q 411 1121 431 1094 q 368 1176 391 1148 q 322 1229 345 1203 q 282 1274 299 1255 l 282 1293 l 364 1293 q 434 1237 398 1270 q 507 1166 470 1204 q 578 1237 542 1204 q 650 1293 615 1270 l 732 1293 l 732 1274 "},"É":{"x_min":135,"x_max":650,"ha":733,"o":"m 650 0 l 135 0 l 135 992 l 650 992 l 650 880 l 261 880 l 261 574 l 624 574 l 624 462 l 261 462 l 261 111 l 650 111 l 650 0 m 309 1089 q 339 1134 323 1108 q 371 1187 355 1160 q 402 1242 387 1215 q 427 1293 416 1269 l 576 1293 l 576 1278 q 543 1233 565 1260 q 496 1175 522 1205 q 442 1118 470 1146 q 391 1071 414 1089 l 309 1071 l 309 1089 "},"и":{"x_min":118,"x_max":735,"ha":853,"o":"m 234 745 l 234 291 l 226 120 l 576 745 l 735 745 l 735 0 l 618 0 l 618 439 l 625 622 l 276 0 l 118 0 l 118 745 l 234 745 "},"³":{"x_min":21,"x_max":418,"ha":460,"o":"m 400 852 q 372 764 400 800 q 298 712 345 729 q 388 660 358 697 q 418 571 418 624 q 404 496 418 530 q 362 437 390 461 q 291 399 334 413 q 190 386 249 386 q 101 394 143 386 q 21 423 59 402 l 21 514 q 110 481 64 493 q 192 469 155 469 q 290 497 260 469 q 321 575 321 525 q 283 648 321 625 q 179 671 246 671 l 111 671 l 111 745 l 179 745 q 273 771 244 745 q 303 839 303 797 q 296 876 303 860 q 277 901 289 891 q 248 915 264 911 q 213 920 232 920 q 138 907 172 920 q 69 870 105 894 l 22 935 q 62 963 41 951 q 106 985 83 976 q 155 998 129 993 q 210 1004 180 1004 q 293 992 257 1004 q 352 961 328 981 q 388 913 376 940 q 400 852 400 885 "},"[":{"x_min":111,"x_max":386,"ha":421,"o":"m 386 -220 l 111 -220 l 111 992 l 386 992 l 386 890 l 234 890 l 234 -118 l 386 -118 l 386 -220 "},"ζ":{"x_min":77,"x_max":593,"ha":632,"o":"m 118 952 l 118 1055 l 589 1055 l 589 960 q 439 811 502 880 q 334 680 377 741 q 266 567 291 619 q 226 470 240 515 q 208 387 213 425 q 204 317 204 349 q 219 220 204 256 q 263 161 235 183 q 332 128 291 140 q 424 104 373 116 q 504 78 472 94 q 556 43 536 63 q 584 -1 576 23 q 593 -54 593 -25 q 585 -114 593 -84 q 567 -172 578 -144 q 541 -225 555 -200 q 511 -272 526 -250 l 396 -272 q 426 -225 412 -250 q 451 -176 440 -201 q 469 -129 463 -152 q 476 -87 476 -107 q 471 -61 476 -73 q 450 -37 466 -48 q 403 -15 434 -25 q 321 5 373 -4 q 215 39 261 17 q 139 98 170 61 q 92 186 108 135 q 77 307 77 238 q 108 495 77 408 q 191 661 139 582 q 311 813 243 740 q 453 960 380 887 q 392 956 424 958 q 332 953 365 955 q 268 952 299 952 l 118 952 "},"∏":{"x_min":135,"x_max":895,"ha":1030,"o":"m 768 -334 l 768 880 l 261 880 l 261 -334 l 135 -334 l 135 992 l 895 992 l 895 -334 l 768 -334 "},"Έ":{"x_min":-17,"x_max":747,"ha":831,"o":"m 747 0 l 232 0 l 232 992 l 747 992 l 747 880 l 358 880 l 358 574 l 721 574 l 721 462 l 358 462 l 358 111 l 747 111 l 747 0 m -17 789 q -3 835 -10 809 q 9 889 3 861 q 21 943 16 916 q 30 993 27 970 l 165 993 l 165 978 q 149 936 160 962 q 123 880 138 909 q 90 821 107 850 q 56 771 72 792 l -17 771 l -17 789 "},"Ρ":{"x_min":135,"x_max":729,"ha":800,"o":"m 729 701 q 710 582 729 639 q 648 482 691 525 q 536 412 606 438 q 362 386 465 386 l 261 386 l 261 0 l 135 0 l 135 992 l 380 992 q 537 972 471 992 q 645 916 602 953 q 708 825 688 879 q 729 701 729 770 m 261 493 l 347 493 q 456 504 410 493 q 533 539 503 515 q 579 601 564 563 q 595 695 595 640 q 540 837 595 791 q 368 884 485 884 l 261 884 l 261 493 "},"ğ":{"x_min":25,"x_max":692.484375,"ha":720,"o":"m 692 745 l 692 668 l 559 649 q 591 588 578 625 q 604 504 604 551 q 588 409 604 453 q 539 333 572 365 q 459 283 507 301 q 348 266 412 266 q 319 266 333 266 q 294 268 304 266 q 271 253 282 261 q 251 233 260 244 q 236 208 242 222 q 230 178 230 194 q 238 148 230 159 q 260 130 246 136 q 293 122 274 124 q 333 120 312 120 l 453 120 q 560 104 516 120 q 631 61 603 88 q 670 -2 658 34 q 683 -80 683 -38 q 660 -186 683 -139 q 593 -266 638 -233 q 478 -316 547 -298 q 314 -334 408 -334 q 187 -319 241 -334 q 96 -278 132 -305 q 42 -213 60 -251 q 25 -128 25 -175 q 38 -57 25 -87 q 73 -4 51 -26 q 125 32 96 17 q 187 53 155 46 q 140 94 158 66 q 122 159 122 122 q 143 231 122 201 q 212 291 165 262 q 158 324 182 303 q 118 373 134 346 q 92 433 101 401 q 83 500 83 466 q 99 608 83 561 q 150 689 116 656 q 233 740 183 722 q 348 758 282 758 q 400 754 373 758 q 445 745 427 750 l 692 745 m 141 -126 q 150 -173 141 -151 q 179 -211 159 -195 q 232 -235 199 -226 q 314 -245 265 -245 q 503 -205 440 -245 q 566 -92 566 -166 q 558 -41 566 -61 q 531 -10 550 -21 q 482 4 512 0 q 407 8 451 8 l 287 8 q 238 3 263 8 q 190 -17 212 -2 q 155 -58 169 -32 q 141 -126 141 -84 m 206 504 q 242 388 206 426 q 344 350 278 350 q 446 388 411 350 q 480 506 480 426 q 445 629 480 590 q 343 669 410 669 q 241 628 277 669 q 206 504 206 587 m 551 1030 q 533 954 548 988 q 492 894 518 920 q 429 855 466 869 q 344 842 392 842 q 257 855 294 842 q 196 893 220 868 q 158 952 171 918 q 143 1030 145 987 l 217 1030 q 229 983 220 1000 q 255 957 239 965 q 294 946 271 948 q 347 943 317 943 q 393 946 371 943 q 433 959 415 949 q 462 985 450 968 q 476 1030 473 1002 l 551 1030 "},"ª":{"x_min":46,"x_max":392,"ha":460,"o":"m 328 541 l 308 597 q 283 570 296 582 q 254 549 270 558 q 219 536 238 540 q 177 532 201 532 q 124 540 148 532 q 82 566 100 549 q 55 610 65 584 q 46 671 46 636 q 93 777 46 740 q 236 817 140 813 l 303 820 l 303 841 q 282 909 303 890 q 224 929 262 929 q 162 919 192 929 q 104 894 132 909 l 72 961 q 146 991 106 979 q 226 1003 185 1003 q 351 967 311 1003 q 392 848 392 931 l 392 541 l 328 541 m 253 743 q 196 736 219 741 q 160 720 174 730 q 140 698 146 711 q 134 666 134 684 q 151 620 134 634 q 196 605 168 605 q 238 612 219 605 q 272 632 257 619 q 294 667 286 646 q 303 715 303 687 l 303 746 l 253 743 "},"ї":{"x_min":-13,"x_max":372,"ha":359,"o":"m 241 0 l 118 0 l 118 745 l 241 745 l 241 0 m -13 945 q 5 998 -13 982 q 52 1015 24 1015 q 98 998 78 1015 q 117 945 117 981 q 98 892 117 909 q 52 876 78 876 q 5 892 24 876 q -13 945 -13 909 m 241 945 q 260 998 241 982 q 306 1015 279 1015 q 331 1010 319 1015 q 352 998 343 1006 q 366 977 361 989 q 372 945 372 964 q 352 892 372 909 q 306 876 332 876 q 260 892 279 876 q 241 945 241 909 "},"T":{"x_min":14,"x_max":706,"ha":721,"o":"m 423 0 l 297 0 l 297 880 l 14 880 l 14 992 l 706 992 l 706 880 l 423 880 l 423 0 "},"š":{"x_min":61.15625,"x_max":564,"ha":627,"o":"m 564 203 q 544 108 564 149 q 487 40 524 68 q 398 0 450 13 q 281 -14 346 -14 q 154 -2 207 -14 q 61 33 101 9 l 61 146 q 107 125 82 135 q 161 106 133 114 q 219 93 189 98 q 279 88 249 88 q 353 95 323 88 q 403 116 384 103 q 431 150 423 130 q 440 194 440 170 q 433 232 440 215 q 409 265 427 249 q 360 299 391 282 q 280 337 329 316 q 193 378 232 358 q 127 424 154 399 q 86 482 100 449 q 72 560 72 515 q 90 645 72 608 q 143 707 109 682 q 224 745 177 732 q 330 758 272 758 q 451 743 396 758 q 554 706 505 729 l 512 606 q 422 641 468 626 q 329 655 376 655 q 228 632 261 655 q 195 568 195 610 q 203 526 195 544 q 229 493 210 509 q 279 461 248 477 q 358 426 311 445 q 444 385 406 405 q 509 339 482 365 q 549 281 535 314 q 564 203 564 249 m 554 1045 q 513 1000 537 1026 q 467 947 490 974 q 424 892 444 919 q 394 842 404 865 l 263 842 q 233 892 253 865 q 190 947 213 919 q 144 1000 167 974 q 104 1045 121 1026 l 104 1064 l 186 1064 q 256 1008 220 1041 q 329 937 292 975 q 400 1008 364 975 q 472 1064 437 1041 l 554 1064 l 554 1045 "},"є":{"x_min":77,"x_max":596,"ha":643,"o":"m 402 -14 q 274 7 334 -14 q 171 75 215 28 q 102 193 127 121 q 77 367 77 266 q 102 548 77 474 q 173 669 128 623 q 278 736 218 715 q 408 758 339 758 q 511 746 461 758 q 596 718 562 735 l 559 614 q 524 627 543 621 q 485 638 505 633 q 445 647 465 644 q 408 650 425 650 q 264 598 314 650 q 205 434 215 547 l 528 434 l 528 331 l 204 331 q 260 149 210 205 q 402 93 309 93 q 502 106 457 93 q 583 135 546 118 l 583 26 q 504 -3 546 6 q 402 -14 463 -14 "},"Þ":{"x_min":135,"x_max":729,"ha":800,"o":"m 729 530 q 710 411 729 468 q 648 311 691 354 q 536 241 606 267 q 362 215 465 215 l 261 215 l 261 0 l 135 0 l 135 992 l 261 992 l 261 821 l 380 821 q 537 801 471 821 q 645 745 602 782 q 708 654 688 708 q 729 530 729 599 m 261 322 l 347 322 q 456 333 410 322 q 533 368 503 344 q 579 430 564 392 q 595 524 595 469 q 540 667 595 621 q 368 713 485 713 l 261 713 l 261 322 "},"j":{"x_min":-46,"x_max":252.96875,"ha":359,"o":"m 44 -334 q -9 -329 12 -334 q -46 -317 -30 -324 l -46 -217 q -10 -227 -28 -224 q 31 -231 8 -231 q 65 -226 50 -231 q 93 -208 81 -221 q 111 -172 105 -194 q 118 -116 118 -150 l 118 745 l 241 745 l 241 -107 q 229 -201 241 -159 q 193 -272 218 -243 q 132 -318 169 -302 q 44 -334 95 -334 m 108 945 q 129 1004 108 986 q 180 1023 149 1023 q 208 1018 195 1023 q 231 1004 221 1014 q 247 980 241 995 q 252 945 252 966 q 231 887 252 906 q 180 868 210 868 q 129 886 149 868 q 108 945 108 905 "},"Σ":{"x_min":53,"x_max":706,"ha":739,"o":"m 53 0 l 53 103 l 333 519 l 61 892 l 61 992 l 666 992 l 666 880 l 200 880 l 466 520 l 186 111 l 706 111 l 706 0 l 53 0 "},"1":{"x_min":121,"x_max":482.375,"ha":765,"o":"m 482 0 l 363 0 l 363 619 q 363 682 363 648 q 364 748 363 715 q 366 811 365 781 q 368 864 367 841 q 348 843 356 852 q 330 826 339 834 q 310 809 320 818 q 286 788 300 800 l 186 706 l 121 789 l 380 992 l 482 992 l 482 0 "},"ϒ":{"x_min":-0.25,"x_max":742,"ha":750,"o":"m 366 496 q 403 603 383 546 q 445 714 424 660 q 487 815 467 769 q 523 891 507 861 q 554 939 538 918 q 588 973 570 960 q 628 993 606 986 q 677 1000 649 1000 q 715 996 701 1000 q 742 988 730 993 l 742 890 q 722 893 733 892 q 702 895 711 895 q 685 893 695 895 q 665 883 676 890 q 642 860 654 875 q 617 823 630 846 q 595 778 609 806 q 565 711 582 749 q 529 631 548 674 q 493 542 511 587 q 457 452 474 497 q 428 367 441 407 l 428 0 l 302 0 l 302 379 l 0 992 l 137 992 l 366 496 "},"ℓ":{"x_min":81,"x_max":605,"ha":695,"o":"m 426 82 q 466 90 447 82 q 500 114 485 97 q 525 158 515 130 q 537 225 535 185 l 605 225 q 589 124 602 168 q 552 49 576 79 q 493 2 528 18 q 410 -14 457 -14 q 334 -1 370 -14 q 271 39 298 11 q 227 114 243 68 q 211 228 211 161 l 211 385 q 147 364 179 374 q 81 347 114 355 l 81 422 q 148 442 116 431 q 211 462 180 452 l 211 801 q 220 878 211 841 q 251 943 230 915 q 308 989 273 972 q 395 1006 344 1006 q 461 991 431 1006 q 511 950 491 977 q 543 886 532 924 q 555 802 555 848 q 537 679 555 735 q 489 577 519 622 q 418 496 459 532 q 330 436 377 461 l 330 232 q 335 172 330 199 q 353 125 341 145 q 383 94 365 105 q 426 82 401 82 m 461 795 q 396 925 461 925 q 363 916 376 925 q 343 889 350 906 q 333 848 336 872 q 330 795 330 824 l 330 516 q 389 566 364 539 q 430 626 413 593 q 453 702 446 660 q 461 795 461 743 "},"ĉ":{"x_min":77,"x_max":618,"ha":643,"o":"m 402 -14 q 274 7 334 -14 q 171 75 215 28 q 102 193 127 121 q 77 367 77 266 q 102 548 77 474 q 173 669 128 623 q 278 736 218 715 q 408 758 339 758 q 511 746 461 758 q 596 718 562 735 l 559 614 q 524 627 543 621 q 485 638 505 633 q 445 647 465 644 q 408 650 425 650 q 253 581 302 650 q 204 369 204 513 q 253 160 204 226 q 402 93 302 93 q 502 106 457 93 q 583 135 546 118 l 583 26 q 504 -3 546 6 q 402 -14 463 -14 m 618 842 l 536 842 q 464 897 501 864 q 393 967 428 930 q 320 897 356 930 q 250 842 284 864 l 168 842 l 168 860 q 208 905 185 879 q 254 958 231 931 q 297 1013 277 986 q 327 1064 317 1040 l 458 1064 q 488 1013 468 1040 q 531 958 508 986 q 577 905 554 931 q 618 860 601 879 l 618 842 "},"ī":{"x_min":-14,"x_max":376,"ha":359,"o":"m 241 0 l 118 0 l 118 745 l 241 745 l 241 0 m -14 943 l 376 943 l 376 842 l -14 842 l -14 943 "},"О":{"x_min":85,"x_max":945,"ha":1031,"o":"m 945 496 q 917 287 945 382 q 835 126 890 193 q 701 22 781 59 q 515 -14 620 -14 q 324 22 405 -14 q 189 126 243 59 q 110 288 136 193 q 85 498 85 382 q 110 707 85 613 q 190 867 136 801 q 325 970 243 934 q 517 1007 406 1007 q 701 970 622 1007 q 835 867 781 934 q 917 706 890 800 q 945 496 945 612 m 218 497 q 236 330 218 404 q 290 204 253 255 q 382 124 326 152 q 515 97 438 97 q 648 124 593 97 q 741 204 704 152 q 794 330 777 255 q 811 497 811 404 q 794 664 811 590 q 741 789 777 738 q 649 868 705 840 q 517 895 594 895 q 383 868 439 895 q 290 789 327 840 q 236 664 253 738 q 218 497 218 590 "},"ξ":{"x_min":77,"x_max":593,"ha":632,"o":"m 543 601 l 543 512 l 433 512 q 336 495 379 512 q 264 449 293 478 q 219 382 234 420 q 204 299 204 343 q 219 213 204 246 q 263 160 235 181 q 332 129 291 140 q 424 106 373 117 q 504 80 472 95 q 556 44 536 64 q 584 0 576 24 q 593 -53 593 -24 q 585 -113 593 -83 q 566 -171 578 -143 q 540 -225 555 -199 q 510 -272 525 -250 l 394 -272 q 425 -225 410 -250 q 451 -176 439 -201 q 469 -129 462 -152 q 476 -86 476 -106 q 471 -60 476 -73 q 450 -36 466 -47 q 403 -14 434 -24 q 321 6 373 -3 q 139 97 201 29 q 77 288 77 165 q 92 383 77 340 q 135 459 108 426 q 195 515 161 493 q 267 550 230 538 l 267 558 q 160 622 199 577 q 122 747 122 667 q 137 830 122 796 q 179 889 152 865 q 242 931 206 914 q 321 960 278 947 q 271 956 297 958 q 220 953 249 955 q 160 952 191 952 l 117 952 l 117 1055 l 553 1055 l 553 960 l 515 960 q 415 947 465 960 q 326 908 366 934 q 262 841 287 881 q 238 748 238 801 q 249 685 238 712 q 284 638 260 657 q 346 610 308 620 q 440 601 385 601 l 543 601 "},"Ď":{"x_min":135,"x_max":865,"ha":950,"o":"m 865 505 q 832 285 865 379 q 738 127 799 190 q 586 31 676 63 q 383 0 496 0 l 135 0 l 135 992 l 410 992 q 598 960 514 992 q 741 868 682 929 q 832 715 800 806 q 865 505 865 624 m 731 501 q 709 672 731 600 q 643 791 686 744 q 538 861 601 838 q 397 884 476 884 l 261 884 l 261 107 l 370 107 q 640 207 549 107 q 731 501 731 306 m 676 1274 q 635 1229 659 1255 q 589 1176 612 1203 q 546 1121 566 1148 q 516 1071 526 1094 l 385 1071 q 355 1121 375 1094 q 312 1176 335 1148 q 266 1229 289 1203 q 226 1274 243 1255 l 226 1293 l 308 1293 q 378 1237 342 1270 q 451 1166 414 1204 q 522 1237 486 1204 q 594 1293 559 1270 l 676 1293 l 676 1274 "},"&":{"x_min":74,"x_max":953,"ha":975,"o":"m 289 789 q 294 744 289 766 q 311 700 300 722 q 340 655 322 678 q 381 608 357 633 q 448 652 420 631 q 494 695 476 673 q 522 740 513 717 q 531 792 531 764 q 523 837 531 816 q 499 872 515 857 q 462 896 483 887 q 412 904 440 904 q 322 874 355 904 q 289 789 289 844 m 377 93 q 449 101 416 93 q 511 123 483 109 q 565 155 540 137 q 611 195 589 174 l 349 471 q 285 427 313 449 q 239 381 258 406 q 211 328 220 357 q 201 261 201 299 q 213 193 201 224 q 247 140 225 162 q 302 106 270 118 q 377 93 335 93 m 74 257 q 87 352 74 310 q 127 427 101 393 q 191 490 153 461 q 277 548 228 519 q 235 598 256 572 q 200 654 215 624 q 175 717 184 683 q 166 789 166 751 q 182 881 166 840 q 231 949 199 921 q 310 992 263 977 q 416 1007 356 1007 q 516 992 472 1007 q 591 949 560 977 q 638 881 622 921 q 655 790 655 840 q 638 709 655 746 q 593 641 621 672 q 529 582 565 609 q 452 531 492 556 l 690 279 q 723 319 708 299 q 749 362 738 339 q 770 411 761 385 q 786 470 779 438 l 910 470 q 886 387 899 425 q 854 317 872 350 q 814 255 836 283 q 766 198 792 226 l 953 0 l 800 0 l 686 116 q 620 61 653 85 q 551 21 588 37 q 472 -4 514 4 q 377 -14 430 -14 q 250 3 306 -14 q 154 56 193 21 q 94 142 115 91 q 74 257 74 192 "},"G":{"x_min":85,"x_max":858,"ha":958,"o":"m 530 524 l 858 524 l 858 36 q 782 15 820 24 q 704 0 744 5 q 620 -10 664 -7 q 526 -14 576 -14 q 337 21 419 -14 q 199 123 255 57 q 114 284 143 189 q 85 497 85 378 q 117 708 85 613 q 211 868 149 802 q 363 970 272 934 q 569 1006 453 1006 q 713 991 644 1006 q 842 947 782 976 l 793 837 q 741 859 769 849 q 683 877 713 869 q 621 890 653 885 q 559 894 590 894 q 412 867 476 894 q 306 788 349 839 q 240 662 263 736 q 218 496 218 588 q 237 334 218 407 q 296 208 255 261 q 401 126 336 155 q 556 97 465 97 q 610 98 585 97 q 656 103 635 100 q 695 109 677 106 q 731 116 714 113 l 731 412 l 530 412 l 530 524 "},"ΰ":{"x_min":111,"x_max":736,"ha":819,"o":"m 409 -14 q 264 13 322 -14 q 172 87 206 40 q 124 199 138 135 q 111 337 111 263 l 111 745 l 234 745 l 234 345 q 245 239 234 286 q 278 158 256 192 q 335 106 300 125 q 417 88 370 88 q 564 167 516 88 q 612 412 612 245 q 609 503 612 461 q 601 585 606 545 q 587 664 595 625 q 569 745 580 703 l 693 745 q 711 664 703 703 q 725 585 719 626 q 733 501 730 545 q 736 406 736 457 q 653 88 736 190 q 409 -14 570 -14 m 357 959 q 372 1005 364 980 q 389 1057 381 1030 q 404 1112 397 1084 q 417 1164 412 1139 l 558 1164 l 558 1150 q 529 1102 545 1128 q 494 1049 513 1076 q 454 994 475 1022 q 412 942 434 967 l 357 942 l 357 959 m 198 945 q 212 998 198 982 q 247 1015 226 1015 q 265 1010 256 1015 q 281 998 274 1006 q 291 977 287 989 q 295 945 295 964 q 280 892 295 909 q 247 876 266 876 q 212 892 226 876 q 198 945 198 909 m 527 945 q 541 998 527 982 q 576 1015 555 1015 q 594 1010 585 1015 q 610 998 603 1006 q 620 977 616 989 q 625 945 625 964 q 610 892 625 909 q 576 876 595 876 q 541 892 555 876 q 527 945 527 909 "},"`":{"x_min":267,"x_max":534,"ha":802,"o":"m 534 842 l 452 842 q 400 889 428 860 q 346 946 372 917 q 299 1004 320 976 q 267 1049 277 1031 l 267 1064 l 415 1064 q 441 1013 426 1040 q 471 958 455 986 q 503 905 487 931 q 534 860 519 879 l 534 842 "},"ŏ":{"x_min":77,"x_max":725,"ha":802,"o":"m 725 373 q 702 208 725 280 q 637 86 679 135 q 534 11 594 37 q 398 -14 474 -14 q 270 11 329 -14 q 168 86 211 37 q 101 208 125 135 q 77 373 77 280 q 99 537 77 465 q 164 657 122 608 q 267 732 206 707 q 403 758 327 758 q 531 732 472 758 q 633 657 590 707 q 700 537 676 608 q 725 373 725 465 m 204 373 q 250 159 204 231 q 401 88 297 88 q 551 159 506 88 q 597 373 597 231 q 551 585 597 515 q 400 655 504 655 q 250 585 295 655 q 204 373 204 515 m 605 1030 q 587 954 602 988 q 546 894 572 920 q 483 855 520 869 q 398 842 446 842 q 311 855 348 842 q 250 893 274 868 q 212 952 225 918 q 197 1030 199 987 l 271 1030 q 283 983 274 1000 q 309 957 293 965 q 348 946 325 948 q 401 943 371 943 q 447 946 425 943 q 487 959 469 949 q 516 985 504 968 q 530 1030 527 1002 l 605 1030 "},"ý":{"x_min":6.75,"x_max":672.25,"ha":679,"o":"m 6 745 l 134 745 l 280 329 q 300 272 290 301 q 318 212 310 242 q 333 154 327 182 q 341 103 339 126 l 346 103 q 356 149 349 120 q 373 211 364 178 q 392 276 382 244 q 409 330 402 308 l 544 745 l 672 745 l 377 -96 q 336 -195 358 -152 q 285 -270 314 -239 q 217 -317 256 -300 q 123 -334 177 -334 q 62 -330 88 -334 q 18 -322 36 -326 l 18 -223 q 54 -229 32 -226 q 99 -231 75 -231 q 156 -223 132 -231 q 197 -201 179 -216 q 227 -164 215 -186 q 250 -115 240 -142 l 289 -6 l 6 745 m 276 860 q 306 905 290 879 q 338 958 322 931 q 369 1013 354 986 q 394 1064 383 1040 l 543 1064 l 543 1049 q 510 1004 532 1031 q 463 946 489 976 q 409 889 437 917 q 358 842 381 860 l 276 842 l 276 860 "},"º":{"x_min":45,"x_max":441,"ha":486,"o":"m 441 768 q 427 668 441 712 q 387 594 413 624 q 324 547 361 563 q 241 532 287 532 q 162 547 198 532 q 100 594 126 563 q 59 668 74 624 q 45 768 45 712 q 58 868 45 824 q 98 942 72 912 q 161 987 124 971 q 244 1003 197 1003 q 322 987 285 1003 q 384 942 358 971 q 426 868 411 912 q 441 768 441 824 m 133 769 q 159 647 133 688 q 243 605 184 605 q 326 647 301 605 q 352 769 352 688 q 326 889 352 850 q 243 929 301 929 q 159 889 184 929 q 133 769 133 850 "},"∞":{"x_min":81,"x_max":901,"ha":982,"o":"m 901 486 q 886 405 901 443 q 845 336 871 366 q 782 289 819 307 q 700 272 745 272 q 585 307 637 272 q 488 421 532 343 q 445 362 468 388 q 395 316 421 335 q 340 287 368 297 q 283 277 312 277 q 202 291 239 277 q 138 334 164 306 q 96 402 111 362 q 81 490 81 441 q 95 573 81 534 q 136 641 110 612 q 200 687 162 670 q 283 704 238 704 q 394 667 340 704 q 489 555 447 631 q 532 614 509 588 q 582 659 555 640 q 638 689 609 678 q 700 699 668 699 q 782 684 745 699 q 845 641 819 669 q 886 574 871 613 q 901 486 901 534 m 296 369 q 372 398 337 369 q 441 490 407 426 q 374 581 409 552 q 294 611 339 611 q 247 601 268 611 q 212 575 227 592 q 190 536 198 558 q 182 489 182 514 q 189 443 182 465 q 210 405 196 422 q 246 379 225 389 q 296 369 267 369 m 690 607 q 612 578 648 607 q 538 486 575 550 q 609 395 573 425 q 692 365 646 365 q 740 374 718 365 q 777 400 762 384 q 800 439 792 417 q 808 487 808 462 q 800 534 808 512 q 776 572 791 556 q 739 597 760 588 q 690 607 717 607 "},"ź":{"x_min":56,"x_max":556.21875,"ha":612,"o":"m 556 0 l 56 0 l 56 80 l 418 656 l 78 656 l 78 745 l 544 745 l 544 650 l 189 88 l 556 88 l 556 0 m 238 860 q 268 905 252 879 q 300 958 284 931 q 331 1013 316 986 q 356 1064 345 1040 l 505 1064 l 505 1049 q 472 1004 494 1031 q 425 946 451 976 q 371 889 399 917 q 320 842 343 860 l 238 842 l 238 860 "},"я":{"x_min":22.75,"x_max":619,"ha":737,"o":"m 157 0 l 22 0 l 220 315 q 161 339 190 323 q 111 381 133 355 q 75 443 89 407 q 62 527 62 479 q 81 621 62 580 q 133 689 100 662 q 214 730 167 716 q 317 745 261 745 l 619 745 l 619 0 l 495 0 l 495 295 l 330 295 l 157 0 m 178 525 q 191 468 178 492 q 226 428 203 444 q 278 405 248 413 q 346 398 309 398 l 495 398 l 495 642 l 322 642 q 214 610 249 642 q 178 525 178 577 "},"Ё":{"x_min":135,"x_max":650,"ha":733,"o":"m 650 0 l 135 0 l 135 992 l 650 992 l 650 880 l 261 880 l 261 574 l 624 574 l 624 462 l 261 462 l 261 111 l 650 111 l 650 0 m 201 1174 q 219 1227 201 1211 q 266 1244 238 1244 q 312 1227 292 1244 q 331 1174 331 1210 q 312 1121 331 1138 q 266 1105 292 1105 q 219 1121 238 1105 q 201 1174 201 1138 m 455 1174 q 474 1227 455 1211 q 520 1244 493 1244 q 545 1239 533 1244 q 566 1227 557 1235 q 580 1206 575 1218 q 586 1174 586 1193 q 566 1121 586 1138 q 520 1105 546 1105 q 474 1121 493 1105 q 455 1174 455 1138 "},"ń":{"x_min":118,"x_max":707,"ha":818,"o":"m 583 0 l 583 479 q 547 611 583 567 q 436 655 512 655 q 343 637 381 655 q 283 585 306 620 q 251 501 261 551 q 241 385 241 450 l 241 0 l 118 0 l 118 745 l 218 745 l 236 644 l 242 644 q 283 694 259 673 q 334 730 306 715 q 393 751 362 744 q 457 758 424 758 q 644 693 581 758 q 707 486 707 628 l 707 0 l 583 0 m 342 860 q 372 905 356 879 q 404 958 388 931 q 435 1013 420 986 q 460 1064 449 1040 l 609 1064 l 609 1049 q 576 1004 598 1031 q 529 946 555 976 q 475 889 503 917 q 424 842 447 860 l 342 842 l 342 860 "}," ":{"x_min":0,"x_max":0,"ha":347},"Г":{"x_min":135,"x_max":649,"ha":682,"o":"m 649 992 l 649 880 l 261 880 l 261 0 l 135 0 l 135 992 l 649 992 "},"Ь":{"x_min":135,"x_max":729,"ha":800,"o":"m 729 290 q 708 170 729 224 q 645 79 688 117 q 537 20 602 41 q 380 0 471 0 l 135 0 l 135 992 l 261 992 l 261 574 l 362 574 q 536 551 465 574 q 648 490 606 529 q 710 400 691 452 q 729 290 729 349 m 261 107 l 368 107 q 540 152 485 107 q 595 290 595 197 q 579 370 595 337 q 533 424 564 403 q 456 453 503 444 q 347 462 410 462 l 261 462 l 261 107 "},"¤":{"x_min":83.640625,"x_max":680.03125,"ha":765,"o":"m 126 490 q 137 566 126 530 q 170 634 149 602 l 83 721 l 149 788 l 235 700 q 304 734 267 722 q 381 747 341 747 q 458 734 422 747 q 526 700 495 722 l 613 788 l 680 723 l 592 635 q 626 567 613 604 q 639 490 639 530 q 627 412 639 449 q 592 344 615 375 l 678 258 l 613 193 l 526 279 q 458 246 495 258 q 381 235 422 235 q 303 247 341 235 q 235 281 266 259 l 149 195 l 85 259 l 170 345 q 137 412 149 376 q 126 490 126 449 m 227 489 q 239 426 227 455 q 273 375 252 397 q 323 340 295 353 q 385 327 352 327 q 448 340 419 327 q 499 375 478 353 q 534 426 521 397 q 546 489 546 455 q 534 554 546 524 q 499 606 521 584 q 448 641 478 628 q 385 654 419 654 q 323 641 352 654 q 273 606 295 628 q 239 554 252 584 q 227 489 227 524 "},"Ĝ":{"x_min":85,"x_max":858,"ha":958,"o":"m 530 524 l 858 524 l 858 36 q 782 15 820 24 q 704 0 744 5 q 620 -10 664 -7 q 526 -14 576 -14 q 337 21 419 -14 q 199 123 255 57 q 114 284 143 189 q 85 497 85 378 q 117 708 85 613 q 211 868 149 802 q 363 970 272 934 q 569 1006 453 1006 q 713 991 644 1006 q 842 947 782 976 l 793 837 q 741 859 769 849 q 683 877 713 869 q 621 890 653 885 q 559 894 590 894 q 412 867 476 894 q 306 788 349 839 q 240 662 263 736 q 218 496 218 588 q 237 334 218 407 q 296 208 255 261 q 401 126 336 155 q 556 97 465 97 q 610 98 585 97 q 656 103 635 100 q 695 109 677 106 q 731 116 714 113 l 731 412 l 530 412 l 530 524 m 771 1071 l 689 1071 q 617 1126 654 1093 q 546 1196 581 1159 q 473 1126 509 1159 q 403 1071 437 1093 l 321 1071 l 321 1089 q 361 1134 338 1108 q 407 1187 384 1160 q 450 1242 430 1215 q 480 1293 470 1269 l 611 1293 q 641 1242 621 1269 q 684 1187 661 1215 q 730 1134 707 1160 q 771 1089 754 1108 l 771 1071 "},"p":{"x_min":118,"x_max":737,"ha":814,"o":"m 454 -14 q 381 -5 414 -14 q 323 18 349 3 q 277 52 297 32 q 241 93 257 72 l 233 93 q 237 49 235 70 q 240 13 238 32 q 241 -16 241 -5 l 241 -334 l 118 -334 l 118 745 l 218 745 l 236 644 l 241 644 q 276 688 257 667 q 322 724 296 709 q 381 748 348 739 q 454 758 413 758 q 570 733 518 758 q 659 660 622 709 q 716 540 696 612 q 737 373 737 468 q 716 205 737 277 q 659 84 696 133 q 570 10 622 35 q 454 -14 518 -14 m 430 655 q 343 639 379 655 q 285 592 307 624 q 253 513 263 560 q 241 401 242 465 l 241 373 q 250 251 241 304 q 281 162 259 198 q 340 107 303 125 q 431 88 377 88 q 566 162 523 88 q 609 374 609 236 q 566 585 609 515 q 430 655 523 655 "},"Ю":{"x_min":135,"x_max":1323,"ha":1409,"o":"m 1323 496 q 1296 287 1323 382 q 1216 126 1269 193 q 1086 22 1164 59 q 906 -14 1008 -14 q 728 19 804 -14 q 600 116 651 53 q 521 266 548 178 q 490 462 494 354 l 261 462 l 261 0 l 135 0 l 135 992 l 261 992 l 261 574 l 493 574 q 529 752 500 672 q 609 889 558 832 q 735 976 661 946 q 908 1007 809 1007 q 1087 970 1009 1007 q 1217 867 1164 934 q 1296 706 1269 800 q 1323 496 1323 612 m 626 497 q 643 330 626 404 q 694 204 659 255 q 782 124 729 152 q 908 97 835 97 q 1035 124 981 97 q 1122 204 1088 152 q 1173 330 1156 255 q 1189 497 1189 404 q 1173 664 1189 590 q 1122 789 1156 738 q 1035 868 1088 840 q 909 895 982 895 q 782 868 836 895 q 694 789 729 840 q 643 664 659 738 q 626 497 626 590 "},"ο":{"x_min":77,"x_max":725,"ha":802,"o":"m 725 373 q 702 208 725 280 q 637 86 679 135 q 534 11 594 37 q 398 -14 474 -14 q 270 11 329 -14 q 168 86 211 37 q 101 208 125 135 q 77 373 77 280 q 99 537 77 465 q 164 657 122 608 q 267 732 206 707 q 403 758 327 758 q 531 732 472 758 q 633 657 590 707 q 700 537 676 608 q 725 373 725 465 m 204 373 q 250 159 204 231 q 401 88 297 88 q 551 159 506 88 q 597 373 597 231 q 551 585 597 515 q 400 655 504 655 q 250 585 295 655 q 204 373 204 515 "},"S":{"x_min":70.109375,"x_max":657,"ha":721,"o":"m 657 264 q 633 147 657 199 q 566 59 610 95 q 460 4 523 23 q 320 -14 398 -14 q 179 -2 245 -14 q 70 32 114 9 l 70 153 q 122 131 93 142 q 184 112 151 120 q 251 99 216 104 q 319 93 285 93 q 479 134 427 93 q 530 252 530 176 q 521 316 530 289 q 486 366 511 343 q 420 410 461 389 q 316 456 379 431 q 212 508 256 480 q 139 572 168 537 q 96 652 110 607 q 83 754 83 697 q 104 860 83 813 q 165 939 126 907 q 259 989 205 972 q 380 1006 314 1006 q 525 990 460 1006 q 640 951 589 975 l 595 845 q 495 880 551 865 q 381 894 440 894 q 254 856 299 894 q 209 752 209 818 q 219 686 209 714 q 252 635 229 657 q 315 592 276 612 q 410 549 353 572 q 517 499 471 525 q 594 441 563 473 q 641 366 625 408 q 657 264 657 323 "},"/":{"x_min":13.75,"x_max":504.015625,"ha":518,"o":"m 504 992 l 135 0 l 13 0 l 383 992 l 504 992 "},"Ŧ":{"x_min":14,"x_max":706,"ha":721,"o":"m 297 556 l 297 880 l 14 880 l 14 992 l 706 992 l 706 880 l 423 880 l 423 556 l 623 556 l 623 448 l 423 448 l 423 0 l 297 0 l 297 448 l 95 448 l 95 556 l 297 556 "},"ђ":{"x_min":12.1875,"x_max":707,"ha":818,"o":"m 510 -334 q 456 -329 477 -334 q 419 -317 435 -324 l 419 -217 q 455 -227 437 -224 q 497 -231 473 -231 q 531 -226 515 -231 q 558 -208 546 -221 q 577 -172 570 -194 q 583 -116 583 -150 l 583 451 q 547 583 583 539 q 436 627 512 627 q 343 609 381 627 q 283 557 306 592 q 251 473 261 523 q 241 357 241 422 l 241 0 l 118 0 l 118 843 l 12 843 l 12 932 l 118 932 l 118 1055 l 241 1055 l 241 932 l 498 932 l 498 843 l 241 843 l 241 715 l 236 616 l 242 616 q 283 666 259 645 q 334 702 306 687 q 393 723 362 716 q 457 730 424 730 q 644 665 581 730 q 707 458 707 600 l 707 -107 q 695 -201 707 -159 q 659 -272 683 -243 q 598 -318 635 -302 q 510 -334 561 -334 "},"y":{"x_min":6.75,"x_max":672.25,"ha":679,"o":"m 6 745 l 134 745 l 280 329 q 300 272 290 301 q 318 212 310 242 q 333 154 327 182 q 341 103 339 126 l 346 103 q 356 149 349 120 q 373 211 364 178 q 392 276 382 244 q 409 330 402 308 l 544 745 l 672 745 l 377 -96 q 336 -195 358 -152 q 285 -270 314 -239 q 217 -317 256 -300 q 123 -334 177 -334 q 62 -330 88 -334 q 18 -322 36 -326 l 18 -223 q 54 -229 32 -226 q 99 -231 75 -231 q 156 -223 132 -231 q 197 -201 179 -216 q 227 -164 215 -186 q 250 -115 240 -142 l 289 -6 l 6 745 "},"Π":{"x_min":135,"x_max":826,"ha":960,"o":"m 826 0 l 699 0 l 699 880 l 261 880 l 261 0 l 135 0 l 135 992 l 826 992 l 826 0 "},"‗":{"x_min":-3,"x_max":574,"ha":571,"o":"m 574 -314 l -3 -314 l -3 -219 l 574 -219 l 574 -314 m 574 -125 l -3 -125 l -3 -31 l 574 -31 l 574 -125 "},"–":{"x_min":56,"x_max":639,"ha":695,"o":"m 56 315 l 56 429 l 639 429 l 639 315 l 56 315 "},"ë":{"x_min":77,"x_max":673,"ha":743,"o":"m 412 -14 q 276 11 337 -14 q 170 84 214 36 q 101 203 125 132 q 77 366 77 274 q 99 531 77 458 q 162 654 121 604 q 259 731 202 705 q 384 758 316 758 q 505 733 451 758 q 595 665 558 709 q 653 560 633 621 q 673 423 673 498 l 673 346 l 204 346 q 259 155 207 216 q 413 93 311 93 q 477 97 448 93 q 534 107 507 100 q 587 123 561 113 q 639 145 613 133 l 639 35 q 586 13 612 22 q 533 -2 560 3 q 476 -11 505 -8 q 412 -14 446 -14 m 384 655 q 260 602 306 655 q 207 449 214 549 l 545 449 q 536 533 545 495 q 507 598 526 571 q 457 640 487 625 q 384 655 427 655 m 183 945 q 201 998 183 982 q 248 1015 220 1015 q 294 998 274 1015 q 313 945 313 981 q 294 892 313 909 q 248 876 274 876 q 201 892 220 876 q 183 945 183 909 m 437 945 q 456 998 437 982 q 502 1015 475 1015 q 527 1010 515 1015 q 548 998 539 1006 q 562 977 557 989 q 568 945 568 964 q 548 892 568 909 q 502 876 528 876 q 456 892 475 876 q 437 945 437 909 "},"б":{"x_min":79,"x_max":716,"ha":791,"o":"m 79 446 q 95 664 79 569 q 147 828 112 759 q 237 940 182 897 q 369 999 292 982 q 535 1034 453 1018 q 686 1065 617 1051 l 709 957 q 633 944 675 951 q 549 928 592 936 q 467 912 507 920 q 398 897 428 904 q 322 865 356 887 q 264 804 288 843 q 225 710 239 766 q 209 577 211 654 l 218 577 q 251 617 230 597 q 300 654 272 638 q 365 682 329 671 q 445 693 401 693 q 562 668 512 693 q 647 599 613 643 q 699 493 682 554 q 716 359 716 432 q 692 196 716 266 q 627 79 669 126 q 526 9 585 32 q 396 -14 467 -14 q 265 16 324 -14 q 165 105 207 46 q 101 249 123 163 q 79 446 79 335 m 406 88 q 481 101 447 88 q 538 144 514 114 q 575 223 562 174 q 588 343 588 271 q 579 445 588 400 q 550 523 570 491 q 500 573 531 555 q 425 590 469 590 q 347 574 383 590 q 282 534 311 557 q 234 486 254 511 q 206 444 215 462 q 215 312 206 376 q 245 198 223 248 q 306 118 268 148 q 406 88 345 88 "},"ƒ":{"x_min":138,"x_max":679,"ha":765,"o":"m 444 552 l 444 -89 q 429 -207 444 -160 q 385 -282 413 -254 q 314 -322 356 -310 q 220 -334 272 -334 q 177 -330 198 -334 q 138 -323 156 -327 l 138 -219 q 174 -228 155 -224 q 215 -231 194 -231 q 262 -225 242 -231 q 295 -202 282 -218 q 314 -159 308 -187 q 321 -88 321 -131 l 321 552 l 189 552 l 189 610 l 321 664 l 321 757 q 336 877 321 829 q 380 953 351 925 q 451 994 409 982 q 546 1006 493 1006 q 619 998 586 1006 q 679 980 653 990 l 647 884 q 601 897 626 892 q 550 903 577 903 q 503 897 523 903 q 470 874 483 890 q 450 830 457 858 q 444 758 444 802 l 444 660 l 611 660 l 611 552 l 444 552 "},"у":{"x_min":6.75,"x_max":672.25,"ha":679,"o":"m 6 745 l 134 745 l 280 329 q 300 272 290 301 q 318 212 310 242 q 333 154 327 182 q 341 103 339 126 l 346 103 q 356 149 349 120 q 373 211 364 178 q 392 276 382 244 q 409 330 402 308 l 544 745 l 672 745 l 377 -96 q 336 -195 358 -152 q 285 -270 314 -239 q 217 -317 256 -300 q 123 -334 177 -334 q 62 -330 88 -334 q 18 -322 36 -326 l 18 -223 q 54 -229 32 -226 q 99 -231 75 -231 q 156 -223 132 -231 q 197 -201 179 -216 q 227 -164 215 -186 q 250 -115 240 -142 l 289 -6 l 6 745 "},"J":{"x_min":-125,"x_max":251.15625,"ha":376,"o":"m -19 -264 q -80 -259 -54 -264 q -125 -247 -106 -255 l -125 -139 q -75 -149 -101 -145 q -18 -152 -48 -152 q 32 -146 6 -152 q 78 -122 57 -139 q 112 -76 99 -105 q 125 0 125 -46 l 125 992 l 251 992 l 251 13 q 231 -109 251 -57 q 175 -196 211 -162 q 90 -247 140 -230 q -19 -264 40 -264 "},"ŷ":{"x_min":6.75,"x_max":672.25,"ha":679,"o":"m 6 745 l 134 745 l 280 329 q 300 272 290 301 q 318 212 310 242 q 333 154 327 182 q 341 103 339 126 l 346 103 q 356 149 349 120 q 373 211 364 178 q 392 276 382 244 q 409 330 402 308 l 544 745 l 672 745 l 377 -96 q 336 -195 358 -152 q 285 -270 314 -239 q 217 -317 256 -300 q 123 -334 177 -334 q 62 -330 88 -334 q 18 -322 36 -326 l 18 -223 q 54 -229 32 -226 q 99 -231 75 -231 q 156 -223 132 -231 q 197 -201 179 -216 q 227 -164 215 -186 q 250 -115 240 -142 l 289 -6 l 6 745 m 566 842 l 484 842 q 412 897 449 864 q 341 967 376 930 q 268 897 304 930 q 198 842 232 864 l 116 842 l 116 860 q 156 905 133 879 q 202 958 179 931 q 245 1013 225 986 q 275 1064 265 1040 l 406 1064 q 436 1013 416 1040 q 479 958 456 986 q 525 905 502 931 q 566 860 549 879 l 566 842 "},"ŕ":{"x_min":118,"x_max":526,"ha":554,"o":"m 439 758 q 483 756 459 758 q 526 751 508 754 l 509 637 q 470 643 490 640 q 433 645 450 645 q 355 628 390 645 q 294 578 320 610 q 255 501 269 546 q 241 401 241 456 l 241 0 l 118 0 l 118 745 l 218 745 l 233 608 l 238 608 q 274 664 255 637 q 318 712 294 691 q 372 745 342 732 q 439 758 402 758 m 232 860 q 262 905 246 879 q 294 958 278 931 q 325 1013 310 986 q 350 1064 339 1040 l 499 1064 l 499 1049 q 466 1004 488 1031 q 419 946 445 976 q 365 889 393 917 q 314 842 337 860 l 232 842 l 232 860 "},"ώ":{"x_min":77,"x_max":970,"ha":1046,"o":"m 332 -14 q 223 13 271 -14 q 143 91 176 41 q 93 209 110 140 q 77 360 77 278 q 82 464 77 415 q 97 558 87 512 q 124 650 108 604 q 162 745 140 696 l 289 745 q 251 649 267 695 q 225 558 235 604 q 209 464 214 512 q 204 360 204 416 q 214 243 204 294 q 242 158 224 192 q 285 106 260 123 q 340 88 310 88 q 394 102 371 88 q 432 140 417 116 q 454 198 447 165 q 462 270 462 231 l 462 478 l 585 478 l 585 270 q 618 135 585 182 q 706 88 651 88 q 761 106 736 88 q 804 158 786 123 q 832 243 823 192 q 842 360 842 294 q 837 464 842 416 q 821 558 832 512 q 795 649 811 604 q 757 745 779 695 l 884 745 q 922 650 906 696 q 949 558 938 604 q 964 464 959 512 q 970 360 970 415 q 953 209 970 278 q 903 91 936 140 q 823 13 871 41 q 714 -14 775 -14 q 595 15 642 -14 q 527 106 548 45 l 520 106 q 452 15 499 45 q 332 -14 404 -14 m 474 860 q 487 906 480 880 q 500 960 494 932 q 512 1014 507 987 q 521 1064 518 1041 l 656 1064 l 656 1049 q 640 1007 651 1033 q 614 951 629 980 q 581 892 598 921 q 547 842 563 863 l 474 842 l 474 860 "},"˘":{"x_min":196,"x_max":604,"ha":802,"o":"m 604 1030 q 586 954 601 988 q 545 894 571 920 q 482 855 519 869 q 397 842 445 842 q 310 855 347 842 q 249 893 273 868 q 211 952 224 918 q 196 1030 198 987 l 270 1030 q 282 983 273 1000 q 308 957 292 965 q 347 946 324 948 q 400 943 370 943 q 446 946 424 943 q 486 959 468 949 q 515 985 503 968 q 529 1030 526 1002 l 604 1030 "},"D":{"x_min":135,"x_max":865,"ha":950,"o":"m 865 505 q 832 285 865 379 q 738 127 799 190 q 586 31 676 63 q 383 0 496 0 l 135 0 l 135 992 l 410 992 q 598 960 514 992 q 741 868 682 929 q 832 715 800 806 q 865 505 865 624 m 731 501 q 709 672 731 600 q 643 791 686 744 q 538 861 601 838 q 397 884 476 884 l 261 884 l 261 107 l 370 107 q 640 207 549 107 q 731 501 731 306 "},"ł":{"x_min":-7,"x_max":367,"ha":359,"o":"m 118 513 l 118 1055 l 241 1055 l 241 593 l 314 641 l 367 558 l 241 477 l 241 0 l 118 0 l 118 396 l 45 350 l -7 432 l 118 513 "},"ĺ":{"x_min":116,"x_max":383,"ha":359,"o":"m 241 0 l 118 0 l 118 1055 l 241 1055 l 241 0 m 116 1128 q 146 1173 130 1147 q 178 1226 162 1199 q 209 1281 194 1254 q 234 1332 223 1308 l 383 1332 l 383 1317 q 350 1272 372 1299 q 303 1214 329 1244 q 249 1157 277 1185 q 198 1110 221 1128 l 116 1110 l 116 1128 "},"ц":{"x_min":118,"x_max":815,"ha":836,"o":"m 815 -258 l 691 -258 l 691 0 l 118 0 l 118 745 l 241 745 l 241 102 l 582 102 l 582 745 l 706 745 l 706 102 l 815 102 l 815 -258 "},"Л":{"x_min":0,"x_max":794,"ha":929,"o":"m 794 0 l 667 0 l 667 880 l 432 880 q 411 721 421 804 q 389 558 400 638 q 367 406 378 478 q 344 279 355 334 q 311 154 330 209 q 263 61 291 99 q 195 4 234 24 q 99 -16 155 -16 q 46 -11 73 -16 q 0 0 20 -6 l 0 105 q 35 95 15 99 q 76 91 55 91 q 130 113 109 91 q 165 167 151 134 q 188 239 180 200 q 205 315 197 279 q 224 421 214 354 q 248 577 235 488 q 276 771 262 665 q 306 992 291 877 l 794 992 l 794 0 "},"$":{"x_min":83,"x_max":668,"ha":765,"o":"m 668 303 q 651 216 668 255 q 602 149 634 177 q 525 102 570 120 q 423 75 480 83 l 423 -81 l 330 -81 l 330 69 q 261 72 296 69 q 194 81 226 75 q 133 96 161 87 q 83 116 104 104 l 83 233 q 134 212 105 222 q 197 193 164 201 q 263 179 229 185 q 330 174 298 174 l 330 466 q 225 509 269 487 q 151 560 180 531 q 108 626 122 589 q 94 713 94 663 q 110 796 94 759 q 158 862 127 834 q 232 908 188 890 q 330 932 276 926 l 330 1054 l 423 1054 l 423 935 q 548 917 491 931 q 651 882 606 903 l 606 783 q 521 812 568 799 q 423 829 473 826 l 423 547 q 529 504 483 526 q 605 453 574 481 q 652 388 636 425 q 668 303 668 352 m 548 302 q 541 344 548 325 q 520 378 535 362 q 482 406 505 393 q 423 432 458 420 l 423 180 q 517 222 486 190 q 548 302 548 254 m 213 711 q 219 668 213 687 q 238 633 224 649 q 274 605 252 617 q 330 580 296 592 l 330 827 q 241 787 269 816 q 213 711 213 757 "},"w":{"x_min":13.75,"x_max":1022.25,"ha":1036,"o":"m 683 0 l 570 417 q 563 445 567 430 q 555 477 559 460 q 546 512 551 494 q 538 546 542 529 q 518 628 528 586 l 514 628 q 496 546 505 585 q 480 476 488 512 q 464 415 471 440 l 347 0 l 204 0 l 13 745 l 143 745 l 232 348 q 245 282 239 318 q 258 211 252 246 q 269 146 264 177 q 277 95 274 115 l 281 95 q 290 142 284 113 q 303 205 296 172 q 317 270 310 238 q 331 324 325 302 l 453 745 l 586 745 l 702 324 q 716 270 709 301 q 732 207 724 239 q 745 145 739 175 q 754 95 751 115 l 758 95 q 764 142 760 113 q 775 207 769 172 q 788 279 781 242 q 803 348 795 316 l 896 745 l 1022 745 l 829 0 l 683 0 "},"о":{"x_min":77,"x_max":725,"ha":802,"o":"m 725 373 q 702 208 725 280 q 637 86 679 135 q 534 11 594 37 q 398 -14 474 -14 q 270 11 329 -14 q 168 86 211 37 q 101 208 125 135 q 77 373 77 280 q 99 537 77 465 q 164 657 122 608 q 267 732 206 707 q 403 758 327 758 q 531 732 472 758 q 633 657 590 707 q 700 537 676 608 q 725 373 725 465 m 204 373 q 250 159 204 231 q 401 88 297 88 q 551 159 506 88 q 597 373 597 231 q 551 585 597 515 q 400 655 504 655 q 250 585 295 655 q 204 373 204 515 "},"Д":{"x_min":10,"x_max":876,"ha":903,"o":"m 876 -261 l 749 -261 l 749 0 l 136 0 l 136 -261 l 10 -261 l 10 111 l 86 111 q 147 223 118 170 q 203 354 177 277 q 251 512 229 431 q 290 675 273 593 q 316 837 306 757 q 329 992 326 917 l 744 992 l 744 111 l 876 111 l 876 -261 m 617 111 l 617 880 l 455 880 q 440 766 452 829 q 413 634 429 703 q 374 494 396 565 q 326 355 352 423 q 273 224 301 286 q 216 111 245 162 l 617 111 "},"Ç":{"x_min":85,"x_max":798,"ha":838,"o":"m 538 894 q 406 867 465 894 q 305 788 347 839 q 241 662 264 736 q 218 496 218 588 q 238 326 218 400 q 298 200 258 251 q 398 123 338 150 q 538 97 458 97 q 652 108 598 97 q 760 135 707 120 l 760 26 q 707 8 733 15 q 651 -4 680 0 q 590 -11 622 -9 q 517 -14 557 -14 q 324 22 405 -14 q 189 126 243 59 q 110 288 136 193 q 85 497 85 382 q 114 703 85 609 q 201 864 144 796 q 343 968 258 931 q 538 1006 428 1006 q 677 991 611 1006 q 798 947 744 976 l 745 841 q 652 879 702 863 q 538 894 601 894 m 622 -194 q 574 -297 622 -260 q 424 -334 526 -334 q 394 -331 409 -334 q 369 -327 379 -329 l 369 -254 q 395 -257 379 -256 q 422 -258 412 -258 q 497 -247 470 -258 q 524 -208 524 -235 q 515 -186 524 -195 q 491 -169 506 -176 q 454 -157 476 -162 q 409 -147 433 -152 l 470 0 l 552 0 l 513 -78 q 556 -92 536 -83 q 590 -115 575 -101 q 613 -148 605 -128 q 622 -194 622 -168 "},"Ŝ":{"x_min":70.109375,"x_max":657,"ha":721,"o":"m 657 264 q 633 147 657 199 q 566 59 610 95 q 460 4 523 23 q 320 -14 398 -14 q 179 -2 245 -14 q 70 32 114 9 l 70 153 q 122 131 93 142 q 184 112 151 120 q 251 99 216 104 q 319 93 285 93 q 479 134 427 93 q 530 252 530 176 q 521 316 530 289 q 486 366 511 343 q 420 410 461 389 q 316 456 379 431 q 212 508 256 480 q 139 572 168 537 q 96 652 110 607 q 83 754 83 697 q 104 860 83 813 q 165 939 126 907 q 259 989 205 972 q 380 1006 314 1006 q 525 990 460 1006 q 640 951 589 975 l 595 845 q 495 880 551 865 q 381 894 440 894 q 254 856 299 894 q 209 752 209 818 q 219 686 209 714 q 252 635 229 657 q 315 592 276 612 q 410 549 353 572 q 517 499 471 525 q 594 441 563 473 q 641 366 625 408 q 657 264 657 323 m 612 1071 l 530 1071 q 458 1126 495 1093 q 387 1196 422 1159 q 314 1126 350 1159 q 244 1071 278 1093 l 162 1071 l 162 1089 q 202 1134 179 1108 q 248 1187 225 1160 q 291 1242 271 1215 q 321 1293 311 1269 l 452 1293 q 482 1242 462 1269 q 525 1187 502 1215 q 571 1134 548 1160 q 612 1089 595 1108 l 612 1071 "},"C":{"x_min":85,"x_max":798,"ha":838,"o":"m 538 894 q 406 867 465 894 q 305 788 347 839 q 241 662 264 736 q 218 496 218 588 q 238 326 218 400 q 298 200 258 251 q 398 123 338 150 q 538 97 458 97 q 652 108 598 97 q 760 135 707 120 l 760 26 q 707 8 733 15 q 651 -4 680 0 q 590 -11 622 -9 q 517 -14 557 -14 q 324 22 405 -14 q 189 126 243 59 q 110 288 136 193 q 85 497 85 382 q 114 703 85 609 q 201 864 144 796 q 343 968 258 931 q 538 1006 428 1006 q 677 991 611 1006 q 798 947 744 976 l 745 841 q 652 879 702 863 q 538 894 601 894 "},"Ḁ":{"x_min":-0.25,"x_max":844.25,"ha":844,"o":"m 715 0 l 606 307 l 237 307 l 127 0 l 0 0 l 364 996 l 479 996 l 844 0 l 715 0 m 566 419 l 466 706 q 456 736 462 719 q 444 774 450 754 q 432 817 438 795 q 421 860 426 839 q 410 816 416 839 q 397 773 404 794 q 386 735 391 752 q 376 706 380 718 l 277 419 l 566 419 m 576 -229 q 564 -291 576 -264 q 531 -338 552 -319 q 482 -367 510 -357 q 420 -377 453 -377 q 358 -367 386 -377 q 310 -338 330 -357 q 279 -292 290 -319 q 269 -231 269 -265 q 279 -169 269 -196 q 310 -123 290 -142 q 358 -94 330 -104 q 420 -85 386 -85 q 481 -94 453 -85 q 531 -123 510 -104 q 564 -168 552 -142 q 576 -229 576 -195 m 501 -231 q 479 -174 501 -194 q 422 -154 456 -154 q 365 -174 387 -154 q 343 -231 343 -194 q 363 -287 343 -267 q 422 -307 383 -307 q 479 -287 456 -307 q 501 -231 501 -267 "},"Ĵ":{"x_min":-125,"x_max":414,"ha":376,"o":"m -19 -264 q -80 -259 -54 -264 q -125 -247 -106 -255 l -125 -139 q -75 -149 -101 -145 q -18 -152 -48 -152 q 32 -146 6 -152 q 78 -122 57 -139 q 112 -76 99 -105 q 125 0 125 -46 l 125 992 l 251 992 l 251 13 q 231 -109 251 -57 q 175 -196 211 -162 q 90 -247 140 -230 q -19 -264 40 -264 m 414 1071 l 332 1071 q 260 1126 297 1093 q 189 1196 224 1159 q 116 1126 152 1159 q 46 1071 80 1093 l -36 1071 l -36 1089 q 4 1134 -18 1108 q 50 1187 27 1160 q 93 1242 73 1215 q 123 1293 113 1269 l 254 1293 q 284 1242 264 1269 q 327 1187 304 1215 q 373 1134 350 1160 q 414 1089 397 1108 l 414 1071 "},"È":{"x_min":135,"x_max":650,"ha":733,"o":"m 650 0 l 135 0 l 135 992 l 650 992 l 650 880 l 261 880 l 261 574 l 624 574 l 624 462 l 261 462 l 261 111 l 650 111 l 650 0 m 484 1071 l 402 1071 q 350 1118 378 1089 q 296 1175 322 1146 q 249 1233 270 1205 q 217 1278 227 1260 l 217 1293 l 365 1293 q 391 1242 376 1269 q 421 1187 405 1215 q 453 1134 437 1160 q 484 1089 469 1108 l 484 1071 "},"ﬁ":{"x_min":19,"x_max":709.96875,"ha":817,"o":"m 441 656 l 274 656 l 274 0 l 151 0 l 151 656 l 19 656 l 19 704 l 151 749 l 151 814 q 166 934 151 886 q 210 1010 181 982 q 280 1051 238 1039 q 375 1063 322 1063 q 449 1055 415 1063 q 509 1037 482 1047 l 477 941 q 431 954 456 949 q 379 960 406 960 q 332 954 352 960 q 300 931 313 947 q 280 887 287 915 q 274 815 274 859 l 274 745 l 441 745 l 441 656 m 698 0 l 575 0 l 575 745 l 698 745 l 698 0 m 565 945 q 586 1004 565 986 q 637 1023 606 1023 q 665 1018 652 1023 q 688 1004 678 1014 q 704 980 698 995 q 709 945 709 966 q 688 887 709 906 q 637 868 667 868 q 586 886 606 868 q 565 945 565 905 "},"X":{"x_min":-0.25,"x_max":760.25,"ha":760,"o":"m 760 0 l 617 0 l 376 430 l 127 0 l 0 0 l 307 518 l 20 992 l 155 992 l 380 612 l 608 992 l 737 992 l 450 522 l 760 0 "},"ô":{"x_min":77,"x_max":725,"ha":802,"o":"m 725 373 q 702 208 725 280 q 637 86 679 135 q 534 11 594 37 q 398 -14 474 -14 q 270 11 329 -14 q 168 86 211 37 q 101 208 125 135 q 77 373 77 280 q 99 537 77 465 q 164 657 122 608 q 267 732 206 707 q 403 758 327 758 q 531 732 472 758 q 633 657 590 707 q 700 537 676 608 q 725 373 725 465 m 204 373 q 250 159 204 231 q 401 88 297 88 q 551 159 506 88 q 597 373 597 231 q 551 585 597 515 q 400 655 504 655 q 250 585 295 655 q 204 373 204 515 m 622 842 l 540 842 q 468 897 505 864 q 397 967 432 930 q 324 897 360 930 q 254 842 288 864 l 172 842 l 172 860 q 212 905 189 879 q 258 958 235 931 q 301 1013 281 986 q 331 1064 321 1040 l 462 1064 q 492 1013 472 1040 q 535 958 512 986 q 581 905 558 931 q 622 860 605 879 l 622 842 "},"Ė":{"x_min":135,"x_max":650,"ha":733,"o":"m 650 0 l 135 0 l 135 992 l 650 992 l 650 880 l 261 880 l 261 574 l 624 574 l 624 462 l 261 462 l 261 111 l 650 111 l 650 0 m 325 1155 q 345 1214 325 1196 q 396 1233 366 1233 q 425 1228 411 1233 q 448 1214 438 1224 q 463 1190 457 1205 q 469 1155 469 1176 q 448 1097 469 1116 q 396 1078 426 1078 q 345 1096 366 1078 q 325 1155 325 1115 "},"г":{"x_min":118,"x_max":527,"ha":555,"o":"m 527 642 l 241 642 l 241 0 l 118 0 l 118 745 l 527 745 l 527 642 "},"Ŀ":{"x_min":135,"x_max":649.4375,"ha":682,"o":"m 135 0 l 135 992 l 261 992 l 261 111 l 649 111 l 649 0 l 135 0 m 436 493 q 456 552 436 534 q 507 571 477 571 q 536 566 522 571 q 559 552 549 562 q 574 528 568 543 q 580 493 580 514 q 559 435 580 454 q 507 416 537 416 q 456 434 477 416 q 436 493 436 453 "},"х":{"x_min":24,"x_max":670,"ha":695,"o":"m 276 382 l 38 745 l 178 745 l 347 466 l 517 745 l 658 745 l 416 382 l 670 0 l 529 0 l 347 295 l 164 0 l 24 0 l 276 382 "},"ŋ":{"x_min":118,"x_max":706.34375,"ha":818,"o":"m 508 -334 q 454 -329 476 -334 q 418 -317 433 -324 l 418 -217 q 453 -227 435 -224 q 495 -231 472 -231 q 529 -226 513 -231 q 556 -208 545 -221 q 575 -172 568 -194 q 581 -116 581 -150 l 582 479 q 547 611 582 567 q 435 655 511 655 q 343 637 381 655 q 283 585 306 620 q 251 501 261 551 q 241 385 241 450 l 241 0 l 118 0 l 118 745 l 218 745 l 236 644 l 242 644 q 283 694 259 673 q 334 730 306 715 q 393 751 362 744 q 456 758 424 758 q 643 693 580 758 q 706 486 706 628 l 705 -107 q 693 -201 705 -159 q 657 -272 681 -243 q 596 -318 633 -302 q 508 -334 559 -334 "},"Ч":{"x_min":113,"x_max":782,"ha":917,"o":"m 782 0 l 655 0 l 655 406 q 511 360 577 376 q 379 345 445 345 q 266 361 316 345 q 183 410 217 378 q 130 489 148 442 q 113 596 113 536 l 113 992 l 239 992 l 239 612 q 274 495 239 534 q 393 456 310 456 q 517 469 454 456 q 655 510 579 483 l 655 992 l 782 992 l 782 0 "},"ü":{"x_min":111,"x_max":700,"ha":818,"o":"m 600 0 l 582 99 l 575 99 q 534 48 558 70 q 483 13 511 27 q 424 -7 455 0 q 360 -14 393 -14 q 252 1 299 -14 q 174 50 205 17 q 126 135 142 83 q 111 258 111 186 l 111 745 l 234 745 l 234 264 q 270 132 234 176 q 381 88 306 88 q 474 106 436 88 q 534 158 511 123 q 566 242 556 192 q 576 357 576 292 l 576 745 l 700 745 l 700 0 l 600 0 m 210 945 q 228 998 210 982 q 275 1015 247 1015 q 321 998 301 1015 q 340 945 340 981 q 321 892 340 909 q 275 876 301 876 q 228 892 247 876 q 210 945 210 909 m 464 945 q 483 998 464 982 q 529 1015 502 1015 q 554 1010 542 1015 q 575 998 566 1006 q 589 977 584 989 q 595 945 595 964 q 575 892 595 909 q 529 876 555 876 q 483 892 502 876 q 464 945 464 909 "},"ь":{"x_min":118,"x_max":711,"ha":787,"o":"m 241 439 l 429 439 q 641 386 572 439 q 711 227 711 333 q 695 133 711 175 q 644 61 679 91 q 556 15 610 31 q 426 0 502 0 l 118 0 l 118 745 l 241 745 l 241 439 m 241 336 l 241 102 l 416 102 q 485 108 454 102 q 539 127 516 113 q 574 164 561 141 q 587 219 587 186 q 576 275 587 252 q 543 311 565 297 q 489 330 521 325 q 413 336 456 336 l 241 336 "},"Ÿ":{"x_min":-0.25,"x_max":731.25,"ha":732,"o":"m 364 490 l 595 992 l 731 992 l 428 386 l 428 0 l 302 0 l 302 379 l 0 992 l 137 992 l 364 490 m 174 1174 q 192 1227 174 1211 q 239 1244 211 1244 q 285 1227 265 1244 q 304 1174 304 1210 q 285 1121 304 1138 q 239 1105 265 1105 q 192 1121 211 1105 q 174 1174 174 1138 m 428 1174 q 447 1227 428 1211 q 493 1244 466 1244 q 518 1239 506 1244 q 539 1227 530 1235 q 553 1206 548 1218 q 559 1174 559 1193 q 539 1121 559 1138 q 493 1105 519 1105 q 447 1121 466 1105 q 428 1174 428 1138 "},"€":{"x_min":42.984375,"x_max":744.875,"ha":765,"o":"m 526 893 q 440 875 480 893 q 368 825 400 858 q 313 743 336 791 q 279 634 291 695 l 571 634 l 571 526 l 268 526 q 268 509 268 517 q 267 494 267 502 q 267 481 267 487 q 267 458 267 470 q 268 434 267 446 l 529 434 l 529 326 l 281 326 q 367 155 304 214 q 530 97 429 97 q 627 107 581 97 q 713 135 673 118 l 713 26 q 627 -3 672 7 q 521 -14 582 -14 q 381 9 443 -14 q 273 77 319 33 q 198 184 228 121 q 154 326 168 247 l 42 326 l 42 434 l 143 434 q 142 456 142 447 q 142 481 142 464 q 142 508 142 494 q 143 526 143 521 l 42 526 l 42 634 l 151 634 q 193 787 163 718 q 269 904 223 855 q 377 979 314 953 q 517 1006 439 1006 q 637 991 582 1006 q 744 943 691 976 l 690 844 q 615 879 656 865 q 526 893 575 893 "},"в":{"x_min":118,"x_max":711,"ha":787,"o":"m 687 557 q 645 447 687 486 q 531 395 603 407 l 531 390 q 602 373 569 385 q 659 340 635 361 q 697 289 683 320 q 711 215 711 258 q 695 130 711 169 q 644 61 679 91 q 556 16 610 32 q 426 0 502 0 l 118 0 l 118 745 l 424 745 q 529 735 481 745 q 612 704 577 726 q 667 646 647 682 q 687 557 687 610 m 587 224 q 543 312 587 287 q 413 336 500 336 l 241 336 l 241 102 l 416 102 q 485 108 454 102 q 539 128 516 114 q 574 166 561 143 q 587 224 587 190 m 570 545 q 533 620 570 598 q 422 642 496 642 l 241 642 l 241 439 l 401 439 q 475 444 443 439 q 527 461 506 449 q 559 494 549 473 q 570 545 570 515 "},"Η":{"x_min":135,"x_max":839,"ha":974,"o":"m 839 0 l 712 0 l 712 462 l 261 462 l 261 0 l 135 0 l 135 992 l 261 992 l 261 574 l 712 574 l 712 992 l 839 992 l 839 0 "},"С":{"x_min":85,"x_max":798,"ha":838,"o":"m 538 894 q 406 867 465 894 q 305 788 347 839 q 241 662 264 736 q 218 496 218 588 q 238 326 218 400 q 298 200 258 251 q 398 123 338 150 q 538 97 458 97 q 652 108 598 97 q 760 135 707 120 l 760 26 q 707 8 733 15 q 651 -4 680 0 q 590 -11 622 -9 q 517 -14 557 -14 q 324 22 405 -14 q 189 126 243 59 q 110 288 136 193 q 85 497 85 382 q 114 703 85 609 q 201 864 144 796 q 343 968 258 931 q 538 1006 428 1006 q 677 991 611 1006 q 798 947 744 976 l 745 841 q 652 879 702 863 q 538 894 601 894 "},"ß":{"x_min":118,"x_max":774,"ha":836,"o":"m 685 854 q 670 785 685 815 q 633 730 655 755 q 586 685 612 706 q 538 646 560 665 q 502 609 517 627 q 487 570 487 591 q 492 545 487 556 q 510 521 497 534 q 547 491 523 507 q 610 448 571 474 q 679 399 649 423 q 730 347 709 374 q 762 286 751 319 q 774 211 774 254 q 755 110 774 152 q 701 39 736 67 q 619 0 667 12 q 514 -14 571 -14 q 401 -2 448 -14 q 318 32 353 9 l 318 145 q 357 124 335 134 q 404 106 379 114 q 454 93 428 98 q 505 88 480 88 q 571 96 543 88 q 616 120 598 105 q 642 156 634 135 q 650 205 650 178 q 644 249 650 229 q 624 288 639 269 q 585 327 609 307 q 522 370 560 347 q 450 421 479 397 q 403 466 422 444 q 378 513 385 489 q 371 565 371 537 q 385 629 371 602 q 420 677 399 655 q 466 716 441 698 q 512 754 490 735 q 547 797 533 774 q 561 849 561 820 q 550 899 561 878 q 518 933 539 920 q 469 954 498 947 q 406 960 441 960 q 343 954 373 960 q 290 931 313 947 q 254 887 268 915 q 241 814 241 858 l 241 0 l 118 0 l 118 814 q 139 932 118 884 q 199 1009 160 980 q 290 1050 237 1037 q 405 1063 343 1063 q 519 1050 467 1063 q 607 1011 571 1037 q 664 946 644 985 q 685 854 685 906 "},"њ":{"x_min":118,"x_max":1121,"ha":1197,"o":"m 241 745 l 241 437 l 554 437 l 554 745 l 677 745 l 677 439 l 837 439 q 1051 386 982 439 q 1121 228 1121 333 q 1105 133 1121 176 q 1054 61 1089 91 q 966 15 1020 31 q 835 0 912 0 l 554 0 l 554 334 l 241 334 l 241 0 l 118 0 l 118 745 l 241 745 m 997 220 q 986 276 997 253 q 953 312 975 298 q 898 332 931 326 q 823 337 865 337 l 677 337 l 677 102 l 826 102 q 894 108 863 102 q 948 128 925 114 q 984 164 971 142 q 997 220 997 187 "},"Ű":{"x_min":125,"x_max":845,"ha":970,"o":"m 845 993 l 845 349 q 822 205 845 272 q 755 90 800 139 q 641 13 709 41 q 481 -14 573 -14 q 327 12 394 -14 q 216 86 261 38 q 148 202 171 134 q 125 352 125 269 l 125 991 l 251 991 l 251 346 q 309 162 251 227 q 487 97 368 97 q 591 115 548 97 q 663 167 635 133 q 704 246 690 200 q 718 347 718 292 l 718 993 l 845 993 m 273 1089 q 303 1134 287 1108 q 335 1187 319 1160 q 365 1242 351 1215 q 391 1293 380 1269 l 526 1293 l 526 1278 q 493 1233 515 1260 q 446 1175 472 1205 q 392 1118 420 1146 q 341 1071 365 1089 l 273 1071 l 273 1089 m 519 1089 q 549 1134 533 1108 q 581 1187 565 1160 q 611 1242 597 1215 q 636 1293 626 1269 l 771 1293 l 771 1278 q 738 1233 760 1260 q 691 1175 717 1205 q 637 1118 665 1146 q 586 1071 610 1089 l 519 1071 l 519 1089 "},"c":{"x_min":77,"x_max":596,"ha":643,"o":"m 402 -14 q 274 7 334 -14 q 171 75 215 28 q 102 193 127 121 q 77 367 77 266 q 102 548 77 474 q 173 669 128 623 q 278 736 218 715 q 408 758 339 758 q 511 746 461 758 q 596 718 562 735 l 559 614 q 524 627 543 621 q 485 638 505 633 q 445 647 465 644 q 408 650 425 650 q 253 581 302 650 q 204 369 204 513 q 253 160 204 226 q 402 93 302 93 q 502 106 457 93 q 583 135 546 118 l 583 26 q 504 -3 546 6 q 402 -14 463 -14 "},"¶":{"x_min":77,"x_max":764,"ha":910,"o":"m 764 -176 l 682 -176 l 682 947 l 541 947 l 541 -176 l 460 -176 l 460 379 q 361 366 418 366 q 244 384 296 366 q 154 441 191 401 q 97 546 117 481 q 77 706 77 611 q 99 872 77 806 q 161 980 121 939 q 258 1038 201 1021 q 382 1055 314 1055 l 764 1055 l 764 -176 "},"Ή":{"x_min":-17,"x_max":922,"ha":1057,"o":"m 922 0 l 795 0 l 795 462 l 344 462 l 344 0 l 218 0 l 218 992 l 344 992 l 344 574 l 795 574 l 795 992 l 922 992 l 922 0 m -17 789 q -3 835 -10 809 q 9 889 3 861 q 21 943 16 916 q 30 993 27 970 l 165 993 l 165 978 q 149 936 160 962 q 123 880 138 909 q 90 821 107 850 q 56 771 72 792 l -17 771 l -17 789 "},"Ὅ":{"x_min":-203,"x_max":1001,"ha":1087,"o":"m 1001 496 q 973 287 1001 382 q 891 126 946 193 q 757 22 837 59 q 571 -14 676 -14 q 380 22 461 -14 q 245 126 299 59 q 166 288 192 193 q 141 498 141 382 q 166 707 141 613 q 246 867 192 801 q 381 970 299 934 q 573 1007 462 1007 q 757 970 678 1007 q 891 867 837 934 q 973 706 946 800 q 1001 496 1001 612 m 274 497 q 292 330 274 404 q 346 204 309 255 q 438 124 382 152 q 571 97 494 97 q 704 124 649 97 q 797 204 760 152 q 850 330 833 255 q 867 497 867 404 q 850 664 867 590 q 797 789 833 738 q 705 868 761 840 q 573 895 650 895 q 439 868 495 895 q 346 789 383 840 q 292 664 309 738 q 274 497 274 590 m -10 787 q 5 833 -2 807 q 22 885 14 858 q 38 939 30 911 q 50 991 45 966 l 191 991 l 191 977 q 162 929 178 955 q 127 876 146 903 q 87 822 108 849 q 45 770 66 795 l -10 770 l -10 787 m -203 851 q -162 942 -203 904 q -38 1003 -121 981 l -38 951 q -98 920 -79 936 q -118 889 -118 905 q -107 870 -118 876 q -84 858 -97 864 q -61 844 -72 853 q -51 816 -51 835 q -67 778 -51 791 q -116 765 -84 765 q -179 788 -156 765 q -203 851 -203 812 "},"γ":{"x_min":6.75,"x_max":672.25,"ha":679,"o":"m 412 12 q 385 -76 397 -30 q 365 -167 373 -122 q 352 -255 356 -213 q 348 -334 348 -298 l 220 -334 q 225 -264 220 -305 q 240 -176 230 -223 q 262 -82 249 -130 q 289 8 274 -34 l 6 745 l 134 745 l 282 349 q 301 291 291 322 q 320 229 312 259 q 336 171 329 198 q 346 126 343 144 l 350 126 q 360 171 353 143 q 375 230 367 199 q 393 292 383 262 q 409 345 402 323 l 544 745 l 672 745 l 412 12 "},"­":{"x_min":56,"x_max":392,"ha":447,"o":"m 56 315 l 56 429 l 392 429 l 392 315 l 56 315 "},":":{"x_min":100,"x_max":272,"ha":372,"o":"m 100 74 q 106 118 100 100 q 125 147 113 136 q 152 163 136 158 q 186 169 167 169 q 219 163 203 169 q 246 147 235 158 q 265 118 258 136 q 272 74 272 100 q 265 31 272 49 q 246 2 258 13 q 219 -14 235 -9 q 186 -20 203 -20 q 152 -14 167 -20 q 125 2 136 -9 q 106 31 113 13 q 100 74 100 49 m 100 669 q 106 714 100 696 q 125 743 113 732 q 152 759 136 754 q 186 764 167 764 q 219 759 203 764 q 246 743 235 754 q 265 714 258 732 q 272 669 272 696 q 265 626 272 644 q 246 597 258 609 q 219 580 235 585 q 186 575 203 575 q 152 580 167 575 q 125 597 136 585 q 106 626 113 609 q 100 669 100 644 "},"ś":{"x_min":61.15625,"x_max":564,"ha":627,"o":"m 564 203 q 544 108 564 149 q 487 40 524 68 q 398 0 450 13 q 281 -14 346 -14 q 154 -2 207 -14 q 61 33 101 9 l 61 146 q 107 125 82 135 q 161 106 133 114 q 219 93 189 98 q 279 88 249 88 q 353 95 323 88 q 403 116 384 103 q 431 150 423 130 q 440 194 440 170 q 433 232 440 215 q 409 265 427 249 q 360 299 391 282 q 280 337 329 316 q 193 378 232 358 q 127 424 154 399 q 86 482 100 449 q 72 560 72 515 q 90 645 72 608 q 143 707 109 682 q 224 745 177 732 q 330 758 272 758 q 451 743 396 758 q 554 706 505 729 l 512 606 q 422 641 468 626 q 329 655 376 655 q 228 632 261 655 q 195 568 195 610 q 203 526 195 544 q 229 493 210 509 q 279 461 248 477 q 358 426 311 445 q 444 385 406 405 q 509 339 482 365 q 549 281 535 314 q 564 203 564 249 m 242 860 q 272 905 256 879 q 304 958 288 931 q 335 1013 320 986 q 360 1064 349 1040 l 509 1064 l 509 1049 q 476 1004 498 1031 q 429 946 455 976 q 375 889 403 917 q 324 842 347 860 l 242 842 l 242 860 "}," ":{"x_min":0,"x_max":0,"ha":361},"У":{"x_min":16.75,"x_max":813.25,"ha":813,"o":"m 813 992 l 522 289 q 468 172 496 227 q 402 75 440 116 q 311 10 364 34 q 183 -14 258 -14 q 117 -8 148 -14 q 62 6 87 -3 l 62 131 q 117 106 87 116 q 183 97 147 97 q 246 105 219 97 q 297 130 274 112 q 338 178 319 149 q 376 250 357 207 l 16 992 l 155 992 l 415 440 q 422 425 418 433 q 428 408 425 417 q 434 391 431 399 q 440 377 437 383 l 441 377 q 447 394 443 383 q 455 416 451 404 q 462 437 458 427 q 468 451 466 447 l 679 992 l 813 992 "},"¾":{"x_min":21,"x_max":1008.765625,"ha":1023,"o":"m 400 852 q 372 764 400 800 q 298 712 345 729 q 388 660 358 697 q 418 571 418 624 q 404 496 418 530 q 362 437 390 461 q 291 399 334 413 q 190 386 249 386 q 101 394 143 386 q 21 423 59 402 l 21 514 q 110 481 64 493 q 192 469 155 469 q 290 497 260 469 q 321 575 321 525 q 283 648 321 625 q 179 671 246 671 l 111 671 l 111 745 l 179 745 q 273 771 244 745 q 303 839 303 797 q 296 876 303 860 q 277 901 289 891 q 248 915 264 911 q 213 920 232 920 q 138 907 172 920 q 69 870 105 894 l 22 935 q 62 963 41 951 q 106 985 83 976 q 155 998 129 993 q 210 1004 180 1004 q 293 992 257 1004 q 352 961 328 981 q 388 913 376 940 q 400 852 400 885 m 879 992 l 328 0 l 221 0 l 772 992 l 879 992 m 1008 133 l 923 133 l 923 0 l 827 0 l 827 133 l 572 133 l 572 208 l 828 599 l 923 599 l 923 217 l 1008 217 l 1008 133 m 827 217 l 827 368 q 828 439 827 400 q 831 515 829 477 q 820 492 827 507 q 806 462 813 478 q 790 430 798 445 q 775 403 782 414 l 668 217 l 827 217 "},"Ί":{"x_min":-17,"x_max":585.8125,"ha":642,"o":"m 585 0 l 226 0 l 226 69 l 343 96 l 343 895 l 226 922 l 226 992 l 585 992 l 585 922 l 469 895 l 469 96 l 585 69 l 585 0 m -17 789 q -3 835 -10 809 q 9 889 3 861 q 21 943 16 916 q 30 993 27 970 l 165 993 l 165 978 q 149 936 160 962 q 123 880 138 909 q 90 821 107 850 q 56 771 72 792 l -17 771 l -17 789 "},"ŉ":{"x_min":0,"x_max":804,"ha":916,"o":"m 680 0 l 680 479 q 644 611 680 567 q 533 655 609 655 q 440 637 478 655 q 380 585 403 620 q 348 501 358 551 q 338 385 338 450 l 338 0 l 215 0 l 215 745 l 315 745 l 333 644 l 339 644 q 380 694 356 673 q 431 730 403 715 q 490 751 459 744 q 554 758 521 758 q 741 693 678 758 q 804 486 804 628 l 804 0 l 680 0 m 203 992 l 212 977 q 189 898 202 939 q 160 815 176 857 q 127 731 144 772 q 92 652 109 690 l 0 652 q 22 737 10 692 q 44 827 33 782 q 63 913 54 871 q 78 992 72 956 l 203 992 "},"Ģ":{"x_min":85,"x_max":858,"ha":958,"o":"m 530 524 l 858 524 l 858 36 q 782 15 820 24 q 704 0 744 5 q 620 -10 664 -7 q 526 -14 576 -14 q 337 21 419 -14 q 199 123 255 57 q 114 284 143 189 q 85 497 85 378 q 117 708 85 613 q 211 868 149 802 q 363 970 272 934 q 569 1006 453 1006 q 713 991 644 1006 q 842 947 782 976 l 793 837 q 741 859 769 849 q 683 877 713 869 q 621 890 653 885 q 559 894 590 894 q 412 867 476 894 q 306 788 349 839 q 240 662 263 736 q 218 496 218 588 q 237 334 218 407 q 296 208 255 261 q 401 126 336 155 q 556 97 465 97 q 610 98 585 97 q 656 103 635 100 q 695 109 677 106 q 731 116 714 113 l 731 412 l 530 412 l 530 524 m 437 -288 q 453 -246 444 -271 q 470 -191 462 -220 q 484 -135 478 -163 q 493 -85 491 -107 l 616 -85 l 616 -98 q 601 -141 611 -115 q 575 -197 590 -167 q 541 -255 560 -226 q 503 -307 523 -284 l 437 -307 l 437 -288 "},"m":{"x_min":118,"x_max":1134,"ha":1245,"o":"m 1010 0 l 1010 479 q 976 611 1010 567 q 871 655 942 655 q 786 639 821 655 q 729 592 752 623 q 697 516 707 562 q 687 410 687 470 l 687 0 l 564 0 l 564 479 q 530 611 564 567 q 425 655 496 655 q 337 637 373 655 q 281 585 302 620 q 250 501 259 551 q 241 385 241 450 l 241 0 l 118 0 l 118 745 l 218 745 l 236 644 l 242 644 q 281 694 259 673 q 330 730 303 715 q 387 751 357 744 q 448 758 417 758 q 584 728 530 758 q 663 634 637 698 l 669 634 q 711 689 686 666 q 765 727 736 712 q 828 750 795 743 q 894 758 860 758 q 1073 693 1013 758 q 1134 486 1134 628 l 1134 0 l 1010 0 "},"Е":{"x_min":135,"x_max":650,"ha":733,"o":"m 650 0 l 135 0 l 135 992 l 650 992 l 650 880 l 261 880 l 261 574 l 624 574 l 624 462 l 261 462 l 261 111 l 650 111 l 650 0 "},"ž":{"x_min":56,"x_max":556.21875,"ha":612,"o":"m 556 0 l 56 0 l 56 80 l 418 656 l 78 656 l 78 745 l 544 745 l 544 650 l 189 88 l 556 88 l 556 0 m 542 1045 q 501 1000 525 1026 q 455 947 478 974 q 412 892 432 919 q 382 842 392 865 l 251 842 q 221 892 241 865 q 178 947 201 919 q 132 1000 155 974 q 92 1045 109 1026 l 92 1064 l 174 1064 q 244 1008 208 1041 q 317 937 280 975 q 388 1008 352 975 q 460 1064 425 1041 l 542 1064 l 542 1045 "},"á":{"x_min":64,"x_max":626,"ha":737,"o":"m 536 0 l 511 102 l 505 102 q 461 50 483 72 q 412 13 439 28 q 353 -7 386 0 q 278 -14 321 -14 q 193 0 232 -14 q 125 40 153 12 q 80 109 96 67 q 64 208 64 151 q 142 379 64 320 q 379 445 220 439 l 503 450 l 503 496 q 494 572 503 541 q 465 620 484 602 q 419 647 447 639 q 357 655 392 655 q 253 639 301 655 q 160 599 204 623 l 117 692 q 228 739 167 720 q 357 758 290 758 q 477 744 427 758 q 560 700 527 730 q 609 623 593 669 q 626 509 626 576 l 626 0 l 536 0 m 310 88 q 386 101 351 88 q 447 140 422 114 q 488 205 473 166 q 502 298 502 245 l 502 365 l 405 360 q 303 346 345 357 q 237 316 262 336 q 202 270 213 297 q 191 208 191 243 q 224 117 191 146 q 310 88 257 88 m 302 860 q 332 905 316 879 q 364 958 348 931 q 395 1013 380 986 q 420 1064 409 1040 l 569 1064 l 569 1049 q 536 1004 558 1031 q 489 946 515 976 q 435 889 463 917 q 384 842 407 860 l 302 842 l 302 860 "},"×":{"x_min":95.28125,"x_max":670.421875,"ha":765,"o":"m 310 490 l 95 706 l 166 778 l 381 562 l 599 778 l 670 708 l 452 490 l 669 273 l 599 204 l 381 419 l 166 205 l 96 275 l 310 490 "},"п":{"x_min":118,"x_max":706,"ha":825,"o":"m 241 0 l 118 0 l 118 745 l 706 745 l 706 0 l 582 0 l 582 642 l 241 642 l 241 0 "},"Ǻ":{"x_min":-0.25,"x_max":844.25,"ha":844,"o":"m 575 974 q 554 894 575 926 q 499 844 534 861 l 844 0 l 715 0 l 610 266 l 233 266 l 127 0 l 0 0 l 341 843 q 287 892 307 860 q 268 972 268 925 q 278 1034 268 1007 q 309 1080 289 1061 q 357 1109 329 1099 q 419 1119 385 1119 q 480 1109 452 1119 q 530 1080 509 1099 q 563 1035 551 1061 q 575 974 575 1008 m 566 378 l 466 636 q 456 662 462 647 q 444 696 450 678 q 432 734 438 714 q 421 773 426 754 q 410 734 416 754 q 397 695 404 714 q 386 662 391 677 q 376 636 380 646 l 277 378 l 566 378 m 368 1166 q 398 1203 382 1182 q 430 1246 414 1224 q 460 1290 446 1268 q 486 1331 475 1311 l 635 1331 l 635 1320 q 602 1283 624 1305 q 555 1236 581 1261 q 501 1190 528 1212 q 450 1153 473 1167 l 368 1153 l 368 1166 m 500 973 q 478 1029 500 1008 q 421 1049 456 1049 q 364 1029 386 1049 q 342 973 342 1008 q 360 918 342 938 q 412 896 378 898 l 421 896 q 478 916 456 896 q 500 973 500 937 "},"K":{"x_min":135,"x_max":804.25,"ha":804,"o":"m 804 0 l 661 0 l 355 473 l 261 396 l 261 0 l 135 0 l 135 992 l 261 992 l 261 496 l 343 609 l 649 992 l 791 992 l 438 559 l 804 0 "},"7":{"x_min":61,"x_max":699,"ha":765,"o":"m 190 0 l 572 879 l 61 879 l 61 992 l 699 992 l 699 893 l 322 0 l 190 0 "},"¨":{"x_min":208,"x_max":593,"ha":802,"o":"m 208 945 q 226 998 208 982 q 273 1015 245 1015 q 319 998 299 1015 q 338 945 338 981 q 319 892 338 909 q 273 876 299 876 q 226 892 245 876 q 208 945 208 909 m 462 945 q 481 998 462 982 q 527 1015 500 1015 q 552 1010 540 1015 q 573 998 564 1006 q 587 977 582 989 q 593 945 593 964 q 573 892 593 909 q 527 876 553 876 q 481 892 500 876 q 462 945 462 909 "},"Y":{"x_min":-0.25,"x_max":731.25,"ha":732,"o":"m 364 490 l 595 992 l 731 992 l 428 386 l 428 0 l 302 0 l 302 379 l 0 992 l 137 992 l 364 490 "},"E":{"x_min":135,"x_max":650,"ha":733,"o":"m 650 0 l 135 0 l 135 992 l 650 992 l 650 880 l 261 880 l 261 574 l 624 574 l 624 462 l 261 462 l 261 111 l 650 111 l 650 0 "},"Ô":{"x_min":85,"x_max":945,"ha":1031,"o":"m 945 496 q 917 287 945 382 q 835 126 890 193 q 701 22 781 59 q 515 -14 620 -14 q 324 22 405 -14 q 189 126 243 59 q 110 288 136 193 q 85 498 85 382 q 110 707 85 613 q 190 867 136 801 q 325 970 243 934 q 517 1007 406 1007 q 701 970 622 1007 q 835 867 781 934 q 917 706 890 800 q 945 496 945 612 m 218 497 q 236 330 218 404 q 290 204 253 255 q 382 124 326 152 q 515 97 438 97 q 648 124 593 97 q 741 204 704 152 q 794 330 777 255 q 811 497 811 404 q 794 664 811 590 q 741 789 777 738 q 649 868 705 840 q 517 895 594 895 q 383 868 439 895 q 290 789 327 840 q 236 664 253 738 q 218 497 218 590 m 744 1071 l 662 1071 q 590 1126 627 1093 q 519 1196 554 1159 q 446 1126 482 1159 q 376 1071 410 1093 l 294 1071 l 294 1089 q 334 1134 311 1108 q 380 1187 357 1160 q 423 1242 403 1215 q 453 1293 443 1269 l 584 1293 q 614 1242 594 1269 q 657 1187 634 1215 q 703 1134 680 1160 q 744 1089 727 1108 l 744 1071 "},"Є":{"x_min":85,"x_max":798,"ha":838,"o":"m 538 894 q 419 872 473 894 q 324 809 365 850 q 257 708 283 767 q 222 574 231 649 l 649 574 l 649 462 l 218 462 q 243 307 222 374 q 305 192 265 239 q 403 121 345 145 q 538 97 461 97 q 652 108 598 97 q 760 135 707 120 l 760 26 q 707 8 733 15 q 651 -4 680 0 q 590 -11 622 -9 q 517 -14 557 -14 q 324 22 405 -14 q 189 126 243 59 q 110 288 136 193 q 85 497 85 382 q 114 703 85 609 q 201 864 144 796 q 343 968 258 931 q 538 1006 428 1006 q 677 991 611 1006 q 798 947 744 976 l 745 841 q 652 879 702 863 q 538 894 601 894 "},"Ï":{"x_min":43,"x_max":428,"ha":471,"o":"m 414 0 l 55 0 l 55 69 l 172 96 l 172 895 l 55 922 l 55 992 l 414 992 l 414 922 l 298 895 l 298 96 l 414 69 l 414 0 m 43 1174 q 61 1227 43 1211 q 108 1244 80 1244 q 154 1227 134 1244 q 173 1174 173 1210 q 154 1121 173 1138 q 108 1105 134 1105 q 61 1121 80 1105 q 43 1174 43 1138 m 297 1174 q 316 1227 297 1211 q 362 1244 335 1244 q 387 1239 375 1244 q 408 1227 399 1235 q 422 1206 417 1218 q 428 1174 428 1193 q 408 1121 428 1138 q 362 1105 388 1105 q 316 1121 335 1105 q 297 1174 297 1138 "},"ġ":{"x_min":25,"x_max":692.484375,"ha":720,"o":"m 692 745 l 692 668 l 559 649 q 591 588 578 625 q 604 504 604 551 q 588 409 604 453 q 539 333 572 365 q 459 283 507 301 q 348 266 412 266 q 319 266 333 266 q 294 268 304 266 q 271 253 282 261 q 251 233 260 244 q 236 208 242 222 q 230 178 230 194 q 238 148 230 159 q 260 130 246 136 q 293 122 274 124 q 333 120 312 120 l 453 120 q 560 104 516 120 q 631 61 603 88 q 670 -2 658 34 q 683 -80 683 -38 q 660 -186 683 -139 q 593 -266 638 -233 q 478 -316 547 -298 q 314 -334 408 -334 q 187 -319 241 -334 q 96 -278 132 -305 q 42 -213 60 -251 q 25 -128 25 -175 q 38 -57 25 -87 q 73 -4 51 -26 q 125 32 96 17 q 187 53 155 46 q 140 94 158 66 q 122 159 122 122 q 143 231 122 201 q 212 291 165 262 q 158 324 182 303 q 118 373 134 346 q 92 433 101 401 q 83 500 83 466 q 99 608 83 561 q 150 689 116 656 q 233 740 183 722 q 348 758 282 758 q 400 754 373 758 q 445 745 427 750 l 692 745 m 141 -126 q 150 -173 141 -151 q 179 -211 159 -195 q 232 -235 199 -226 q 314 -245 265 -245 q 503 -205 440 -245 q 566 -92 566 -166 q 558 -41 566 -61 q 531 -10 550 -21 q 482 4 512 0 q 407 8 451 8 l 287 8 q 238 3 263 8 q 190 -17 212 -2 q 155 -58 169 -32 q 141 -126 141 -84 m 206 504 q 242 388 206 426 q 344 350 278 350 q 446 388 411 350 q 480 506 480 426 q 445 629 480 590 q 343 669 410 669 q 241 628 277 669 q 206 504 206 587 m 273 945 q 293 1004 273 986 q 344 1023 314 1023 q 373 1018 359 1023 q 396 1004 386 1014 q 411 980 405 995 q 417 945 417 966 q 396 887 417 906 q 344 868 374 868 q 293 886 314 868 q 273 945 273 905 "},"έ":{"x_min":61,"x_max":583,"ha":629,"o":"m 453 439 l 453 336 l 366 336 q 229 305 273 336 q 184 210 184 274 q 198 152 184 176 q 235 114 212 129 q 291 94 259 100 q 360 88 323 88 q 426 93 395 88 q 484 106 457 98 q 535 125 511 114 q 580 146 559 135 l 580 37 q 486 0 540 14 q 359 -14 433 -14 q 226 2 282 -14 q 133 48 170 19 q 78 117 96 77 q 61 203 61 157 q 73 275 61 245 q 108 326 86 305 q 157 361 129 347 q 215 385 185 375 l 215 392 q 162 416 185 402 q 121 452 138 431 q 94 500 103 473 q 85 561 85 527 q 104 645 85 608 q 159 707 124 682 q 244 745 195 732 q 351 758 293 758 q 417 754 387 758 q 475 745 448 751 q 529 729 503 739 q 583 706 555 720 l 540 606 q 445 642 489 629 q 353 655 401 655 q 240 629 279 655 q 201 551 201 603 q 214 499 201 520 q 252 464 228 477 q 311 445 277 451 q 386 439 345 439 l 453 439 m 305 860 q 318 906 311 880 q 331 960 325 932 q 343 1014 338 987 q 352 1064 349 1041 l 487 1064 l 487 1049 q 471 1007 482 1033 q 445 951 460 980 q 412 892 429 921 q 378 842 394 863 l 305 842 l 305 860 "}," ":{"x_min":0,"x_max":0,"ha":463},"ϋ":{"x_min":111,"x_max":736,"ha":819,"o":"m 409 -14 q 264 13 322 -14 q 172 87 206 40 q 124 199 138 135 q 111 337 111 263 l 111 745 l 234 745 l 234 345 q 245 239 234 286 q 278 158 256 192 q 335 106 300 125 q 417 88 370 88 q 564 167 516 88 q 612 412 612 245 q 609 503 612 461 q 601 585 606 545 q 587 664 595 625 q 569 745 580 703 l 693 745 q 711 664 703 703 q 725 585 719 626 q 733 501 730 545 q 736 406 736 457 q 653 88 736 190 q 409 -14 570 -14 m 208 945 q 226 998 208 982 q 273 1015 245 1015 q 319 998 299 1015 q 338 945 338 981 q 319 892 338 909 q 273 876 299 876 q 226 892 245 876 q 208 945 208 909 m 462 945 q 481 998 462 982 q 527 1015 500 1015 q 552 1010 540 1015 q 573 998 564 1006 q 587 977 582 989 q 593 945 593 964 q 573 892 593 909 q 527 876 553 876 q 481 892 500 876 q 462 945 462 909 "},"й":{"x_min":118,"x_max":735,"ha":853,"o":"m 234 745 l 234 291 l 226 120 l 576 745 l 735 745 l 735 0 l 618 0 l 618 439 l 625 622 l 276 0 l 118 0 l 118 745 l 234 745 m 686 1058 q 665 964 681 1005 q 617 897 648 924 q 537 855 585 869 q 421 842 489 842 q 304 855 352 842 q 227 895 256 868 q 183 963 197 922 q 166 1058 169 1003 l 281 1058 q 293 990 284 1016 q 320 949 303 964 q 362 929 337 934 q 424 923 388 923 q 479 930 454 923 q 522 952 504 937 q 552 993 540 968 q 567 1058 563 1019 l 686 1058 "},"b":{"x_min":118,"x_max":737,"ha":814,"o":"m 454 758 q 570 733 518 758 q 659 660 622 709 q 716 540 696 612 q 737 373 737 468 q 716 205 737 277 q 659 84 696 133 q 570 10 622 35 q 454 -14 518 -14 q 381 -5 414 -14 q 323 18 349 3 q 277 52 297 32 q 241 93 257 72 l 233 93 l 208 0 l 118 0 l 118 1055 l 241 1055 l 241 800 q 240 749 241 776 q 238 699 240 722 q 236 646 237 672 l 241 646 q 276 690 257 670 q 322 726 296 711 q 381 749 348 741 q 454 758 413 758 m 430 655 q 340 638 376 655 q 281 585 303 621 q 250 497 259 550 q 241 373 241 444 q 250 251 241 304 q 281 162 259 198 q 340 107 303 125 q 431 88 377 88 q 566 162 523 88 q 609 374 609 236 q 566 585 609 515 q 430 655 523 655 "},"ύ":{"x_min":111,"x_max":736,"ha":819,"o":"m 409 -14 q 264 13 322 -14 q 172 87 206 40 q 124 199 138 135 q 111 337 111 263 l 111 745 l 234 745 l 234 345 q 245 239 234 286 q 278 158 256 192 q 335 106 300 125 q 417 88 370 88 q 564 167 516 88 q 612 412 612 245 q 609 503 612 461 q 601 585 606 545 q 587 664 595 625 q 569 745 580 703 l 693 745 q 711 664 703 703 q 725 585 719 626 q 733 501 730 545 q 736 406 736 457 q 653 88 736 190 q 409 -14 570 -14 m 352 860 q 365 906 358 880 q 378 960 372 932 q 390 1014 385 987 q 399 1064 396 1041 l 534 1064 l 534 1049 q 518 1007 529 1033 q 492 951 507 980 q 459 892 476 921 q 425 842 441 863 l 352 842 l 352 860 "},"ﬂ":{"x_min":19,"x_max":698.4375,"ha":817,"o":"m 441 656 l 274 656 l 274 0 l 151 0 l 151 656 l 19 656 l 19 704 l 151 749 l 151 814 q 166 934 151 886 q 210 1010 181 982 q 280 1051 238 1039 q 375 1063 322 1063 q 449 1055 415 1063 q 509 1037 482 1047 l 477 941 q 431 954 456 949 q 379 960 406 960 q 332 954 352 960 q 300 931 313 947 q 280 887 287 915 q 274 815 274 859 l 274 745 l 441 745 l 441 656 m 698 0 l 575 0 l 575 1055 l 698 1055 l 698 0 "},"ф":{"x_min":77,"x_max":892,"ha":968,"o":"m 545 756 q 685 719 621 747 q 794 641 749 690 q 866 525 840 593 q 892 373 892 458 q 868 221 892 289 q 799 104 844 153 q 689 25 753 54 q 545 -11 625 -3 l 545 -334 l 429 -334 l 429 -11 q 286 24 351 -4 q 175 103 221 54 q 102 220 128 151 q 77 373 77 288 q 101 526 77 458 q 170 642 125 593 q 281 719 215 690 q 429 756 346 748 l 429 1055 l 545 1055 l 545 756 m 204 373 q 257 175 204 246 q 429 91 310 104 l 429 653 q 326 626 369 647 q 256 571 284 606 q 217 486 229 536 q 204 373 204 437 m 764 373 q 712 569 764 500 q 545 652 660 638 l 545 91 q 712 175 661 104 q 764 373 764 246 "},"Ŋ":{"x_min":135,"x_max":878,"ha":1013,"o":"m 615 -264 q 554 -259 580 -264 q 510 -247 528 -255 l 510 -139 q 557 -149 532 -145 q 613 -152 583 -152 q 662 -146 637 -152 q 706 -122 686 -139 q 739 -76 726 -105 q 751 0 751 -46 l 253 821 l 248 821 q 255 717 252 768 q 259 624 257 673 q 261 538 261 576 l 261 0 l 135 0 l 135 992 l 288 992 l 757 202 l 762 202 q 757 291 759 246 q 753 371 755 329 q 751 449 751 413 l 751 992 l 878 992 l 878 13 q 859 -109 878 -57 q 806 -196 840 -162 q 724 -247 772 -230 q 615 -264 675 -264 "},"Ũ":{"x_min":125,"x_max":845,"ha":970,"o":"m 845 993 l 845 349 q 822 205 845 272 q 755 90 800 139 q 641 13 709 41 q 481 -14 573 -14 q 327 12 394 -14 q 216 86 261 38 q 148 202 171 134 q 125 352 125 269 l 125 991 l 251 991 l 251 346 q 309 162 251 227 q 487 97 368 97 q 591 115 548 97 q 663 167 635 133 q 704 246 690 200 q 718 347 718 292 l 718 993 l 845 993 m 585 1072 q 531 1083 558 1072 q 479 1110 505 1095 q 429 1136 453 1124 q 384 1148 405 1148 q 337 1130 353 1148 q 311 1070 321 1112 l 241 1070 q 255 1144 244 1111 q 284 1201 266 1177 q 327 1237 302 1224 q 384 1250 352 1250 q 440 1238 412 1250 q 493 1211 467 1226 q 542 1185 519 1197 q 585 1173 566 1173 q 631 1191 616 1173 q 657 1251 647 1209 l 729 1251 q 714 1177 725 1210 q 685 1121 703 1144 q 642 1084 667 1097 q 585 1072 617 1072 "},"Щ":{"x_min":135,"x_max":1369,"ha":1385,"o":"m 1250 111 l 1369 111 l 1369 -261 l 1242 -261 l 1242 0 l 135 0 l 135 992 l 261 992 l 261 111 l 629 111 l 629 992 l 755 992 l 755 111 l 1123 111 l 1123 992 l 1250 992 l 1250 111 "},"L":{"x_min":135,"x_max":649.4375,"ha":682,"o":"m 135 0 l 135 992 l 261 992 l 261 111 l 649 111 l 649 0 l 135 0 "},"ď":{"x_min":77,"x_max":924,"ha":814,"o":"m 577 99 l 572 99 q 537 55 557 76 q 491 19 517 34 q 432 -5 465 3 q 359 -14 400 -14 q 244 10 296 -14 q 154 83 192 34 q 97 203 117 131 q 77 370 77 275 q 97 538 77 466 q 154 659 117 610 q 244 733 192 708 q 359 758 296 758 q 432 749 399 758 q 490 725 464 740 q 537 690 516 710 q 572 649 557 671 l 580 649 q 576 693 578 672 q 573 729 575 711 q 572 759 572 748 l 572 1055 l 696 1055 l 696 0 l 596 0 l 577 99 m 383 88 q 470 104 434 88 q 528 151 506 119 q 560 231 550 183 q 572 342 571 279 l 572 370 q 563 492 572 439 q 532 581 554 545 q 473 636 510 618 q 382 655 437 655 q 247 581 290 655 q 204 369 204 507 q 247 157 204 227 q 383 88 290 88 m 760 850 q 772 897 766 871 q 784 950 778 923 q 794 1005 789 978 q 801 1055 799 1032 l 924 1055 l 924 1041 q 909 997 919 1024 q 885 942 898 971 q 855 883 871 913 q 825 833 840 854 l 760 833 l 760 850 "},"Ο":{"x_min":85,"x_max":945,"ha":1031,"o":"m 945 496 q 917 287 945 382 q 835 126 890 193 q 701 22 781 59 q 515 -14 620 -14 q 324 22 405 -14 q 189 126 243 59 q 110 288 136 193 q 85 498 85 382 q 110 707 85 613 q 190 867 136 801 q 325 970 243 934 q 517 1007 406 1007 q 701 970 622 1007 q 835 867 781 934 q 917 706 890 800 q 945 496 945 612 m 218 497 q 236 330 218 404 q 290 204 253 255 q 382 124 326 152 q 515 97 438 97 q 648 124 593 97 q 741 204 704 152 q 794 330 777 255 q 811 497 811 404 q 794 664 811 590 q 741 789 777 738 q 649 868 705 840 q 517 895 594 895 q 383 868 439 895 q 290 789 327 840 q 236 664 253 738 q 218 497 218 590 "},"Ĭ":{"x_min":33,"x_max":441,"ha":471,"o":"m 414 0 l 55 0 l 55 69 l 172 96 l 172 895 l 55 922 l 55 992 l 414 992 l 414 922 l 298 895 l 298 96 l 414 69 l 414 0 m 441 1259 q 423 1183 438 1217 q 382 1123 408 1149 q 319 1084 356 1098 q 234 1071 282 1071 q 147 1084 184 1071 q 86 1122 110 1097 q 48 1181 61 1147 q 33 1259 35 1216 l 107 1259 q 119 1212 110 1229 q 145 1186 129 1194 q 184 1175 161 1177 q 237 1172 207 1172 q 283 1175 261 1172 q 323 1188 305 1178 q 352 1214 340 1197 q 366 1259 363 1231 l 441 1259 "},"ŧ":{"x_min":23,"x_max":445,"ha":471,"o":"m 343 88 q 371 89 355 88 q 400 93 386 91 q 426 97 415 95 q 445 102 438 100 l 445 8 q 422 0 436 3 q 392 -7 409 -4 q 358 -12 376 -10 q 324 -14 341 -14 q 246 -3 282 -14 q 184 34 210 8 q 142 107 157 61 q 128 222 128 153 l 128 395 l 33 395 l 33 484 l 128 484 l 128 656 l 23 656 l 23 709 l 128 759 l 180 915 l 251 915 l 251 745 l 439 745 l 439 656 l 251 656 l 251 484 l 427 484 l 427 395 l 251 395 l 251 222 q 272 122 251 155 q 343 88 294 88 "},"À":{"x_min":-0.25,"x_max":844.25,"ha":844,"o":"m 715 0 l 606 307 l 237 307 l 127 0 l 0 0 l 364 996 l 479 996 l 844 0 l 715 0 m 566 419 l 466 706 q 456 736 462 719 q 444 774 450 754 q 432 817 438 795 q 421 860 426 839 q 410 816 416 839 q 397 773 404 794 q 386 735 391 752 q 376 706 380 718 l 277 419 l 566 419 m 488 1071 l 406 1071 q 354 1118 382 1089 q 300 1175 326 1146 q 253 1233 274 1205 q 221 1278 231 1260 l 221 1293 l 369 1293 q 395 1242 380 1269 q 425 1187 409 1215 q 457 1134 441 1160 q 488 1089 473 1108 l 488 1071 "},"Ϊ":{"x_min":43,"x_max":428,"ha":471,"o":"m 414 0 l 55 0 l 55 69 l 172 96 l 172 895 l 55 922 l 55 992 l 414 992 l 414 922 l 298 895 l 298 96 l 414 69 l 414 0 m 43 1174 q 61 1227 43 1211 q 108 1244 80 1244 q 154 1227 134 1244 q 173 1174 173 1210 q 154 1121 173 1138 q 108 1105 134 1105 q 61 1121 80 1105 q 43 1174 43 1138 m 297 1174 q 316 1227 297 1211 q 362 1244 335 1244 q 387 1239 375 1244 q 408 1227 399 1235 q 422 1206 417 1218 q 428 1174 428 1193 q 408 1121 428 1138 q 362 1105 388 1105 q 316 1121 335 1105 q 297 1174 297 1138 "},"ḁ":{"x_min":64,"x_max":626,"ha":737,"o":"m 536 0 l 511 102 l 505 102 q 461 50 483 72 q 412 13 439 28 q 353 -7 386 0 q 278 -14 321 -14 q 193 0 232 -14 q 125 40 153 12 q 80 109 96 67 q 64 208 64 151 q 142 379 64 320 q 379 445 220 439 l 503 450 l 503 496 q 494 572 503 541 q 465 620 484 602 q 419 647 447 639 q 357 655 392 655 q 253 639 301 655 q 160 599 204 623 l 117 692 q 228 739 167 720 q 357 758 290 758 q 477 744 427 758 q 560 700 527 730 q 609 623 593 669 q 626 509 626 576 l 626 0 l 536 0 m 310 88 q 386 101 351 88 q 447 140 422 114 q 488 205 473 166 q 502 298 502 245 l 502 365 l 405 360 q 303 346 345 357 q 237 316 262 336 q 202 270 213 297 q 191 208 191 243 q 224 117 191 146 q 310 88 257 88 m 512 -229 q 500 -291 512 -264 q 467 -338 488 -319 q 418 -367 446 -357 q 356 -377 389 -377 q 294 -367 322 -377 q 246 -338 266 -357 q 215 -292 226 -319 q 205 -231 205 -265 q 215 -169 205 -196 q 246 -123 226 -142 q 294 -94 266 -104 q 356 -85 322 -85 q 417 -94 389 -85 q 467 -123 446 -104 q 500 -168 488 -142 q 512 -229 512 -195 m 437 -231 q 415 -174 437 -194 q 358 -154 392 -154 q 301 -174 323 -154 q 279 -231 279 -194 q 299 -287 279 -267 q 358 -307 319 -307 q 415 -287 392 -307 q 437 -231 437 -267 "},"½":{"x_min":29,"x_max":976.734375,"ha":1023,"o":"m 194 992 l 284 992 l 284 397 l 188 397 l 188 754 q 188 792 188 771 q 189 833 188 813 q 191 873 190 854 q 193 908 192 893 q 171 881 183 895 q 143 853 158 866 l 79 799 l 29 864 l 194 992 m 801 992 l 250 0 l 143 0 l 694 992 l 801 992 m 976 0 l 588 0 l 588 75 l 730 230 q 793 300 769 272 q 832 352 818 329 q 850 394 845 374 q 856 437 856 414 q 833 502 856 481 q 774 523 810 523 q 707 506 739 523 q 645 463 675 489 l 592 527 q 673 584 628 561 q 774 607 719 607 q 848 595 815 607 q 904 563 881 584 q 940 510 927 541 q 953 440 953 479 q 942 377 953 406 q 911 318 931 347 q 862 258 891 289 q 794 190 832 227 l 684 83 l 976 83 l 976 0 "},"'":{"x_min":90,"x_max":223.609375,"ha":314,"o":"m 223 992 l 195 634 l 117 634 l 90 992 l 223 992 "},"ĳ":{"x_min":108.5,"x_max":611.96875,"ha":720,"o":"m 241 0 l 118 0 l 118 745 l 241 745 l 241 0 m 108 945 q 129 1004 108 986 q 180 1023 149 1023 q 208 1018 195 1023 q 231 1004 221 1014 q 247 980 241 995 q 252 945 252 966 q 231 887 252 906 q 180 868 210 868 q 129 886 149 868 q 108 945 108 905 m 403 -334 q 349 -329 371 -334 q 313 -317 328 -324 l 313 -217 q 348 -227 330 -224 q 390 -231 367 -231 q 424 -226 409 -231 q 452 -208 440 -221 q 470 -172 464 -194 q 477 -116 477 -150 l 477 745 l 600 745 l 600 -107 q 588 -201 600 -159 q 552 -272 577 -243 q 491 -318 528 -302 q 403 -334 454 -334 m 467 945 q 488 1004 467 986 q 539 1023 508 1023 q 567 1018 554 1023 q 590 1004 580 1014 q 606 980 600 995 q 611 945 611 966 q 590 887 611 906 q 539 868 569 868 q 488 886 508 868 q 467 945 467 905 "},"Р":{"x_min":135,"x_max":729,"ha":800,"o":"m 729 701 q 710 582 729 639 q 648 482 691 525 q 536 412 606 438 q 362 386 465 386 l 261 386 l 261 0 l 135 0 l 135 992 l 380 992 q 537 972 471 992 q 645 916 602 953 q 708 825 688 879 q 729 701 729 770 m 261 493 l 347 493 q 456 504 410 493 q 533 539 503 515 q 579 601 564 563 q 595 695 595 640 q 540 837 595 791 q 368 884 485 884 l 261 884 l 261 493 "},"˛":{"x_min":21,"x_max":237,"ha":257,"o":"m 118 -161 q 136 -206 118 -191 q 178 -220 154 -220 q 211 -218 195 -220 q 237 -214 227 -217 l 237 -291 q 197 -299 219 -296 q 156 -302 176 -302 q 54 -266 88 -302 q 21 -170 21 -231 q 30 -116 21 -142 q 56 -69 40 -91 q 89 -30 71 -48 q 125 0 108 -12 l 212 0 q 118 -161 118 -90 "},"Ć":{"x_min":85,"x_max":798,"ha":838,"o":"m 538 894 q 406 867 465 894 q 305 788 347 839 q 241 662 264 736 q 218 496 218 588 q 238 326 218 400 q 298 200 258 251 q 398 123 338 150 q 538 97 458 97 q 652 108 598 97 q 760 135 707 120 l 760 26 q 707 8 733 15 q 651 -4 680 0 q 590 -11 622 -9 q 517 -14 557 -14 q 324 22 405 -14 q 189 126 243 59 q 110 288 136 193 q 85 497 85 382 q 114 703 85 609 q 201 864 144 796 q 343 968 258 931 q 538 1006 428 1006 q 677 991 611 1006 q 798 947 744 976 l 745 841 q 652 879 702 863 q 538 894 601 894 m 447 1089 q 477 1134 461 1108 q 509 1187 493 1160 q 540 1242 525 1215 q 565 1293 554 1269 l 714 1293 l 714 1278 q 681 1233 703 1260 q 634 1175 660 1205 q 580 1118 608 1146 q 529 1071 552 1089 l 447 1071 l 447 1089 "},"Т":{"x_min":14,"x_max":706,"ha":721,"o":"m 423 0 l 297 0 l 297 880 l 14 880 l 14 992 l 706 992 l 706 880 l 423 880 l 423 0 "},"£":{"x_min":46,"x_max":718,"ha":765,"o":"m 451 1004 q 582 988 523 1004 q 686 948 641 972 l 641 850 q 556 884 603 869 q 457 898 508 898 q 397 889 425 898 q 349 860 370 880 q 318 809 329 840 q 307 732 307 777 l 307 534 l 561 534 l 561 437 l 307 437 l 307 295 q 299 224 307 254 q 278 173 291 194 q 248 137 265 152 q 212 112 230 123 l 718 112 l 718 0 l 46 0 l 46 103 q 100 124 75 110 q 143 161 125 138 q 171 216 161 183 q 182 294 182 249 l 182 437 l 47 437 l 47 534 l 182 534 l 182 753 q 201 859 182 812 q 257 937 221 905 q 342 987 293 970 q 451 1004 392 1004 "},"ů":{"x_min":111,"x_max":700,"ha":818,"o":"m 600 0 l 582 99 l 575 99 q 534 48 558 70 q 483 13 511 27 q 424 -7 455 0 q 360 -14 393 -14 q 252 1 299 -14 q 174 50 205 17 q 126 135 142 83 q 111 258 111 186 l 111 745 l 234 745 l 234 264 q 270 132 234 176 q 381 88 306 88 q 474 106 436 88 q 534 158 511 123 q 566 242 556 192 q 576 357 576 292 l 576 745 l 700 745 l 700 0 l 600 0 m 563 989 q 551 927 563 954 q 518 880 539 899 q 469 851 497 861 q 407 842 440 842 q 345 851 373 842 q 297 880 317 861 q 266 926 277 899 q 256 988 256 953 q 266 1049 256 1022 q 297 1095 277 1076 q 345 1124 317 1114 q 407 1134 373 1134 q 468 1124 440 1134 q 518 1095 497 1114 q 551 1050 539 1076 q 563 989 563 1023 m 488 988 q 466 1044 488 1024 q 409 1064 444 1064 q 352 1044 374 1064 q 330 988 330 1024 q 350 931 330 951 q 409 911 370 911 q 466 931 444 911 q 488 988 488 951 "},"Ō":{"x_min":85,"x_max":945,"ha":1031,"o":"m 945 496 q 917 287 945 382 q 835 126 890 193 q 701 22 781 59 q 515 -14 620 -14 q 324 22 405 -14 q 189 126 243 59 q 110 288 136 193 q 85 498 85 382 q 110 707 85 613 q 190 867 136 801 q 325 970 243 934 q 517 1007 406 1007 q 701 970 622 1007 q 835 867 781 934 q 917 706 890 800 q 945 496 945 612 m 218 497 q 236 330 218 404 q 290 204 253 255 q 382 124 326 152 q 515 97 438 97 q 648 124 593 97 q 741 204 704 152 q 794 330 777 255 q 811 497 811 404 q 794 664 811 590 q 741 789 777 738 q 649 868 705 840 q 517 895 594 895 q 383 868 439 895 q 290 789 327 840 q 236 664 253 738 q 218 497 218 590 m 320 1172 l 710 1172 l 710 1071 l 320 1071 l 320 1172 "},"а":{"x_min":64,"x_max":626,"ha":737,"o":"m 536 0 l 511 102 l 505 102 q 461 50 483 72 q 412 13 439 28 q 353 -7 386 0 q 278 -14 321 -14 q 193 0 232 -14 q 125 40 153 12 q 80 109 96 67 q 64 208 64 151 q 142 379 64 320 q 379 445 220 439 l 503 450 l 503 496 q 494 572 503 541 q 465 620 484 602 q 419 647 447 639 q 357 655 392 655 q 253 639 301 655 q 160 599 204 623 l 117 692 q 228 739 167 720 q 357 758 290 758 q 477 744 427 758 q 560 700 527 730 q 609 623 593 669 q 626 509 626 576 l 626 0 l 536 0 m 310 88 q 386 101 351 88 q 447 140 422 114 q 488 205 473 166 q 502 298 502 245 l 502 365 l 405 360 q 303 346 345 357 q 237 316 262 336 q 202 270 213 297 q 191 208 191 243 q 224 117 191 146 q 310 88 257 88 "},"Ğ":{"x_min":85,"x_max":858,"ha":958,"o":"m 530 524 l 858 524 l 858 36 q 782 15 820 24 q 704 0 744 5 q 620 -10 664 -7 q 526 -14 576 -14 q 337 21 419 -14 q 199 123 255 57 q 114 284 143 189 q 85 497 85 378 q 117 708 85 613 q 211 868 149 802 q 363 970 272 934 q 569 1006 453 1006 q 713 991 644 1006 q 842 947 782 976 l 793 837 q 741 859 769 849 q 683 877 713 869 q 621 890 653 885 q 559 894 590 894 q 412 867 476 894 q 306 788 349 839 q 240 662 263 736 q 218 496 218 588 q 237 334 218 407 q 296 208 255 261 q 401 126 336 155 q 556 97 465 97 q 610 98 585 97 q 656 103 635 100 q 695 109 677 106 q 731 116 714 113 l 731 412 l 530 412 l 530 524 m 740 1259 q 722 1183 737 1217 q 681 1123 707 1149 q 618 1084 655 1098 q 533 1071 581 1071 q 446 1084 483 1071 q 385 1122 409 1097 q 347 1181 360 1147 q 332 1259 334 1216 l 406 1259 q 418 1212 409 1229 q 444 1186 428 1194 q 483 1175 460 1177 q 536 1172 506 1172 q 582 1175 560 1172 q 622 1188 604 1178 q 651 1214 639 1197 q 665 1259 662 1231 l 740 1259 "},"v":{"x_min":-0.25,"x_max":665.25,"ha":665,"o":"m 254 0 l 0 745 l 127 745 l 262 330 q 280 272 269 308 q 300 200 290 237 q 319 131 310 164 q 330 82 327 99 l 335 82 q 346 131 338 99 q 364 200 354 164 q 385 272 375 237 q 402 330 395 308 l 537 745 l 665 745 l 410 0 l 254 0 "},"Ї":{"x_min":43,"x_max":428,"ha":471,"o":"m 414 0 l 55 0 l 55 69 l 172 96 l 172 895 l 55 922 l 55 992 l 414 992 l 414 922 l 298 895 l 298 96 l 414 69 l 414 0 m 43 1174 q 61 1227 43 1211 q 108 1244 80 1244 q 154 1227 134 1244 q 173 1174 173 1210 q 154 1121 173 1138 q 108 1105 134 1105 q 61 1121 80 1105 q 43 1174 43 1138 m 297 1174 q 316 1227 297 1211 q 362 1244 335 1244 q 387 1239 375 1244 q 408 1227 399 1235 q 422 1206 417 1218 q 428 1174 428 1193 q 408 1121 428 1138 q 362 1105 388 1105 q 316 1121 335 1105 q 297 1174 297 1138 "},"û":{"x_min":111,"x_max":700,"ha":818,"o":"m 600 0 l 582 99 l 575 99 q 534 48 558 70 q 483 13 511 27 q 424 -7 455 0 q 360 -14 393 -14 q 252 1 299 -14 q 174 50 205 17 q 126 135 142 83 q 111 258 111 186 l 111 745 l 234 745 l 234 264 q 270 132 234 176 q 381 88 306 88 q 474 106 436 88 q 534 158 511 123 q 566 242 556 192 q 576 357 576 292 l 576 745 l 700 745 l 700 0 l 600 0 m 631 842 l 549 842 q 477 897 514 864 q 406 967 441 930 q 333 897 369 930 q 263 842 297 864 l 181 842 l 181 860 q 221 905 198 879 q 267 958 244 931 q 310 1013 290 986 q 340 1064 330 1040 l 471 1064 q 501 1013 481 1040 q 544 958 521 986 q 590 905 567 931 q 631 860 614 879 l 631 842 "},"Ź":{"x_min":56,"x_max":693,"ha":749,"o":"m 693 0 l 56 0 l 56 97 l 537 880 l 70 880 l 70 992 l 679 992 l 679 894 l 197 111 l 693 111 l 693 0 m 305 1089 q 335 1134 319 1108 q 367 1187 351 1160 q 398 1242 383 1215 q 423 1293 412 1269 l 572 1293 l 572 1278 q 539 1233 561 1260 q 492 1175 518 1205 q 438 1118 466 1146 q 387 1071 410 1089 l 305 1071 l 305 1089 "},"ˉ":{"x_min":192,"x_max":582,"ha":774,"o":"m 192 943 l 582 943 l 582 842 l 192 842 l 192 943 "},"Ĺ":{"x_min":135,"x_max":649.4375,"ha":682,"o":"m 135 0 l 135 992 l 261 992 l 261 111 l 649 111 l 649 0 l 135 0 m 161 1089 q 191 1134 175 1108 q 223 1187 207 1160 q 254 1242 239 1215 q 279 1293 268 1269 l 428 1293 l 428 1278 q 395 1233 417 1260 q 348 1175 374 1205 q 294 1118 322 1146 q 243 1071 266 1089 l 161 1071 l 161 1089 "},"₤":{"x_min":46,"x_max":718,"ha":765,"o":"m 451 1004 q 582 988 523 1004 q 686 948 641 972 l 641 850 q 556 884 603 869 q 457 898 508 898 q 397 889 425 898 q 349 860 370 880 q 318 809 329 840 q 307 733 307 777 l 307 604 l 561 604 l 561 507 l 307 507 l 307 404 l 561 404 l 561 307 l 307 307 l 307 294 q 299 223 307 253 q 278 172 291 194 q 248 137 265 151 q 212 112 230 123 l 718 112 l 718 0 l 46 0 l 46 104 q 100 125 75 111 q 143 161 125 138 q 171 216 161 184 q 182 293 182 248 l 182 307 l 47 307 l 47 404 l 182 404 l 182 507 l 47 507 l 47 604 l 182 604 l 182 753 q 201 859 182 812 q 257 937 221 905 q 342 987 293 970 q 451 1004 392 1004 "},"Č":{"x_min":85,"x_max":798,"ha":838,"o":"m 538 894 q 406 867 465 894 q 305 788 347 839 q 241 662 264 736 q 218 496 218 588 q 238 326 218 400 q 298 200 258 251 q 398 123 338 150 q 538 97 458 97 q 652 108 598 97 q 760 135 707 120 l 760 26 q 707 8 733 15 q 651 -4 680 0 q 590 -11 622 -9 q 517 -14 557 -14 q 324 22 405 -14 q 189 126 243 59 q 110 288 136 193 q 85 497 85 382 q 114 703 85 609 q 201 864 144 796 q 343 968 258 931 q 538 1006 428 1006 q 677 991 611 1006 q 798 947 744 976 l 745 841 q 652 879 702 863 q 538 894 601 894 m 739 1274 q 698 1229 722 1255 q 652 1176 675 1203 q 609 1121 629 1148 q 579 1071 589 1094 l 448 1071 q 418 1121 438 1094 q 375 1176 398 1148 q 329 1229 352 1203 q 289 1274 306 1255 l 289 1293 l 371 1293 q 441 1237 405 1270 q 514 1166 477 1204 q 585 1237 549 1204 q 657 1293 622 1270 l 739 1293 l 739 1274 "},"x":{"x_min":24,"x_max":670,"ha":695,"o":"m 276 382 l 38 745 l 178 745 l 347 466 l 517 745 l 658 745 l 416 382 l 670 0 l 529 0 l 347 295 l 164 0 l 24 0 l 276 382 "},"è":{"x_min":77,"x_max":673,"ha":743,"o":"m 412 -14 q 276 11 337 -14 q 170 84 214 36 q 101 203 125 132 q 77 366 77 274 q 99 531 77 458 q 162 654 121 604 q 259 731 202 705 q 384 758 316 758 q 505 733 451 758 q 595 665 558 709 q 653 560 633 621 q 673 423 673 498 l 673 346 l 204 346 q 259 155 207 216 q 413 93 311 93 q 477 97 448 93 q 534 107 507 100 q 587 123 561 113 q 639 145 613 133 l 639 35 q 586 13 612 22 q 533 -2 560 3 q 476 -11 505 -8 q 412 -14 446 -14 m 384 655 q 260 602 306 655 q 207 449 214 549 l 545 449 q 536 533 545 495 q 507 598 526 571 q 457 640 487 625 q 384 655 427 655 m 461 842 l 379 842 q 327 889 355 860 q 273 946 299 917 q 226 1004 247 976 q 194 1049 204 1031 l 194 1064 l 342 1064 q 368 1013 353 1040 q 398 958 382 986 q 430 905 414 931 q 461 860 446 879 l 461 842 "},"Ń":{"x_min":135,"x_max":878,"ha":1013,"o":"m 878 0 l 724 0 l 253 821 l 248 821 q 255 717 252 768 q 259 624 257 673 q 261 538 261 576 l 261 0 l 135 0 l 135 992 l 288 992 l 757 174 l 762 174 q 757 276 759 226 q 755 321 756 298 q 753 366 754 343 q 752 410 752 389 q 751 449 751 431 l 751 992 l 878 992 l 878 0 m 431 1089 q 461 1134 445 1108 q 493 1187 477 1160 q 524 1242 509 1215 q 549 1293 538 1269 l 698 1293 l 698 1278 q 665 1233 687 1260 q 618 1175 644 1205 q 564 1118 592 1146 q 513 1071 536 1089 l 431 1071 l 431 1089 "},"ḿ":{"x_min":118,"x_max":1134,"ha":1245,"o":"m 1010 0 l 1010 479 q 976 611 1010 567 q 871 655 942 655 q 786 639 821 655 q 729 592 752 623 q 697 516 707 562 q 687 410 687 470 l 687 0 l 564 0 l 564 479 q 530 611 564 567 q 425 655 496 655 q 337 637 373 655 q 281 585 302 620 q 250 501 259 551 q 241 385 241 450 l 241 0 l 118 0 l 118 745 l 218 745 l 236 644 l 242 644 q 281 694 259 673 q 330 730 303 715 q 387 751 357 744 q 448 758 417 758 q 584 728 530 758 q 663 634 637 698 l 669 634 q 711 689 686 666 q 765 727 736 712 q 828 750 795 743 q 894 758 860 758 q 1073 693 1013 758 q 1134 486 1134 628 l 1134 0 l 1010 0 m 575 860 q 605 905 589 879 q 637 958 621 931 q 668 1013 653 986 q 693 1064 682 1040 l 842 1064 l 842 1049 q 809 1004 831 1031 q 762 946 788 976 q 708 889 736 917 q 657 842 680 860 l 575 842 l 575 860 "},"μ":{"x_min":118,"x_max":706,"ha":825,"o":"m 241 264 q 277 132 241 176 q 388 88 313 88 q 481 106 443 88 q 540 158 518 123 q 573 242 563 192 q 582 357 582 292 l 582 745 l 706 745 l 706 0 l 606 0 l 588 99 l 581 99 q 500 14 548 42 q 381 -14 451 -14 q 296 1 332 -14 q 237 45 261 17 q 239 -7 238 19 q 241 -59 240 -30 q 241 -117 241 -88 l 241 -334 l 118 -334 l 118 745 l 241 745 l 241 264 "},".":{"x_min":100,"x_max":272,"ha":372,"o":"m 100 74 q 106 118 100 100 q 125 147 113 136 q 152 163 136 158 q 186 169 167 169 q 219 163 203 169 q 246 147 235 158 q 265 118 258 136 q 272 74 272 100 q 265 31 272 49 q 246 2 258 13 q 219 -14 235 -9 q 186 -20 203 -20 q 152 -14 167 -20 q 125 2 136 -9 q 106 31 113 13 q 100 74 100 49 "},"‘":{"x_min":16,"x_max":228,"ha":243,"o":"m 24 652 l 16 666 q 38 744 25 703 q 67 828 51 786 q 100 912 82 870 q 135 992 118 954 l 228 992 q 204 905 216 950 q 183 816 193 861 q 164 730 173 772 q 149 652 155 687 l 24 652 "},"π":{"x_min":17.109375,"x_max":831,"ha":875,"o":"m 749 88 q 783 92 767 88 q 810 102 799 97 l 810 3 q 774 -8 799 -2 q 717 -14 749 -14 q 602 30 640 -14 q 564 164 564 75 l 564 642 l 290 642 l 290 0 l 167 0 l 167 642 l 17 642 l 17 691 l 110 745 l 831 745 l 831 642 l 688 642 l 688 173 q 703 107 688 125 q 749 88 719 88 "},"9":{"x_min":72,"x_max":697,"ha":765,"o":"m 697 568 q 689 426 697 497 q 664 290 682 355 q 615 170 646 226 q 536 73 584 114 q 421 9 488 32 q 263 -14 354 -14 q 235 -13 250 -14 q 204 -11 219 -12 q 173 -7 188 -9 q 147 -2 158 -5 l 147 99 q 200 87 171 91 q 259 82 230 82 q 410 115 351 82 q 504 203 469 147 q 553 332 538 258 q 571 486 568 405 l 562 486 q 530 440 549 461 q 485 404 511 419 q 426 379 459 388 q 354 371 394 371 q 237 391 289 371 q 148 449 185 411 q 92 544 112 488 q 72 672 72 600 q 93 811 72 749 q 153 916 114 873 q 248 982 192 959 q 373 1006 304 1006 q 501 979 442 1006 q 603 898 560 953 q 671 762 646 844 q 697 568 697 679 m 374 900 q 300 887 334 900 q 242 845 266 873 q 204 773 217 816 q 191 671 191 730 q 202 586 191 624 q 236 522 213 549 q 292 482 258 496 q 370 467 326 467 q 454 483 417 467 q 518 525 491 499 q 559 583 545 550 q 574 648 574 615 q 561 738 574 693 q 524 819 549 783 q 462 878 499 856 q 374 900 424 900 "},"l":{"x_min":118,"x_max":241.4375,"ha":359,"o":"m 241 0 l 118 0 l 118 1055 l 241 1055 l 241 0 "},"Ъ":{"x_min":14,"x_max":839,"ha":910,"o":"m 839 290 q 818 170 839 224 q 755 79 798 117 q 647 20 712 41 q 490 0 581 0 l 244 0 l 244 880 l 14 880 l 14 992 l 370 992 l 370 574 l 471 574 q 645 551 574 574 q 758 490 715 529 q 820 400 801 452 q 839 290 839 349 m 370 107 l 478 107 q 650 152 595 107 q 705 290 705 197 q 690 370 705 337 q 644 424 675 403 q 566 453 612 444 q 457 462 519 462 l 370 462 l 370 107 "}," ":{"x_min":0,"x_max":0,"ha":139},"Ś":{"x_min":70.109375,"x_max":657,"ha":721,"o":"m 657 264 q 633 147 657 199 q 566 59 610 95 q 460 4 523 23 q 320 -14 398 -14 q 179 -2 245 -14 q 70 32 114 9 l 70 153 q 122 131 93 142 q 184 112 151 120 q 251 99 216 104 q 319 93 285 93 q 479 134 427 93 q 530 252 530 176 q 521 316 530 289 q 486 366 511 343 q 420 410 461 389 q 316 456 379 431 q 212 508 256 480 q 139 572 168 537 q 96 652 110 607 q 83 754 83 697 q 104 860 83 813 q 165 939 126 907 q 259 989 205 972 q 380 1006 314 1006 q 525 990 460 1006 q 640 951 589 975 l 595 845 q 495 880 551 865 q 381 894 440 894 q 254 856 299 894 q 209 752 209 818 q 219 686 209 714 q 252 635 229 657 q 315 592 276 612 q 410 549 353 572 q 517 499 471 525 q 594 441 563 473 q 641 366 625 408 q 657 264 657 323 m 306 1089 q 336 1134 320 1108 q 368 1187 352 1160 q 399 1242 384 1215 q 424 1293 413 1269 l 573 1293 l 573 1278 q 540 1233 562 1260 q 493 1175 519 1205 q 439 1118 467 1146 q 388 1071 411 1089 l 306 1071 l 306 1089 "},"Ü":{"x_min":125,"x_max":845,"ha":970,"o":"m 845 993 l 845 349 q 822 205 845 272 q 755 90 800 139 q 641 13 709 41 q 481 -14 573 -14 q 327 12 394 -14 q 216 86 261 38 q 148 202 171 134 q 125 352 125 269 l 125 991 l 251 991 l 251 346 q 309 162 251 227 q 487 97 368 97 q 591 115 548 97 q 663 167 635 133 q 704 246 690 200 q 718 347 718 292 l 718 993 l 845 993 m 293 1174 q 311 1227 293 1211 q 358 1244 330 1244 q 404 1227 384 1244 q 423 1174 423 1210 q 404 1121 423 1138 q 358 1105 384 1105 q 311 1121 330 1105 q 293 1174 293 1138 m 547 1174 q 566 1227 547 1211 q 612 1244 585 1244 q 637 1239 625 1244 q 658 1227 649 1235 q 672 1206 667 1218 q 678 1174 678 1193 q 658 1121 678 1138 q 612 1105 638 1105 q 566 1121 585 1105 q 547 1174 547 1138 "},"à":{"x_min":64,"x_max":626,"ha":737,"o":"m 536 0 l 511 102 l 505 102 q 461 50 483 72 q 412 13 439 28 q 353 -7 386 0 q 278 -14 321 -14 q 193 0 232 -14 q 125 40 153 12 q 80 109 96 67 q 64 208 64 151 q 142 379 64 320 q 379 445 220 439 l 503 450 l 503 496 q 494 572 503 541 q 465 620 484 602 q 419 647 447 639 q 357 655 392 655 q 253 639 301 655 q 160 599 204 623 l 117 692 q 228 739 167 720 q 357 758 290 758 q 477 744 427 758 q 560 700 527 730 q 609 623 593 669 q 626 509 626 576 l 626 0 l 536 0 m 310 88 q 386 101 351 88 q 447 140 422 114 q 488 205 473 166 q 502 298 502 245 l 502 365 l 405 360 q 303 346 345 357 q 237 316 262 336 q 202 270 213 297 q 191 208 191 243 q 224 117 191 146 q 310 88 257 88 m 460 842 l 378 842 q 326 889 354 860 q 272 946 298 917 q 225 1004 246 976 q 193 1049 203 1031 l 193 1064 l 341 1064 q 367 1013 352 1040 q 397 958 381 986 q 429 905 413 931 q 460 860 445 879 l 460 842 "},"η":{"x_min":118,"x_max":707,"ha":818,"o":"m 583 -334 l 583 479 q 547 611 583 567 q 436 655 512 655 q 343 637 381 655 q 283 585 306 620 q 251 501 261 551 q 241 385 241 450 l 241 0 l 118 0 l 118 745 l 218 745 l 236 644 l 242 644 q 283 694 259 673 q 334 730 306 715 q 393 751 362 744 q 457 758 424 758 q 644 693 581 758 q 707 486 707 628 l 707 -334 l 583 -334 "},"ó":{"x_min":77,"x_max":725,"ha":802,"o":"m 725 373 q 702 208 725 280 q 637 86 679 135 q 534 11 594 37 q 398 -14 474 -14 q 270 11 329 -14 q 168 86 211 37 q 101 208 125 135 q 77 373 77 280 q 99 537 77 465 q 164 657 122 608 q 267 732 206 707 q 403 758 327 758 q 531 732 472 758 q 633 657 590 707 q 700 537 676 608 q 725 373 725 465 m 204 373 q 250 159 204 231 q 401 88 297 88 q 551 159 506 88 q 597 373 597 231 q 551 585 597 515 q 400 655 504 655 q 250 585 295 655 q 204 373 204 515 m 321 860 q 351 905 335 879 q 383 958 367 931 q 414 1013 399 986 q 439 1064 428 1040 l 588 1064 l 588 1049 q 555 1004 577 1031 q 508 946 534 976 q 454 889 482 917 q 403 842 426 860 l 321 842 l 321 860 "},"¦":{"x_min":332,"x_max":433.734375,"ha":765,"o":"m 332 1055 l 433 1055 l 433 526 l 332 526 l 332 1055 m 332 196 l 433 196 l 433 -334 l 332 -334 l 332 196 "},"Ő":{"x_min":85,"x_max":945,"ha":1031,"o":"m 945 496 q 917 287 945 382 q 835 126 890 193 q 701 22 781 59 q 515 -14 620 -14 q 324 22 405 -14 q 189 126 243 59 q 110 288 136 193 q 85 498 85 382 q 110 707 85 613 q 190 867 136 801 q 325 970 243 934 q 517 1007 406 1007 q 701 970 622 1007 q 835 867 781 934 q 917 706 890 800 q 945 496 945 612 m 218 497 q 236 330 218 404 q 290 204 253 255 q 382 124 326 152 q 515 97 438 97 q 648 124 593 97 q 741 204 704 152 q 794 330 777 255 q 811 497 811 404 q 794 664 811 590 q 741 789 777 738 q 649 868 705 840 q 517 895 594 895 q 383 868 439 895 q 290 789 327 840 q 236 664 253 738 q 218 497 218 590 m 312 1089 q 342 1134 326 1108 q 374 1187 358 1160 q 404 1242 390 1215 q 430 1293 419 1269 l 565 1293 l 565 1278 q 532 1233 554 1260 q 485 1175 511 1205 q 431 1118 459 1146 q 380 1071 404 1089 l 312 1071 l 312 1089 m 558 1089 q 588 1134 572 1108 q 620 1187 604 1160 q 650 1242 636 1215 q 675 1293 665 1269 l 810 1293 l 810 1278 q 777 1233 799 1260 q 730 1175 756 1205 q 676 1118 704 1146 q 625 1071 649 1089 l 558 1071 l 558 1089 "},"Ž":{"x_min":56,"x_max":693,"ha":749,"o":"m 693 0 l 56 0 l 56 97 l 537 880 l 70 880 l 70 992 l 679 992 l 679 894 l 197 111 l 693 111 l 693 0 m 604 1274 q 563 1229 587 1255 q 517 1176 540 1203 q 474 1121 494 1148 q 444 1071 454 1094 l 313 1071 q 283 1121 303 1094 q 240 1176 263 1148 q 194 1229 217 1203 q 154 1274 171 1255 l 154 1293 l 236 1293 q 306 1237 270 1270 q 379 1166 342 1204 q 450 1237 414 1204 q 522 1293 487 1270 l 604 1293 l 604 1274 "},"е":{"x_min":77,"x_max":673,"ha":743,"o":"m 412 -14 q 276 11 337 -14 q 170 84 214 36 q 101 203 125 132 q 77 366 77 274 q 99 531 77 458 q 162 654 121 604 q 259 731 202 705 q 384 758 316 758 q 505 733 451 758 q 595 665 558 709 q 653 560 633 621 q 673 423 673 498 l 673 346 l 204 346 q 259 155 207 216 q 413 93 311 93 q 477 97 448 93 q 534 107 507 100 q 587 123 561 113 q 639 145 613 133 l 639 35 q 586 13 612 22 q 533 -2 560 3 q 476 -11 505 -8 q 412 -14 446 -14 m 384 655 q 260 602 306 655 q 207 449 214 549 l 545 449 q 536 533 545 495 q 507 598 526 571 q 457 640 487 625 q 384 655 427 655 "},"Î":{"x_min":12,"x_max":462,"ha":471,"o":"m 414 0 l 55 0 l 55 69 l 172 96 l 172 895 l 55 922 l 55 992 l 414 992 l 414 922 l 298 895 l 298 96 l 414 69 l 414 0 m 462 1071 l 380 1071 q 308 1126 345 1093 q 237 1196 272 1159 q 164 1126 200 1159 q 94 1071 128 1093 l 12 1071 l 12 1089 q 52 1134 29 1108 q 98 1187 75 1160 q 141 1242 121 1215 q 171 1293 161 1269 l 302 1293 q 332 1242 312 1269 q 375 1187 352 1215 q 421 1134 398 1160 q 462 1089 445 1108 l 462 1071 "},"e":{"x_min":77,"x_max":673,"ha":743,"o":"m 412 -14 q 276 11 337 -14 q 170 84 214 36 q 101 203 125 132 q 77 366 77 274 q 99 531 77 458 q 162 654 121 604 q 259 731 202 705 q 384 758 316 758 q 505 733 451 758 q 595 665 558 709 q 653 560 633 621 q 673 423 673 498 l 673 346 l 204 346 q 259 155 207 216 q 413 93 311 93 q 477 97 448 93 q 534 107 507 100 q 587 123 561 113 q 639 145 613 133 l 639 35 q 586 13 612 22 q 533 -2 560 3 q 476 -11 505 -8 q 412 -14 446 -14 m 384 655 q 260 602 306 655 q 207 449 214 549 l 545 449 q 536 533 545 495 q 507 598 526 571 q 457 640 487 625 q 384 655 427 655 "},"ό":{"x_min":77,"x_max":725,"ha":802,"o":"m 725 373 q 702 208 725 280 q 637 86 679 135 q 534 11 594 37 q 398 -14 474 -14 q 270 11 329 -14 q 168 86 211 37 q 101 208 125 135 q 77 373 77 280 q 99 537 77 465 q 164 657 122 608 q 267 732 206 707 q 403 758 327 758 q 531 732 472 758 q 633 657 590 707 q 700 537 676 608 q 725 373 725 465 m 204 373 q 250 159 204 231 q 401 88 297 88 q 551 159 506 88 q 597 373 597 231 q 551 585 597 515 q 400 655 504 655 q 250 585 295 655 q 204 373 204 515 m 352 860 q 365 906 358 880 q 378 960 372 932 q 390 1014 385 987 q 399 1064 396 1041 l 534 1064 l 534 1049 q 518 1007 529 1033 q 492 951 507 980 q 459 892 476 921 q 425 842 441 863 l 352 842 l 352 860 "},"Ĕ":{"x_min":135,"x_max":650,"ha":733,"o":"m 650 0 l 135 0 l 135 992 l 650 992 l 650 880 l 261 880 l 261 574 l 624 574 l 624 462 l 261 462 l 261 111 l 650 111 l 650 0 m 601 1259 q 583 1183 598 1217 q 542 1123 568 1149 q 479 1084 516 1098 q 394 1071 442 1071 q 307 1084 344 1071 q 246 1122 270 1097 q 208 1181 221 1147 q 193 1259 195 1216 l 267 1259 q 279 1212 270 1229 q 305 1186 289 1194 q 344 1175 321 1177 q 397 1172 367 1172 q 443 1175 421 1172 q 483 1188 465 1178 q 512 1214 500 1197 q 526 1259 523 1231 l 601 1259 "},"ļ":{"x_min":69,"x_max":248,"ha":359,"o":"m 241 0 l 118 0 l 118 1055 l 241 1055 l 241 0 m 69 -288 q 85 -246 76 -271 q 102 -191 94 -220 q 116 -135 110 -163 q 125 -85 123 -107 l 248 -85 l 248 -98 q 233 -141 243 -115 q 207 -197 222 -167 q 173 -255 192 -226 q 135 -307 155 -284 l 69 -307 l 69 -288 "}," ":{"x_min":0,"x_max":0,"ha":695},"Ѓ":{"x_min":135,"x_max":649,"ha":682,"o":"m 649 992 l 649 880 l 261 880 l 261 0 l 135 0 l 135 992 l 649 992 m 301 1089 q 331 1134 315 1108 q 363 1187 347 1160 q 394 1242 379 1215 q 419 1293 408 1269 l 568 1293 l 568 1278 q 535 1233 557 1260 q 488 1175 514 1205 q 434 1118 462 1146 q 383 1071 406 1089 l 301 1071 l 301 1089 "},"ò":{"x_min":77,"x_max":725,"ha":802,"o":"m 725 373 q 702 208 725 280 q 637 86 679 135 q 534 11 594 37 q 398 -14 474 -14 q 270 11 329 -14 q 168 86 211 37 q 101 208 125 135 q 77 373 77 280 q 99 537 77 465 q 164 657 122 608 q 267 732 206 707 q 403 758 327 758 q 531 732 472 758 q 633 657 590 707 q 700 537 676 608 q 725 373 725 465 m 204 373 q 250 159 204 231 q 401 88 297 88 q 551 159 506 88 q 597 373 597 231 q 551 585 597 515 q 400 655 504 655 q 250 585 295 655 q 204 373 204 515 m 507 842 l 425 842 q 373 889 401 860 q 319 946 345 917 q 272 1004 293 976 q 240 1049 250 1031 l 240 1064 l 388 1064 q 414 1013 399 1040 q 444 958 428 986 q 476 905 460 931 q 507 860 492 879 l 507 842 "},"ﬄ":{"x_min":19,"x_max":1155.4375,"ha":1274,"o":"m 441 656 l 274 656 l 274 0 l 151 0 l 151 656 l 19 656 l 19 704 l 151 749 l 151 814 q 166 934 151 886 q 210 1010 181 982 q 280 1051 238 1039 q 375 1063 322 1063 q 449 1055 415 1063 q 509 1037 482 1047 l 477 941 q 431 954 456 949 q 379 960 406 960 q 332 954 352 960 q 300 931 313 947 q 280 887 287 915 q 274 815 274 859 l 274 745 l 441 745 l 441 656 m 898 656 l 731 656 l 731 0 l 608 0 l 608 656 l 476 656 l 476 704 l 608 749 l 608 814 q 623 934 608 886 q 667 1010 638 982 q 737 1051 695 1039 q 832 1063 779 1063 q 906 1055 872 1063 q 966 1037 939 1047 l 934 941 q 888 954 913 949 q 836 960 863 960 q 789 954 809 960 q 757 931 770 947 q 737 887 744 915 q 731 815 731 859 l 731 745 l 898 745 l 898 656 m 1155 0 l 1032 0 l 1032 1055 l 1155 1055 l 1155 0 "},"^":{"x_min":28,"x_max":711,"ha":739,"o":"m 28 372 l 339 999 l 408 999 l 711 372 l 601 372 l 373 870 l 137 372 l 28 372 "},"ⁿ":{"x_min":72,"x_max":446,"ha":515,"o":"m 357 540 l 357 827 q 336 905 357 882 q 274 929 315 929 q 223 921 244 929 q 188 897 202 914 q 167 849 174 879 q 160 775 160 820 l 160 540 l 72 540 l 72 994 l 145 994 l 156 934 l 162 934 q 292 1003 205 1003 q 446 833 446 1003 l 446 540 l 357 540 "},"к":{"x_min":118,"x_max":676.25,"ha":682,"o":"m 516 745 l 649 745 l 369 387 l 676 0 l 536 0 l 241 377 l 241 0 l 118 0 l 118 745 l 241 745 l 241 383 l 516 745 "},"￼":{"x_min":57,"x_max":1346,"ha":1389,"o":"m 57 823 l 57 1030 l 262 1030 l 262 954 l 132 954 l 132 823 l 57 823 m 1139 954 l 1139 1030 l 1346 1030 l 1346 823 l 1272 823 l 1272 954 l 1139 954 m 57 -260 l 57 -54 l 132 -54 l 132 -186 l 262 -186 l 262 -260 l 57 -260 m 1139 -260 l 1139 -186 l 1272 -186 l 1272 -54 l 1346 -54 l 1346 -260 l 1139 -260 m 875 -260 l 875 -186 l 1060 -186 l 1060 -260 l 875 -260 m 345 -260 l 345 -186 l 528 -186 l 528 -260 l 345 -260 m 345 954 l 345 1030 l 528 1030 l 528 954 l 345 954 m 1346 26 l 1272 26 l 1272 210 l 1346 210 l 1346 26 m 1346 558 l 1272 558 l 1272 742 l 1346 742 l 1346 558 m 610 -260 l 610 -186 l 794 -186 l 794 -260 l 610 -260 m 132 26 l 57 26 l 57 210 l 132 210 l 132 26 m 610 954 l 610 1030 l 794 1030 l 794 954 l 610 954 m 875 954 l 875 1030 l 1060 1030 l 1060 954 l 875 954 m 132 291 l 57 291 l 57 476 l 132 476 l 132 291 m 132 558 l 57 558 l 57 742 l 132 742 l 132 558 m 1346 291 l 1272 291 l 1272 476 l 1346 476 l 1346 291 m 408 224 q 276 277 322 224 q 231 427 231 331 q 276 577 231 525 q 408 631 322 630 q 540 578 494 631 q 586 427 586 525 q 540 277 586 331 q 408 224 494 224 m 408 294 q 478 329 457 294 q 499 427 499 364 q 478 525 499 490 q 408 559 457 559 q 339 525 361 559 q 317 427 317 490 q 339 329 317 364 q 408 294 361 294 m 643 626 l 759 626 q 871 603 833 626 q 909 524 909 580 q 893 468 909 491 q 847 439 878 445 l 847 437 q 903 406 886 429 q 921 344 921 383 q 884 259 921 289 q 783 229 847 229 l 643 229 l 643 626 m 726 469 l 770 469 q 814 480 801 469 q 826 513 826 491 q 812 546 826 536 q 766 556 798 556 l 726 556 l 726 469 m 726 402 l 726 298 l 776 298 q 822 312 809 298 q 834 352 834 327 q 821 388 834 374 q 773 402 809 402 l 726 402 m 956 231 l 956 300 q 978 297 967 298 q 1002 295 989 295 q 1044 307 1028 295 q 1061 353 1061 319 l 1061 626 l 1146 626 l 1146 356 q 1110 258 1146 292 q 1011 225 1075 225 q 956 231 969 225 "},"ū":{"x_min":111,"x_max":700,"ha":818,"o":"m 600 0 l 582 99 l 575 99 q 534 48 558 70 q 483 13 511 27 q 424 -7 455 0 q 360 -14 393 -14 q 252 1 299 -14 q 174 50 205 17 q 126 135 142 83 q 111 258 111 186 l 111 745 l 234 745 l 234 264 q 270 132 234 176 q 381 88 306 88 q 474 106 436 88 q 534 158 511 123 q 566 242 556 192 q 576 357 576 292 l 576 745 l 700 745 l 700 0 l 600 0 m 214 943 l 604 943 l 604 842 l 214 842 l 214 943 "},"ˆ":{"x_min":175,"x_max":625,"ha":802,"o":"m 625 842 l 543 842 q 471 897 508 864 q 400 967 435 930 q 327 897 363 930 q 257 842 291 864 l 175 842 l 175 860 q 215 905 192 879 q 261 958 238 931 q 304 1013 284 986 q 334 1064 324 1040 l 465 1064 q 495 1013 475 1040 q 538 958 515 986 q 584 905 561 931 q 625 860 608 879 l 625 842 "},"Ẅ":{"x_min":13.75,"x_max":1214.25,"ha":1228,"o":"m 549 992 l 682 992 l 837 411 q 857 335 847 373 q 876 261 867 297 q 891 194 884 225 q 901 136 897 162 q 908 192 904 162 q 917 256 912 223 q 929 325 923 290 q 943 393 936 360 l 1079 992 l 1214 992 l 965 0 l 837 0 l 665 636 q 647 707 656 671 q 631 776 638 744 q 615 848 622 813 q 600 776 608 814 q 585 707 593 745 q 567 632 576 669 l 402 0 l 275 0 l 13 992 l 147 992 l 298 388 q 313 323 306 357 q 325 257 320 290 q 336 192 331 223 q 344 136 341 162 q 352 194 347 161 q 364 264 358 227 q 379 338 371 301 q 396 409 387 376 l 549 992 m 421 1174 q 439 1227 421 1211 q 486 1244 458 1244 q 532 1227 512 1244 q 551 1174 551 1210 q 532 1121 551 1138 q 486 1105 512 1105 q 439 1121 458 1105 q 421 1174 421 1138 m 675 1174 q 694 1227 675 1211 q 740 1244 713 1244 q 765 1239 753 1244 q 786 1227 777 1235 q 800 1206 795 1218 q 806 1174 806 1193 q 786 1121 806 1138 q 740 1105 766 1105 q 694 1121 713 1105 q 675 1174 675 1138 "},"č":{"x_min":77,"x_max":630,"ha":643,"o":"m 402 -14 q 274 7 334 -14 q 171 75 215 28 q 102 193 127 121 q 77 367 77 266 q 102 548 77 474 q 173 669 128 623 q 278 736 218 715 q 408 758 339 758 q 511 746 461 758 q 596 718 562 735 l 559 614 q 524 627 543 621 q 485 638 505 633 q 445 647 465 644 q 408 650 425 650 q 253 581 302 650 q 204 369 204 513 q 253 160 204 226 q 402 93 302 93 q 502 106 457 93 q 583 135 546 118 l 583 26 q 504 -3 546 6 q 402 -14 463 -14 m 630 1045 q 589 1000 613 1026 q 543 947 566 974 q 500 892 520 919 q 470 842 480 865 l 339 842 q 309 892 329 865 q 266 947 289 919 q 220 1000 243 974 q 180 1045 197 1026 l 180 1064 l 262 1064 q 332 1008 296 1041 q 405 937 368 975 q 476 1008 440 975 q 548 1064 513 1041 l 630 1064 l 630 1045 "},"’":{"x_min":16,"x_max":228,"ha":243,"o":"m 219 992 l 228 977 q 205 898 218 939 q 176 815 192 857 q 143 731 160 772 q 108 652 125 690 l 16 652 q 38 737 26 692 q 60 827 49 782 q 79 913 70 871 q 94 992 88 956 l 219 992 "},"Ν":{"x_min":135,"x_max":878,"ha":1013,"o":"m 878 0 l 724 0 l 253 821 l 248 821 q 255 717 252 768 q 259 624 257 673 q 261 538 261 576 l 261 0 l 135 0 l 135 992 l 288 992 l 757 174 l 762 174 q 757 276 759 226 q 755 321 756 298 q 753 366 754 343 q 752 410 752 389 q 751 449 751 431 l 751 992 l 878 992 l 878 0 "},"-":{"x_min":56,"x_max":392,"ha":447,"o":"m 56 315 l 56 429 l 392 429 l 392 315 l 56 315 "},"Q":{"x_min":85,"x_max":945,"ha":1030,"o":"m 945 496 q 928 331 945 407 q 879 193 911 254 q 799 87 847 131 q 687 16 751 42 q 763 -95 717 -47 q 871 -184 810 -144 l 789 -281 q 660 -164 719 -231 q 567 -11 601 -97 q 541 -13 555 -12 q 515 -14 527 -14 q 324 22 405 -14 q 189 126 243 59 q 110 288 136 193 q 85 498 85 382 q 110 707 85 613 q 190 867 136 801 q 325 970 243 934 q 517 1007 406 1007 q 701 970 622 1007 q 835 867 781 934 q 917 706 890 800 q 945 496 945 612 m 218 497 q 236 330 218 404 q 290 204 253 255 q 382 124 326 152 q 515 97 438 97 q 648 124 593 97 q 741 204 704 152 q 794 330 777 255 q 811 497 811 404 q 794 664 811 590 q 741 789 777 738 q 649 868 705 840 q 517 895 594 895 q 383 868 439 895 q 290 789 327 840 q 236 664 253 738 q 218 497 218 590 "},"ј":{"x_min":-46,"x_max":252.96875,"ha":359,"o":"m 44 -334 q -9 -329 12 -334 q -46 -317 -30 -324 l -46 -217 q -10 -227 -28 -224 q 31 -231 8 -231 q 65 -226 50 -231 q 93 -208 81 -221 q 111 -172 105 -194 q 118 -116 118 -150 l 118 745 l 241 745 l 241 -107 q 229 -201 241 -159 q 193 -272 218 -243 q 132 -318 169 -302 q 44 -334 95 -334 m 108 945 q 129 1004 108 986 q 180 1023 149 1023 q 208 1018 195 1023 q 231 1004 221 1014 q 247 980 241 995 q 252 945 252 966 q 231 887 252 906 q 180 868 210 868 q 129 886 149 868 q 108 945 108 905 "},"ě":{"x_min":77,"x_max":673,"ha":743,"o":"m 412 -14 q 276 11 337 -14 q 170 84 214 36 q 101 203 125 132 q 77 366 77 274 q 99 531 77 458 q 162 654 121 604 q 259 731 202 705 q 384 758 316 758 q 505 733 451 758 q 595 665 558 709 q 653 560 633 621 q 673 423 673 498 l 673 346 l 204 346 q 259 155 207 216 q 413 93 311 93 q 477 97 448 93 q 534 107 507 100 q 587 123 561 113 q 639 145 613 133 l 639 35 q 586 13 612 22 q 533 -2 560 3 q 476 -11 505 -8 q 412 -14 446 -14 m 384 655 q 260 602 306 655 q 207 449 214 549 l 545 449 q 536 533 545 495 q 507 598 526 571 q 457 640 487 625 q 384 655 427 655 m 606 1045 q 565 1000 589 1026 q 519 947 542 974 q 476 892 496 919 q 446 842 456 865 l 315 842 q 285 892 305 865 q 242 947 265 919 q 196 1000 219 974 q 156 1045 173 1026 l 156 1064 l 238 1064 q 308 1008 272 1041 q 381 937 344 975 q 452 1008 416 975 q 524 1064 489 1041 l 606 1064 l 606 1045 "},"œ":{"x_min":77,"x_max":1194,"ha":1264,"o":"m 934 -14 q 777 23 846 -14 q 665 135 708 61 q 554 23 622 61 q 400 -14 487 -14 q 271 11 330 -14 q 168 86 211 37 q 101 208 125 135 q 77 373 77 280 q 99 537 77 465 q 164 657 122 608 q 267 732 207 707 q 404 758 328 758 q 553 720 486 758 q 662 610 619 682 q 765 720 702 682 q 906 758 827 758 q 1026 733 973 758 q 1117 665 1079 709 q 1174 560 1154 621 q 1194 423 1194 498 l 1194 346 l 727 346 q 782 155 730 216 q 935 93 833 93 q 999 97 970 93 q 1056 107 1028 100 q 1108 123 1083 113 q 1160 145 1134 133 l 1160 35 q 1107 13 1133 22 q 1054 -2 1081 3 q 997 -11 1027 -8 q 934 -14 968 -14 m 204 373 q 251 159 204 231 q 402 88 297 88 q 552 156 505 88 q 600 366 600 224 q 552 585 600 515 q 401 655 504 655 q 250 585 296 655 q 204 373 204 515 m 1066 449 q 1057 533 1066 495 q 1028 598 1048 571 q 979 640 1009 625 q 906 655 948 655 q 783 602 828 655 q 730 449 737 549 l 1066 449 "},"#":{"x_min":35,"x_max":863,"ha":897,"o":"m 666 606 l 623 382 l 814 382 l 814 290 l 605 290 l 550 0 l 450 0 l 507 290 l 310 290 l 254 0 l 157 0 l 209 290 l 35 290 l 35 382 l 228 382 l 272 606 l 87 606 l 87 699 l 289 699 l 345 992 l 444 992 l 389 699 l 587 699 l 644 992 l 742 992 l 685 699 l 863 699 l 863 606 l 666 606 m 327 382 l 524 382 l 568 606 l 371 606 l 327 382 "},"Џ":{"x_min":135,"x_max":826,"ha":960,"o":"m 826 0 l 546 0 l 546 -261 l 420 -261 l 420 0 l 135 0 l 135 992 l 261 992 l 261 111 l 699 111 l 699 992 l 826 992 l 826 0 "},"Å":{"x_min":-0.25,"x_max":844.25,"ha":844,"o":"m 715 0 l 606 307 l 237 307 l 127 0 l 0 0 l 364 996 l 479 996 l 844 0 l 715 0 m 566 419 l 466 706 q 456 736 462 719 q 444 774 450 754 q 432 817 438 795 q 421 860 426 839 q 410 816 416 839 q 397 773 404 794 q 386 735 391 752 q 376 706 380 718 l 277 419 l 566 419 m 576 1074 q 564 1012 576 1039 q 531 965 552 984 q 482 936 510 946 q 420 927 453 927 q 358 936 386 927 q 310 965 330 946 q 279 1011 290 984 q 269 1073 269 1038 q 279 1134 269 1107 q 310 1180 290 1161 q 358 1209 330 1199 q 420 1219 386 1219 q 481 1209 453 1219 q 531 1180 510 1199 q 564 1135 552 1161 q 576 1074 576 1108 m 501 1073 q 479 1129 501 1109 q 422 1149 457 1149 q 365 1129 387 1149 q 343 1073 343 1109 q 363 1016 343 1036 q 422 996 383 996 q 479 1016 457 996 q 501 1073 501 1036 "},"ș":{"x_min":61.15625,"x_max":564,"ha":627,"o":"m 564 203 q 544 108 564 149 q 487 40 524 68 q 398 0 450 13 q 281 -14 346 -14 q 154 -2 207 -14 q 61 33 101 9 l 61 146 q 107 125 82 135 q 161 106 133 114 q 219 93 189 98 q 279 88 249 88 q 353 95 323 88 q 403 116 384 103 q 431 150 423 130 q 440 194 440 170 q 433 232 440 215 q 409 265 427 249 q 360 299 391 282 q 280 337 329 316 q 193 378 232 358 q 127 424 154 399 q 86 482 100 449 q 72 560 72 515 q 90 645 72 608 q 143 707 109 682 q 224 745 177 732 q 330 758 272 758 q 451 743 396 758 q 554 706 505 729 l 512 606 q 422 641 468 626 q 329 655 376 655 q 228 632 261 655 q 195 568 195 610 q 203 526 195 544 q 229 493 210 509 q 279 461 248 477 q 358 426 311 445 q 444 385 406 405 q 509 339 482 365 q 549 281 535 314 q 564 203 564 249 m 202 -288 q 218 -246 209 -271 q 235 -191 227 -220 q 249 -135 243 -163 q 258 -85 256 -107 l 381 -85 l 381 -98 q 366 -141 376 -115 q 340 -197 355 -167 q 306 -255 325 -226 q 268 -307 288 -284 l 202 -307 l 202 -288 "},"¸":{"x_min":24,"x_max":277,"ha":285,"o":"m 277 -194 q 229 -297 277 -260 q 79 -334 181 -334 q 49 -331 64 -334 q 24 -327 34 -329 l 24 -254 q 50 -257 34 -256 q 77 -258 67 -258 q 152 -247 125 -258 q 179 -208 179 -235 q 170 -186 179 -195 q 146 -169 161 -176 q 109 -157 131 -162 q 64 -147 88 -152 l 125 0 l 207 0 l 168 -78 q 211 -92 191 -83 q 245 -115 230 -101 q 268 -148 260 -128 q 277 -194 277 -168 "},"=":{"x_min":69,"x_max":696,"ha":765,"o":"m 69 577 l 69 679 l 696 679 l 696 577 l 69 577 m 69 300 l 69 402 l 696 402 l 696 300 l 69 300 "},"ρ":{"x_min":111,"x_max":725,"ha":802,"o":"m 725 373 q 703 208 725 280 q 642 86 682 135 q 546 11 602 37 q 418 -14 489 -14 q 319 1 368 -14 q 234 47 271 16 l 230 47 q 232 -13 231 17 q 234 -72 233 -39 q 234 -136 234 -105 l 234 -334 l 111 -334 l 111 373 q 133 537 111 465 q 195 657 155 608 q 293 732 236 707 q 422 758 351 758 q 543 732 488 758 q 639 657 598 707 q 702 537 679 608 q 725 373 725 465 m 417 655 q 280 589 324 655 q 234 386 236 522 l 234 156 q 319 105 271 121 q 419 88 368 88 q 555 159 514 88 q 597 373 597 231 q 555 585 597 515 q 417 655 512 655 "},"Ћ":{"x_min":13,"x_max":873,"ha":977,"o":"m 370 609 l 605 609 q 718 592 668 609 q 802 543 768 575 q 854 464 836 511 q 873 357 873 417 l 873 0 l 746 0 l 746 340 q 711 458 746 419 q 591 497 675 497 l 370 497 l 370 0 l 244 0 l 244 880 l 13 880 l 13 992 l 654 992 l 654 880 l 370 880 l 370 609 "},"ú":{"x_min":111,"x_max":700,"ha":818,"o":"m 600 0 l 582 99 l 575 99 q 534 48 558 70 q 483 13 511 27 q 424 -7 455 0 q 360 -14 393 -14 q 252 1 299 -14 q 174 50 205 17 q 126 135 142 83 q 111 258 111 186 l 111 745 l 234 745 l 234 264 q 270 132 234 176 q 381 88 306 88 q 474 106 436 88 q 534 158 511 123 q 566 242 556 192 q 576 357 576 292 l 576 745 l 700 745 l 700 0 l 600 0 m 331 860 q 361 905 345 879 q 393 958 377 931 q 424 1013 409 986 q 449 1064 438 1040 l 598 1064 l 598 1049 q 565 1004 587 1031 q 518 946 544 976 q 464 889 492 917 q 413 842 436 860 l 331 842 l 331 860 "},"˚":{"x_min":248,"x_max":555,"ha":802,"o":"m 555 989 q 543 927 555 954 q 510 880 531 899 q 461 851 489 861 q 399 842 432 842 q 337 851 365 842 q 289 880 309 861 q 258 926 269 899 q 248 988 248 953 q 258 1049 248 1022 q 289 1095 269 1076 q 337 1124 309 1114 q 399 1134 365 1134 q 460 1124 432 1134 q 510 1095 489 1114 q 543 1050 531 1076 q 555 989 555 1023 m 480 988 q 458 1044 480 1024 q 401 1064 436 1064 q 344 1044 366 1064 q 322 988 322 1024 q 342 931 322 951 q 401 911 362 911 q 458 931 436 911 q 480 988 480 951 "},"д":{"x_min":28,"x_max":732,"ha":760,"o":"m 732 -258 l 615 -258 l 615 0 l 144 0 l 144 -258 l 28 -258 l 28 102 l 85 102 q 163 242 130 167 q 220 401 197 318 q 254 571 243 484 q 267 745 266 658 l 630 745 l 630 102 l 732 102 l 732 -258 m 506 102 l 506 656 l 383 656 q 365 511 378 585 q 332 365 352 437 q 282 226 311 293 q 215 102 253 159 l 506 102 "},"¯":{"x_min":-4,"x_max":699,"ha":695,"o":"m 699 1055 l -4 1055 l -4 1150 l 699 1150 l 699 1055 "},"u":{"x_min":111,"x_max":700,"ha":818,"o":"m 600 0 l 582 99 l 575 99 q 534 48 558 70 q 483 13 511 27 q 424 -7 455 0 q 360 -14 393 -14 q 252 1 299 -14 q 174 50 205 17 q 126 135 142 83 q 111 258 111 186 l 111 745 l 234 745 l 234 264 q 270 132 234 176 q 381 88 306 88 q 474 106 436 88 q 534 158 511 123 q 566 242 556 192 q 576 357 576 292 l 576 745 l 700 745 l 700 0 l 600 0 "},"З":{"x_min":49,"x_max":681,"ha":757,"o":"m 663 759 q 645 668 663 709 q 597 598 628 628 q 524 548 566 568 q 431 521 481 529 l 431 517 q 536 490 489 509 q 615 441 583 471 q 664 370 647 410 q 681 281 681 330 q 658 162 681 216 q 589 68 635 108 q 473 7 543 29 q 311 -14 404 -14 q 171 -2 236 -14 q 49 39 106 9 l 49 154 q 110 128 78 140 q 176 109 143 117 q 243 97 209 102 q 308 93 276 93 q 487 142 428 93 q 547 281 547 192 q 477 414 547 371 q 281 457 407 457 l 153 457 l 153 565 l 271 565 q 382 578 334 565 q 462 615 430 591 q 512 673 495 639 q 529 747 529 706 q 516 811 529 783 q 481 858 504 839 q 426 888 458 878 q 354 898 394 898 q 223 876 280 898 q 115 819 166 854 l 53 904 q 112 943 78 925 q 184 975 145 961 q 268 997 223 989 q 361 1006 312 1006 q 491 987 435 1006 q 585 936 547 969 q 643 858 624 903 q 663 759 663 812 "},"Α":{"x_min":-0.25,"x_max":844.25,"ha":844,"o":"m 715 0 l 606 307 l 237 307 l 127 0 l 0 0 l 364 996 l 479 996 l 844 0 l 715 0 m 566 419 l 466 706 q 456 736 462 719 q 444 774 450 754 q 432 817 438 795 q 421 860 426 839 q 410 816 416 839 q 397 773 404 794 q 386 735 391 752 q 376 706 380 718 l 277 419 l 566 419 "},"⅝":{"x_min":54,"x_max":1011,"ha":1051,"o":"m 232 769 q 310 757 274 769 q 373 722 346 745 q 415 664 400 699 q 431 586 431 630 q 374 438 431 491 q 208 385 318 385 q 124 394 166 385 q 54 422 83 404 l 54 518 q 92 497 71 506 q 133 481 112 488 q 174 471 154 475 q 211 468 194 468 q 301 493 269 468 q 334 577 334 519 q 301 657 334 628 q 208 685 269 685 q 186 684 199 685 q 160 680 174 682 q 134 676 147 678 q 112 672 122 674 l 67 702 l 89 992 l 389 992 l 389 908 l 170 908 l 158 762 q 191 766 172 764 q 232 769 210 769 m 860 992 l 309 0 l 202 0 l 753 992 l 860 992 m 815 604 q 883 594 851 604 q 938 567 914 585 q 976 519 962 548 q 991 453 991 491 q 983 407 991 428 q 962 369 976 386 q 931 338 949 352 q 893 313 914 325 q 938 285 917 300 q 975 251 959 270 q 1001 209 991 233 q 1011 157 1011 186 q 996 87 1011 119 q 956 33 982 56 q 894 0 930 11 q 816 -13 858 -13 q 670 31 721 -13 q 620 153 620 75 q 628 205 620 182 q 651 247 636 228 q 684 281 665 266 q 724 307 703 295 q 690 335 705 321 q 662 368 674 350 q 644 407 650 386 q 638 453 638 428 q 652 519 638 491 q 691 566 667 547 q 748 594 716 585 q 815 604 780 604 m 716 155 q 741 93 716 116 q 814 70 766 70 q 888 93 863 70 q 914 155 914 116 q 906 190 914 174 q 885 219 899 206 q 854 242 872 232 q 813 262 835 253 l 802 266 q 738 219 760 244 q 716 155 716 193 m 813 520 q 755 502 776 520 q 734 449 734 484 q 741 417 734 431 q 757 392 747 404 q 783 371 768 380 q 815 353 798 361 q 846 370 831 360 q 871 390 860 379 q 887 416 881 402 q 894 449 894 430 q 872 502 894 484 q 813 520 850 520 "},"é":{"x_min":77,"x_max":673,"ha":743,"o":"m 412 -14 q 276 11 337 -14 q 170 84 214 36 q 101 203 125 132 q 77 366 77 274 q 99 531 77 458 q 162 654 121 604 q 259 731 202 705 q 384 758 316 758 q 505 733 451 758 q 595 665 558 709 q 653 560 633 621 q 673 423 673 498 l 673 346 l 204 346 q 259 155 207 216 q 413 93 311 93 q 477 97 448 93 q 534 107 507 100 q 587 123 561 113 q 639 145 613 133 l 639 35 q 586 13 612 22 q 533 -2 560 3 q 476 -11 505 -8 q 412 -14 446 -14 m 384 655 q 260 602 306 655 q 207 449 214 549 l 545 449 q 536 533 545 495 q 507 598 526 571 q 457 640 487 625 q 384 655 427 655 m 322 860 q 352 905 336 879 q 384 958 368 931 q 415 1013 400 986 q 440 1064 429 1040 l 589 1064 l 589 1049 q 556 1004 578 1031 q 509 946 535 976 q 455 889 483 917 q 404 842 427 860 l 322 842 l 322 860 "},"Ş":{"x_min":70.109375,"x_max":657,"ha":721,"o":"m 657 264 q 633 147 657 199 q 566 59 610 95 q 460 4 523 23 q 320 -14 398 -14 q 179 -2 245 -14 q 70 32 114 9 l 70 153 q 122 131 93 142 q 184 112 151 120 q 251 99 216 104 q 319 93 285 93 q 479 134 427 93 q 530 252 530 176 q 521 316 530 289 q 486 366 511 343 q 420 410 461 389 q 316 456 379 431 q 212 508 256 480 q 139 572 168 537 q 96 652 110 607 q 83 754 83 697 q 104 860 83 813 q 165 939 126 907 q 259 989 205 972 q 380 1006 314 1006 q 525 990 460 1006 q 640 951 589 975 l 595 845 q 495 880 551 865 q 381 894 440 894 q 254 856 299 894 q 209 752 209 818 q 219 686 209 714 q 252 635 229 657 q 315 592 276 612 q 410 549 353 572 q 517 499 471 525 q 594 441 563 473 q 641 366 625 408 q 657 264 657 323 m 486 -194 q 438 -297 486 -260 q 288 -334 390 -334 q 258 -331 273 -334 q 233 -327 243 -329 l 233 -254 q 259 -257 243 -256 q 286 -258 276 -258 q 361 -247 334 -258 q 388 -208 388 -235 q 379 -186 388 -195 q 355 -169 370 -176 q 318 -157 340 -162 q 273 -147 297 -152 l 334 0 l 416 0 l 377 -78 q 420 -92 400 -83 q 454 -115 439 -101 q 477 -148 469 -128 q 486 -194 486 -168 "},"B":{"x_min":135,"x_max":786,"ha":863,"o":"m 135 992 l 405 992 q 558 978 492 992 q 668 936 624 965 q 735 858 713 906 q 758 740 758 810 q 744 662 758 698 q 707 597 731 625 q 645 551 682 569 q 563 526 609 532 l 563 519 q 650 496 609 511 q 720 454 690 480 q 768 386 751 427 q 786 287 786 345 q 763 166 786 219 q 700 76 741 113 q 598 19 658 39 q 463 0 539 0 l 135 0 l 135 992 m 261 572 l 427 572 q 523 582 485 572 q 586 612 562 592 q 621 662 610 632 q 631 732 631 692 q 579 848 631 813 q 413 884 526 884 l 261 884 l 261 572 m 261 464 l 261 107 l 441 107 q 541 121 500 107 q 606 159 581 134 q 641 217 630 183 q 652 292 652 251 q 641 362 652 330 q 604 416 630 393 q 537 451 579 439 q 433 464 495 464 l 261 464 "},"…":{"x_min":100,"x_max":1017,"ha":1117,"o":"m 100 74 q 106 118 100 100 q 125 147 113 136 q 152 163 136 158 q 186 169 167 169 q 219 163 203 169 q 246 147 235 158 q 265 118 258 136 q 272 74 272 100 q 265 31 272 49 q 246 2 258 13 q 219 -14 235 -9 q 186 -20 203 -20 q 152 -14 167 -20 q 125 2 136 -9 q 106 31 113 13 q 100 74 100 49 m 473 74 q 479 118 473 100 q 498 147 486 136 q 525 163 509 158 q 559 169 540 169 q 592 163 576 169 q 619 147 608 158 q 638 118 631 136 q 645 74 645 100 q 638 31 645 49 q 619 2 631 13 q 592 -14 608 -9 q 559 -20 576 -20 q 525 -14 540 -20 q 498 2 509 -9 q 479 31 486 13 q 473 74 473 49 m 845 74 q 851 118 845 100 q 869 147 857 136 q 897 163 881 158 q 931 169 912 169 q 964 163 948 169 q 991 147 980 158 q 1010 118 1003 136 q 1017 74 1017 100 q 1010 31 1017 49 q 991 2 1003 13 q 964 -14 980 -9 q 931 -20 948 -20 q 869 2 894 -20 q 845 74 845 24 "},"H":{"x_min":135,"x_max":839,"ha":974,"o":"m 839 0 l 712 0 l 712 462 l 261 462 l 261 0 l 135 0 l 135 992 l 261 992 l 261 574 l 712 574 l 712 992 l 839 992 l 839 0 "},"î":{"x_min":-45,"x_max":405,"ha":359,"o":"m 241 0 l 118 0 l 118 745 l 241 745 l 241 0 m 405 842 l 323 842 q 251 897 288 864 q 180 967 215 930 q 107 897 143 930 q 37 842 71 864 l -45 842 l -45 860 q -4 905 -27 879 q 41 958 18 931 q 84 1013 64 986 q 114 1064 104 1040 l 245 1064 q 275 1013 255 1040 q 318 958 295 986 q 364 905 341 931 q 405 860 388 879 l 405 842 "},"ν":{"x_min":-0.25,"x_max":661,"ha":718,"o":"m 0 745 l 127 745 l 263 343 q 282 287 271 320 q 302 218 292 253 q 321 152 313 183 q 333 104 330 121 l 337 104 q 437 239 398 169 q 498 387 475 308 q 529 553 520 465 q 537 745 537 642 l 661 745 q 648 536 661 634 q 604 348 635 439 q 521 172 573 257 q 389 0 469 86 l 259 0 l 0 745 "},"Ό":{"x_min":-16,"x_max":1001,"ha":1087,"o":"m 1001 496 q 973 287 1001 382 q 891 126 946 193 q 757 22 837 59 q 571 -14 676 -14 q 380 22 461 -14 q 245 126 299 59 q 166 288 192 193 q 141 498 141 382 q 166 707 141 613 q 246 867 192 801 q 381 970 299 934 q 573 1007 462 1007 q 757 970 678 1007 q 891 867 837 934 q 973 706 946 800 q 1001 496 1001 612 m 274 497 q 292 330 274 404 q 346 204 309 255 q 438 124 382 152 q 571 97 494 97 q 704 124 649 97 q 797 204 760 152 q 850 330 833 255 q 867 497 867 404 q 850 664 867 590 q 797 789 833 738 q 705 868 761 840 q 573 895 650 895 q 439 868 495 895 q 346 789 383 840 q 292 664 309 738 q 274 497 274 590 m -16 789 q -2 835 -9 809 q 10 889 4 861 q 22 943 17 916 q 31 993 28 970 l 166 993 l 166 978 q 150 936 161 962 q 124 880 139 909 q 91 821 108 850 q 57 771 73 792 l -16 771 l -16 789 "},"−":{"x_min":69,"x_max":696,"ha":765,"o":"m 69 439 l 69 541 l 696 541 l 696 439 l 69 439 "},"⅜":{"x_min":35,"x_max":1011,"ha":1051,"o":"m 414 852 q 386 764 414 800 q 312 712 359 729 q 402 660 372 697 q 432 571 432 624 q 418 496 432 530 q 376 437 404 461 q 305 399 348 413 q 204 386 263 386 q 115 394 157 386 q 35 423 73 402 l 35 514 q 124 481 78 493 q 206 469 169 469 q 304 497 274 469 q 335 575 335 525 q 297 648 335 625 q 193 671 260 671 l 125 671 l 125 745 l 193 745 q 287 771 258 745 q 317 839 317 797 q 310 876 317 860 q 291 901 303 891 q 262 915 278 911 q 227 920 246 920 q 152 907 186 920 q 83 870 119 894 l 36 935 q 76 963 55 951 q 120 985 97 976 q 169 998 143 993 q 224 1004 194 1004 q 307 992 271 1004 q 366 961 342 981 q 402 913 390 940 q 414 852 414 885 m 860 992 l 309 0 l 202 0 l 753 992 l 860 992 m 815 604 q 883 594 851 604 q 938 567 914 585 q 976 519 962 548 q 991 453 991 491 q 983 407 991 428 q 962 369 976 386 q 931 338 949 352 q 893 313 914 325 q 938 285 917 300 q 975 251 959 270 q 1001 209 991 233 q 1011 157 1011 186 q 996 87 1011 119 q 956 33 982 56 q 894 0 930 11 q 816 -13 858 -13 q 670 31 721 -13 q 620 153 620 75 q 628 205 620 182 q 651 247 636 228 q 684 281 665 266 q 724 307 703 295 q 690 335 705 321 q 662 368 674 350 q 644 407 650 386 q 638 453 638 428 q 652 519 638 491 q 691 566 667 547 q 748 594 716 585 q 815 604 780 604 m 716 155 q 741 93 716 116 q 814 70 766 70 q 888 93 863 70 q 914 155 914 116 q 906 190 914 174 q 885 219 899 206 q 854 242 872 232 q 813 262 835 253 l 802 266 q 738 219 760 244 q 716 155 716 193 m 813 520 q 755 502 776 520 q 734 449 734 484 q 741 417 734 431 q 757 392 747 404 q 783 371 768 380 q 815 353 798 361 q 846 370 831 360 q 871 390 860 379 q 887 416 881 402 q 894 449 894 430 q 872 502 894 484 q 813 520 850 520 "},"ǰ":{"x_min":-46,"x_max":405,"ha":359,"o":"m 44 -334 q -9 -329 12 -334 q -46 -317 -30 -324 l -46 -217 q -10 -227 -28 -224 q 31 -231 8 -231 q 65 -226 50 -231 q 93 -208 81 -221 q 111 -172 105 -194 q 118 -116 118 -150 l 118 745 l 241 745 l 241 -107 q 229 -201 241 -159 q 193 -272 218 -243 q 132 -318 169 -302 q 44 -334 95 -334 m 405 1045 q 364 1000 388 1026 q 318 947 341 974 q 275 892 295 919 q 245 842 255 865 l 114 842 q 84 892 104 865 q 41 947 64 919 q -4 1000 18 974 q -45 1045 -27 1026 l -45 1064 l 37 1064 q 107 1008 71 1041 q 180 937 143 975 q 251 1008 215 975 q 323 1064 288 1041 l 405 1064 l 405 1045 "},"ā":{"x_min":64,"x_max":626,"ha":737,"o":"m 536 0 l 511 102 l 505 102 q 461 50 483 72 q 412 13 439 28 q 353 -7 386 0 q 278 -14 321 -14 q 193 0 232 -14 q 125 40 153 12 q 80 109 96 67 q 64 208 64 151 q 142 379 64 320 q 379 445 220 439 l 503 450 l 503 496 q 494 572 503 541 q 465 620 484 602 q 419 647 447 639 q 357 655 392 655 q 253 639 301 655 q 160 599 204 623 l 117 692 q 228 739 167 720 q 357 758 290 758 q 477 744 427 758 q 560 700 527 730 q 609 623 593 669 q 626 509 626 576 l 626 0 l 536 0 m 310 88 q 386 101 351 88 q 447 140 422 114 q 488 205 473 166 q 502 298 502 245 l 502 365 l 405 360 q 303 346 345 357 q 237 316 262 336 q 202 270 213 297 q 191 208 191 243 q 224 117 191 146 q 310 88 257 88 m 174 943 l 564 943 l 564 842 l 174 842 l 174 943 "},"ĵ":{"x_min":-46,"x_max":405,"ha":359,"o":"m 44 -334 q -9 -329 12 -334 q -46 -317 -30 -324 l -46 -217 q -10 -227 -28 -224 q 31 -231 8 -231 q 65 -226 50 -231 q 93 -208 81 -221 q 111 -172 105 -194 q 118 -116 118 -150 l 118 745 l 241 745 l 241 -107 q 229 -201 241 -159 q 193 -272 218 -243 q 132 -318 169 -302 q 44 -334 95 -334 m 405 842 l 323 842 q 251 897 288 864 q 180 967 215 930 q 107 897 143 930 q 37 842 71 864 l -45 842 l -45 860 q -4 905 -27 879 q 41 958 18 931 q 84 1013 64 986 q 114 1064 104 1040 l 245 1064 q 275 1013 255 1040 q 318 958 295 986 q 364 905 341 931 q 405 860 388 879 l 405 842 "},"Ĩ":{"x_min":-8,"x_max":480,"ha":471,"o":"m 414 0 l 55 0 l 55 69 l 172 96 l 172 895 l 55 922 l 55 992 l 414 992 l 414 922 l 298 895 l 298 96 l 414 69 l 414 0 m 336 1072 q 282 1083 309 1072 q 230 1110 256 1095 q 180 1136 204 1124 q 135 1148 156 1148 q 88 1130 104 1148 q 62 1070 72 1112 l -8 1070 q 6 1144 -4 1111 q 35 1201 17 1177 q 78 1237 53 1224 q 135 1250 103 1250 q 191 1238 163 1250 q 244 1211 218 1226 q 293 1185 270 1197 q 336 1173 317 1173 q 382 1191 367 1173 q 408 1251 398 1209 l 480 1251 q 465 1177 476 1210 q 436 1121 454 1144 q 393 1084 418 1097 q 336 1072 368 1072 "},"*":{"x_min":55.3125,"x_max":707.71875,"ha":765,"o":"m 450 1055 l 420 788 l 690 863 l 707 733 l 451 714 l 617 493 l 496 428 l 377 670 l 270 428 l 145 493 l 309 714 l 55 733 l 74 863 l 340 788 l 311 1055 l 450 1055 "},"à":{"x_min":64,"x_max":626,"ha":737,"o":"m 536 0 l 511 102 l 505 102 q 461 50 483 72 q 412 13 439 28 q 353 -7 386 0 q 278 -14 321 -14 q 193 0 232 -14 q 125 40 153 12 q 80 109 96 67 q 64 208 64 151 q 142 379 64 320 q 379 445 220 439 l 503 450 l 503 496 q 494 572 503 541 q 465 620 484 602 q 419 647 447 639 q 357 655 392 655 q 253 639 301 655 q 160 599 204 623 l 117 692 q 228 739 167 720 q 357 758 290 758 q 477 744 427 758 q 560 700 527 730 q 609 623 593 669 q 626 509 626 576 l 626 0 l 536 0 m 310 88 q 386 101 351 88 q 447 140 422 114 q 488 205 473 166 q 502 298 502 245 l 502 365 l 405 360 q 303 346 345 357 q 237 316 262 336 q 202 270 213 297 q 191 208 191 243 q 224 117 191 146 q 310 88 257 88 m 574 1030 q 556 954 571 988 q 515 894 541 920 q 452 855 489 869 q 367 842 415 842 q 280 855 317 842 q 219 893 243 868 q 181 952 194 918 q 166 1030 168 987 l 240 1030 q 252 983 243 1000 q 278 957 262 965 q 317 946 294 948 q 370 943 340 943 q 416 946 394 943 q 456 959 438 949 q 485 985 473 968 q 499 1030 496 1002 l 574 1030 "},"Χ":{"x_min":-0.25,"x_max":760.25,"ha":760,"o":"m 760 0 l 617 0 l 376 430 l 127 0 l 0 0 l 307 518 l 20 992 l 155 992 l 380 612 l 608 992 l 737 992 l 450 522 l 760 0 "},"†":{"x_min":83,"x_max":591.171875,"ha":675,"o":"m 591 670 l 366 691 l 404 0 l 257 0 l 294 691 l 83 670 l 83 793 l 294 772 l 257 1055 l 404 1055 l 366 772 l 591 793 l 591 670 "},"°":{"x_min":83,"x_max":512,"ha":595,"o":"m 83 791 q 100 874 83 835 q 145 942 117 913 q 213 989 174 972 q 297 1006 252 1006 q 380 989 341 1006 q 448 942 419 972 q 495 874 478 913 q 512 791 512 835 q 495 708 512 747 q 448 641 478 669 q 380 595 419 612 q 297 579 341 579 q 213 595 252 579 q 145 641 174 612 q 100 708 117 669 q 83 791 83 747 m 184 790 q 193 744 184 766 q 218 707 203 723 q 256 681 234 690 q 301 671 277 671 q 347 681 326 671 q 385 707 369 690 q 410 744 401 723 q 419 790 419 766 q 410 838 419 815 q 385 877 401 860 q 347 903 369 893 q 301 913 326 913 q 256 903 277 913 q 218 877 234 893 q 193 838 203 860 q 184 790 184 815 "},"Ξ":{"x_min":56,"x_max":682,"ha":737,"o":"m 139 574 l 599 574 l 599 462 l 139 462 l 139 574 m 84 992 l 654 992 l 654 880 l 84 880 l 84 992 m 682 111 l 682 0 l 56 0 l 56 111 l 682 111 "},"Ķ":{"x_min":135,"x_max":804.25,"ha":804,"o":"m 804 0 l 661 0 l 355 473 l 261 396 l 261 0 l 135 0 l 135 992 l 261 992 l 261 496 l 343 609 l 649 992 l 791 992 l 438 559 l 804 0 m 327 -288 q 343 -246 334 -271 q 360 -191 352 -220 q 374 -135 368 -163 q 383 -85 381 -107 l 506 -85 l 506 -98 q 491 -141 501 -115 q 465 -197 480 -167 q 431 -255 450 -226 q 393 -307 413 -284 l 327 -307 l 327 -288 "},"ŵ":{"x_min":13.75,"x_max":1022.25,"ha":1036,"o":"m 683 0 l 570 417 q 563 445 567 430 q 555 477 559 460 q 546 512 551 494 q 538 546 542 529 q 518 628 528 586 l 514 628 q 496 546 505 585 q 480 476 488 512 q 464 415 471 440 l 347 0 l 204 0 l 13 745 l 143 745 l 232 348 q 245 282 239 318 q 258 211 252 246 q 269 146 264 177 q 277 95 274 115 l 281 95 q 290 142 284 113 q 303 205 296 172 q 317 270 310 238 q 331 324 325 302 l 453 745 l 586 745 l 702 324 q 716 270 709 301 q 732 207 724 239 q 745 145 739 175 q 754 95 751 115 l 758 95 q 764 142 760 113 q 775 207 769 172 q 788 279 781 242 q 803 348 795 316 l 896 745 l 1022 745 l 829 0 l 683 0 m 743 842 l 661 842 q 589 897 626 864 q 518 967 553 930 q 445 897 481 930 q 375 842 409 864 l 293 842 l 293 860 q 333 905 310 879 q 379 958 356 931 q 422 1013 402 986 q 452 1064 442 1040 l 583 1064 q 613 1013 593 1040 q 656 958 633 986 q 702 905 679 931 q 743 860 726 879 l 743 842 "},"΄":{"x_min":342,"x_max":524,"ha":802,"o":"m 342 860 q 355 906 348 880 q 368 960 362 932 q 380 1014 375 987 q 389 1064 386 1041 l 524 1064 l 524 1049 q 508 1007 519 1033 q 482 951 497 980 q 449 892 466 921 q 415 842 431 863 l 342 842 l 342 860 "},"ǽ":{"x_min":64,"x_max":1088,"ha":1157,"o":"m 64 208 q 142 379 64 320 q 382 445 221 439 l 508 450 l 508 496 q 498 572 508 541 q 469 620 488 602 q 423 647 450 639 q 360 655 395 655 q 254 639 303 655 q 160 599 205 623 l 117 692 q 229 739 167 720 q 359 758 291 758 q 505 729 448 758 q 591 637 562 700 q 681 726 625 694 q 807 758 737 758 q 924 733 872 758 q 1013 665 976 709 q 1068 560 1049 622 q 1088 424 1088 499 l 1088 347 l 634 347 q 687 157 637 218 q 836 96 737 96 q 897 99 869 96 q 952 109 926 103 q 1004 126 979 116 q 1054 148 1029 135 l 1054 36 q 1002 13 1027 23 q 950 -2 977 4 q 895 -11 923 -8 q 833 -14 866 -14 q 672 24 740 -14 q 562 141 604 63 q 513 75 539 104 q 454 27 487 47 q 383 -3 422 7 q 293 -14 343 -14 q 202 0 244 -14 q 130 40 160 12 q 81 109 99 67 q 64 208 64 151 m 191 207 q 224 117 191 146 q 312 88 258 88 q 389 101 354 88 q 451 139 425 113 q 492 204 477 165 q 507 296 507 243 l 507 363 l 408 358 q 305 345 347 355 q 238 315 263 334 q 202 269 213 296 q 191 207 191 241 m 807 655 q 688 603 731 655 q 637 450 644 550 l 960 450 q 951 533 960 495 q 923 598 942 572 q 876 640 904 625 q 807 655 847 655 m 519 860 q 549 905 533 879 q 581 958 565 931 q 612 1013 597 986 q 637 1064 626 1040 l 786 1064 l 786 1049 q 753 1004 775 1031 q 706 946 732 976 q 652 889 680 917 q 601 842 624 860 l 519 842 l 519 860 "},"Β":{"x_min":135,"x_max":786,"ha":863,"o":"m 135 992 l 405 992 q 558 978 492 992 q 668 936 624 965 q 735 858 713 906 q 758 740 758 810 q 744 662 758 698 q 707 597 731 625 q 645 551 682 569 q 563 526 609 532 l 563 519 q 650 496 609 511 q 720 454 690 480 q 768 386 751 427 q 786 287 786 345 q 763 166 786 219 q 700 76 741 113 q 598 19 658 39 q 463 0 539 0 l 135 0 l 135 992 m 261 572 l 427 572 q 523 582 485 572 q 586 612 562 592 q 621 662 610 632 q 631 732 631 692 q 579 848 631 813 q 413 884 526 884 l 261 884 l 261 572 m 261 464 l 261 107 l 441 107 q 541 121 500 107 q 606 159 581 134 q 641 217 630 183 q 652 292 652 251 q 641 362 652 330 q 604 416 630 393 q 537 451 579 439 q 433 464 495 464 l 261 464 "},"Ļ":{"x_min":135,"x_max":649.4375,"ha":682,"o":"m 135 0 l 135 992 l 261 992 l 261 111 l 649 111 l 649 0 l 135 0 m 279 -288 q 295 -246 286 -271 q 312 -191 304 -220 q 326 -135 320 -163 q 335 -85 333 -107 l 458 -85 l 458 -98 q 443 -141 453 -115 q 417 -197 432 -167 q 383 -255 402 -226 q 345 -307 365 -284 l 279 -307 l 279 -288 "},"Õ":{"x_min":85,"x_max":945,"ha":1031,"o":"m 945 496 q 917 287 945 382 q 835 126 890 193 q 701 22 781 59 q 515 -14 620 -14 q 324 22 405 -14 q 189 126 243 59 q 110 288 136 193 q 85 498 85 382 q 110 707 85 613 q 190 867 136 801 q 325 970 243 934 q 517 1007 406 1007 q 701 970 622 1007 q 835 867 781 934 q 917 706 890 800 q 945 496 945 612 m 218 497 q 236 330 218 404 q 290 204 253 255 q 382 124 326 152 q 515 97 438 97 q 648 124 593 97 q 741 204 704 152 q 794 330 777 255 q 811 497 811 404 q 794 664 811 590 q 741 789 777 738 q 649 868 705 840 q 517 895 594 895 q 383 868 439 895 q 290 789 327 840 q 236 664 253 738 q 218 497 218 590 m 604 1072 q 550 1083 577 1072 q 498 1110 524 1095 q 448 1136 472 1124 q 403 1148 424 1148 q 356 1130 372 1148 q 330 1070 340 1112 l 260 1070 q 274 1144 263 1111 q 303 1201 285 1177 q 346 1237 321 1224 q 403 1250 371 1250 q 459 1238 431 1250 q 512 1211 486 1226 q 561 1185 538 1197 q 604 1173 585 1173 q 650 1191 635 1173 q 676 1251 666 1209 l 748 1251 q 733 1177 744 1210 q 704 1121 722 1144 q 661 1084 686 1097 q 604 1072 636 1072 "},"№":{"x_min":135,"x_max":1308,"ha":1372,"o":"m 807 0 l 653 0 l 253 821 l 248 821 q 255 717 252 768 q 259 624 257 673 q 261 538 261 576 l 261 0 l 135 0 l 135 992 l 288 992 l 686 174 l 690 174 q 685 276 688 226 q 683 321 684 298 q 682 366 682 343 q 681 410 681 389 q 680 449 680 431 l 680 992 l 807 992 l 807 0 m 1308 412 q 1294 309 1308 354 q 1254 234 1280 264 q 1190 187 1227 203 q 1107 171 1153 171 q 1028 187 1064 171 q 966 234 992 203 q 924 309 939 264 q 910 412 910 354 q 923 513 910 469 q 963 588 937 558 q 1027 635 990 619 q 1110 651 1064 651 q 1188 635 1152 651 q 1251 588 1225 619 q 1293 513 1278 558 q 1308 412 1308 469 m 1006 412 q 1031 294 1006 334 q 1109 254 1055 254 q 1187 294 1163 254 q 1211 412 1211 334 q 1187 529 1211 491 q 1109 567 1163 567 q 1031 529 1055 567 q 1006 412 1006 491 m 938 0 l 938 83 l 1275 83 l 1275 0 l 938 0 "},"χ":{"x_min":-14.25,"x_max":720,"ha":728,"o":"m 126 747 q 182 736 157 747 q 226 704 207 725 q 263 652 246 683 q 294 580 279 621 l 377 346 l 573 745 l 694 745 l 424 218 l 544 -107 q 564 -155 554 -132 q 586 -194 574 -177 q 617 -221 599 -211 q 660 -231 635 -231 q 693 -229 677 -231 q 720 -226 709 -228 l 720 -322 q 685 -330 705 -326 q 639 -334 666 -334 q 561 -321 593 -334 q 505 -284 529 -308 q 463 -226 481 -260 q 430 -147 446 -191 l 342 98 l 117 -334 l -14 -334 l 294 228 l 185 530 q 142 614 167 584 q 82 644 118 644 q 39 637 58 644 l 39 735 q 75 743 53 740 q 126 747 96 747 "},"ί":{"x_min":111,"x_max":428,"ha":454,"o":"m 234 743 l 234 220 q 255 121 234 154 q 326 88 277 88 q 353 89 338 88 q 383 93 368 91 q 409 97 397 95 q 428 102 421 100 l 428 8 q 405 0 419 3 q 375 -7 391 -4 q 341 -12 358 -10 q 307 -14 323 -14 q 229 -3 265 -14 q 167 34 193 7 q 125 105 140 60 q 111 219 111 150 l 111 743 l 234 743 m 134 860 q 147 906 140 880 q 160 960 154 932 q 172 1014 167 987 q 181 1064 178 1041 l 316 1064 l 316 1049 q 300 1007 311 1033 q 274 951 289 980 q 241 892 258 921 q 207 842 223 863 l 134 842 l 134 860 "},"Ζ":{"x_min":56,"x_max":693,"ha":749,"o":"m 693 0 l 56 0 l 56 97 l 537 880 l 70 880 l 70 992 l 679 992 l 679 894 l 197 111 l 693 111 l 693 0 "},"Ľ":{"x_min":135,"x_max":649.4375,"ha":682,"o":"m 135 0 l 135 992 l 261 992 l 261 111 l 649 111 l 649 0 l 135 0 m 439 787 q 451 834 445 808 q 463 887 457 860 q 473 942 468 915 q 480 992 478 969 l 603 992 l 603 978 q 588 934 598 961 q 564 879 577 908 q 534 820 550 850 q 504 770 519 791 l 439 770 l 439 787 "},"ť":{"x_min":23,"x_max":505,"ha":471,"o":"m 343 88 q 371 89 355 88 q 400 93 386 91 q 426 97 415 95 q 445 102 438 100 l 445 8 q 422 0 436 3 q 392 -7 409 -4 q 358 -12 376 -10 q 324 -14 341 -14 q 246 -3 282 -14 q 184 34 210 7 q 142 106 157 61 q 128 221 128 152 l 128 656 l 23 656 l 23 709 l 128 759 l 180 915 l 251 915 l 251 745 l 439 745 l 439 656 l 251 656 l 251 221 q 272 121 251 155 q 343 88 294 88 m 341 850 q 353 897 347 871 q 365 950 359 923 q 375 1005 370 978 q 382 1055 380 1032 l 505 1055 l 505 1041 q 490 997 500 1024 q 466 942 479 971 q 436 883 452 913 q 406 833 421 854 l 341 833 l 341 850 "},"5":{"x_min":89,"x_max":688,"ha":765,"o":"m 369 608 q 494 589 436 608 q 596 534 552 570 q 663 443 639 497 q 688 317 688 388 q 664 178 688 240 q 596 74 641 116 q 484 8 550 31 q 330 -14 417 -14 q 262 -10 295 -14 q 197 0 228 -7 q 139 15 167 5 q 89 39 111 26 l 89 156 q 141 128 111 140 q 205 108 172 116 q 272 95 238 99 q 334 91 306 91 q 430 103 388 91 q 501 142 472 116 q 546 208 531 169 q 562 303 562 248 q 502 451 562 400 q 328 502 442 502 q 288 501 310 502 q 245 496 267 499 q 204 491 224 494 q 171 485 185 487 l 110 523 l 147 992 l 615 992 l 615 879 l 254 879 l 228 594 q 285 603 249 598 q 369 608 320 608 "},"o":{"x_min":77,"x_max":725,"ha":802,"o":"m 725 373 q 702 208 725 280 q 637 86 679 135 q 534 11 594 37 q 398 -14 474 -14 q 270 11 329 -14 q 168 86 211 37 q 101 208 125 135 q 77 373 77 280 q 99 537 77 465 q 164 657 122 608 q 267 732 206 707 q 403 758 327 758 q 531 732 472 758 q 633 657 590 707 q 700 537 676 608 q 725 373 725 465 m 204 373 q 250 159 204 231 q 401 88 297 88 q 551 159 506 88 q 597 373 597 231 q 551 585 597 515 q 400 655 504 655 q 250 585 295 655 q 204 373 204 515 "},"Ѕ":{"x_min":70.109375,"x_max":657,"ha":721,"o":"m 657 264 q 633 147 657 199 q 566 59 610 95 q 460 4 523 23 q 320 -14 398 -14 q 179 -2 245 -14 q 70 32 114 9 l 70 153 q 122 131 93 142 q 184 112 151 120 q 251 99 216 104 q 319 93 285 93 q 479 134 427 93 q 530 252 530 176 q 521 316 530 289 q 486 366 511 343 q 420 410 461 389 q 316 456 379 431 q 212 508 256 480 q 139 572 168 537 q 96 652 110 607 q 83 754 83 697 q 104 860 83 813 q 165 939 126 907 q 259 989 205 972 q 380 1006 314 1006 q 525 990 460 1006 q 640 951 589 975 l 595 845 q 495 880 551 865 q 381 894 440 894 q 254 856 299 894 q 209 752 209 818 q 219 686 209 714 q 252 635 229 657 q 315 592 276 612 q 410 549 353 572 q 517 499 471 525 q 594 441 563 473 q 641 366 625 408 q 657 264 657 323 "},"�":{"x_min":57.328125,"x_max":1331.03125,"ha":1389,"o":"m 693 1055 l 1331 419 l 693 -216 l 57 419 l 693 1055 m 737 249 l 737 280 q 748 331 737 310 q 811 392 759 352 q 904 488 878 443 q 931 592 931 532 q 914 676 931 639 q 866 737 897 712 q 791 775 835 762 q 692 789 747 789 q 632 783 662 789 q 572 769 601 778 q 514 747 542 759 q 464 722 487 736 l 519 601 q 608 640 565 624 q 689 656 651 656 q 753 636 732 656 q 774 584 774 616 q 761 528 774 551 q 692 461 747 505 q 620 384 645 425 q 595 289 595 343 l 595 249 l 737 249 m 577 62 q 601 -4 577 20 q 672 -29 625 -29 q 742 -4 718 -29 q 767 62 767 20 q 742 130 767 105 q 672 155 718 155 q 601 130 625 155 q 577 62 577 105 "},"d":{"x_min":77,"x_max":696,"ha":814,"o":"m 577 99 l 572 99 q 537 55 557 76 q 491 19 517 34 q 432 -5 465 3 q 359 -14 400 -14 q 244 10 296 -14 q 154 83 192 34 q 97 203 117 131 q 77 370 77 275 q 97 538 77 466 q 154 659 117 610 q 244 733 192 708 q 359 758 296 758 q 432 749 399 758 q 490 725 464 740 q 537 690 516 710 q 572 649 557 671 l 580 649 q 576 693 578 672 q 573 729 575 711 q 572 759 572 748 l 572 1055 l 696 1055 l 696 0 l 596 0 l 577 99 m 383 88 q 470 104 434 88 q 528 151 506 119 q 560 231 550 183 q 572 342 571 279 l 572 370 q 563 492 572 439 q 532 581 554 545 q 473 636 510 618 q 382 655 437 655 q 247 581 290 655 q 204 369 204 507 q 247 157 204 227 q 383 88 290 88 "},",":{"x_min":43,"x_max":256,"ha":347,"o":"m 245 161 l 256 145 q 233 67 246 108 q 204 -15 220 26 q 170 -99 188 -57 q 136 -179 153 -141 l 43 -179 q 63 -92 53 -137 q 82 -3 72 -48 q 98 82 91 40 q 111 161 106 125 l 245 161 "},"\"":{"x_min":90,"x_max":468.609375,"ha":558,"o":"m 223 992 l 195 634 l 117 634 l 90 992 l 223 992 m 468 992 l 440 634 l 362 634 l 335 992 l 468 992 "},"ľ":{"x_min":118,"x_max":469,"ha":359,"o":"m 241 0 l 118 0 l 118 1055 l 241 1055 l 241 0 m 305 850 q 317 897 311 871 q 329 950 323 923 q 339 1005 334 978 q 346 1055 344 1032 l 469 1055 l 469 1041 q 454 997 464 1024 q 430 942 443 971 q 400 883 416 913 q 370 833 385 854 l 305 833 l 305 850 "},"ė":{"x_min":77,"x_max":673,"ha":743,"o":"m 412 -14 q 276 11 337 -14 q 170 84 214 36 q 101 203 125 132 q 77 366 77 274 q 99 531 77 458 q 162 654 121 604 q 259 731 202 705 q 384 758 316 758 q 505 733 451 758 q 595 665 558 709 q 653 560 633 621 q 673 423 673 498 l 673 346 l 204 346 q 259 155 207 216 q 413 93 311 93 q 477 97 448 93 q 534 107 507 100 q 587 123 561 113 q 639 145 613 133 l 639 35 q 586 13 612 22 q 533 -2 560 3 q 476 -11 505 -8 q 412 -14 446 -14 m 384 655 q 260 602 306 655 q 207 449 214 549 l 545 449 q 536 533 545 495 q 507 598 526 571 q 457 640 487 625 q 384 655 427 655 m 311 945 q 331 1004 311 986 q 382 1023 352 1023 q 411 1018 397 1023 q 434 1004 424 1014 q 449 980 443 995 q 455 945 455 966 q 434 887 455 906 q 382 868 412 868 q 331 886 352 868 q 311 945 311 905 "},"Í":{"x_min":55.34375,"x_max":441,"ha":471,"o":"m 414 0 l 55 0 l 55 69 l 172 96 l 172 895 l 55 922 l 55 992 l 414 992 l 414 922 l 298 895 l 298 96 l 414 69 l 414 0 m 174 1089 q 204 1134 188 1108 q 236 1187 220 1160 q 267 1242 252 1215 q 292 1293 281 1269 l 441 1293 l 441 1278 q 408 1233 430 1260 q 361 1175 387 1205 q 307 1118 335 1146 q 256 1071 279 1089 l 174 1071 l 174 1089 "},"Ú":{"x_min":125,"x_max":845,"ha":970,"o":"m 845 993 l 845 349 q 822 205 845 272 q 755 90 800 139 q 641 13 709 41 q 481 -14 573 -14 q 327 12 394 -14 q 216 86 261 38 q 148 202 171 134 q 125 352 125 269 l 125 991 l 251 991 l 251 346 q 309 162 251 227 q 487 97 368 97 q 591 115 548 97 q 663 167 635 133 q 704 246 690 200 q 718 347 718 292 l 718 993 l 845 993 m 401 1089 q 431 1134 415 1108 q 463 1187 447 1160 q 494 1242 479 1215 q 519 1293 508 1269 l 668 1293 l 668 1278 q 635 1233 657 1260 q 588 1175 614 1205 q 534 1118 562 1146 q 483 1071 506 1089 l 401 1071 l 401 1089 "}," ":{"x_min":0,"x_max":0,"ha":278},"Ŷ":{"x_min":-0.25,"x_max":731.25,"ha":732,"o":"m 364 490 l 595 992 l 731 992 l 428 386 l 428 0 l 302 0 l 302 379 l 0 992 l 137 992 l 364 490 m 592 1071 l 510 1071 q 438 1126 475 1093 q 367 1196 402 1159 q 294 1126 330 1159 q 224 1071 258 1093 l 142 1071 l 142 1089 q 182 1134 159 1108 q 228 1187 205 1160 q 271 1242 251 1215 q 301 1293 291 1269 l 432 1293 q 462 1242 442 1269 q 505 1187 482 1215 q 551 1134 528 1160 q 592 1089 575 1108 l 592 1071 "},"Ý":{"x_min":-0.25,"x_max":731.25,"ha":732,"o":"m 364 490 l 595 992 l 731 992 l 428 386 l 428 0 l 302 0 l 302 379 l 0 992 l 137 992 l 364 490 m 299 1089 q 329 1134 313 1108 q 361 1187 345 1160 q 392 1242 377 1215 q 417 1293 406 1269 l 566 1293 l 566 1278 q 533 1233 555 1260 q 486 1175 512 1205 q 432 1118 460 1146 q 381 1071 404 1089 l 299 1071 l 299 1089 "},"ŝ":{"x_min":61.15625,"x_max":564,"ha":627,"o":"m 564 203 q 544 108 564 149 q 487 40 524 68 q 398 0 450 13 q 281 -14 346 -14 q 154 -2 207 -14 q 61 33 101 9 l 61 146 q 107 125 82 135 q 161 106 133 114 q 219 93 189 98 q 279 88 249 88 q 353 95 323 88 q 403 116 384 103 q 431 150 423 130 q 440 194 440 170 q 433 232 440 215 q 409 265 427 249 q 360 299 391 282 q 280 337 329 316 q 193 378 232 358 q 127 424 154 399 q 86 482 100 449 q 72 560 72 515 q 90 645 72 608 q 143 707 109 682 q 224 745 177 732 q 330 758 272 758 q 451 743 396 758 q 554 706 505 729 l 512 606 q 422 641 468 626 q 329 655 376 655 q 228 632 261 655 q 195 568 195 610 q 203 526 195 544 q 229 493 210 509 q 279 461 248 477 q 358 426 311 445 q 444 385 406 405 q 509 339 482 365 q 549 281 535 314 q 564 203 564 249 m 557 842 l 475 842 q 403 897 440 864 q 332 967 367 930 q 259 897 295 930 q 189 842 223 864 l 107 842 l 107 860 q 147 905 124 879 q 193 958 170 931 q 236 1013 216 986 q 266 1064 256 1040 l 397 1064 q 427 1013 407 1040 q 470 958 447 986 q 516 905 493 931 q 557 860 540 879 l 557 842 "}," ":{"x_min":0,"x_max":0,"ha":1389}}}
